%TF.GenerationSoftware,KiCad,Pcbnew,8.0.6*%
%TF.CreationDate,2024-12-29T16:51:47+05:30*%
%TF.ProjectId,STM32_RF,53544d33-325f-4524-962e-6b696361645f,rev?*%
%TF.SameCoordinates,Original*%
%TF.FileFunction,Copper,L1,Top*%
%TF.FilePolarity,Positive*%
%FSLAX46Y46*%
G04 Gerber Fmt 4.6, Leading zero omitted, Abs format (unit mm)*
G04 Created by KiCad (PCBNEW 8.0.6) date 2024-12-29 16:51:47*
%MOMM*%
%LPD*%
G01*
G04 APERTURE LIST*
G04 Aperture macros list*
%AMRoundRect*
0 Rectangle with rounded corners*
0 $1 Rounding radius*
0 $2 $3 $4 $5 $6 $7 $8 $9 X,Y pos of 4 corners*
0 Add a 4 corners polygon primitive as box body*
4,1,4,$2,$3,$4,$5,$6,$7,$8,$9,$2,$3,0*
0 Add four circle primitives for the rounded corners*
1,1,$1+$1,$2,$3*
1,1,$1+$1,$4,$5*
1,1,$1+$1,$6,$7*
1,1,$1+$1,$8,$9*
0 Add four rect primitives between the rounded corners*
20,1,$1+$1,$2,$3,$4,$5,0*
20,1,$1+$1,$4,$5,$6,$7,0*
20,1,$1+$1,$6,$7,$8,$9,0*
20,1,$1+$1,$8,$9,$2,$3,0*%
G04 Aperture macros list end*
%TA.AperFunction,Conductor*%
%ADD10C,0.200000*%
%TD*%
%TA.AperFunction,SMDPad,CuDef*%
%ADD11RoundRect,0.218750X-0.256250X0.218750X-0.256250X-0.218750X0.256250X-0.218750X0.256250X0.218750X0*%
%TD*%
%TA.AperFunction,SMDPad,CuDef*%
%ADD12RoundRect,0.140000X0.170000X-0.140000X0.170000X0.140000X-0.170000X0.140000X-0.170000X-0.140000X0*%
%TD*%
%TA.AperFunction,SMDPad,CuDef*%
%ADD13RoundRect,0.150000X0.512500X0.150000X-0.512500X0.150000X-0.512500X-0.150000X0.512500X-0.150000X0*%
%TD*%
%TA.AperFunction,ComponentPad*%
%ADD14R,1.000000X1.000000*%
%TD*%
%TA.AperFunction,ComponentPad*%
%ADD15O,1.000000X1.000000*%
%TD*%
%TA.AperFunction,SMDPad,CuDef*%
%ADD16RoundRect,0.140000X-0.170000X0.140000X-0.170000X-0.140000X0.170000X-0.140000X0.170000X0.140000X0*%
%TD*%
%TA.AperFunction,SMDPad,CuDef*%
%ADD17RoundRect,0.135000X0.185000X-0.135000X0.185000X0.135000X-0.185000X0.135000X-0.185000X-0.135000X0*%
%TD*%
%TA.AperFunction,SMDPad,CuDef*%
%ADD18RoundRect,0.147500X0.172500X-0.147500X0.172500X0.147500X-0.172500X0.147500X-0.172500X-0.147500X0*%
%TD*%
%TA.AperFunction,SMDPad,CuDef*%
%ADD19RoundRect,0.147500X-0.147500X-0.172500X0.147500X-0.172500X0.147500X0.172500X-0.147500X0.172500X0*%
%TD*%
%TA.AperFunction,SMDPad,CuDef*%
%ADD20R,1.350000X0.400000*%
%TD*%
%TA.AperFunction,ComponentPad*%
%ADD21O,1.900000X1.200000*%
%TD*%
%TA.AperFunction,SMDPad,CuDef*%
%ADD22R,1.900000X1.200000*%
%TD*%
%TA.AperFunction,ComponentPad*%
%ADD23C,1.450000*%
%TD*%
%TA.AperFunction,SMDPad,CuDef*%
%ADD24R,1.900000X1.500000*%
%TD*%
%TA.AperFunction,SMDPad,CuDef*%
%ADD25RoundRect,0.218750X-0.218750X-0.381250X0.218750X-0.381250X0.218750X0.381250X-0.218750X0.381250X0*%
%TD*%
%TA.AperFunction,SMDPad,CuDef*%
%ADD26RoundRect,0.225000X0.250000X-0.225000X0.250000X0.225000X-0.250000X0.225000X-0.250000X-0.225000X0*%
%TD*%
%TA.AperFunction,SMDPad,CuDef*%
%ADD27RoundRect,0.140000X-0.140000X-0.170000X0.140000X-0.170000X0.140000X0.170000X-0.140000X0.170000X0*%
%TD*%
%TA.AperFunction,SMDPad,CuDef*%
%ADD28RoundRect,0.062500X-0.350000X-0.062500X0.350000X-0.062500X0.350000X0.062500X-0.350000X0.062500X0*%
%TD*%
%TA.AperFunction,SMDPad,CuDef*%
%ADD29RoundRect,0.062500X-0.062500X-0.350000X0.062500X-0.350000X0.062500X0.350000X-0.062500X0.350000X0*%
%TD*%
%TA.AperFunction,HeatsinkPad*%
%ADD30R,2.500000X2.500000*%
%TD*%
%TA.AperFunction,SMDPad,CuDef*%
%ADD31RoundRect,0.135000X-0.185000X0.135000X-0.185000X-0.135000X0.185000X-0.135000X0.185000X0.135000X0*%
%TD*%
%TA.AperFunction,SMDPad,CuDef*%
%ADD32RoundRect,0.062500X-0.062500X0.375000X-0.062500X-0.375000X0.062500X-0.375000X0.062500X0.375000X0*%
%TD*%
%TA.AperFunction,SMDPad,CuDef*%
%ADD33RoundRect,0.062500X-0.375000X0.062500X-0.375000X-0.062500X0.375000X-0.062500X0.375000X0.062500X0*%
%TD*%
%TA.AperFunction,HeatsinkPad*%
%ADD34R,3.450000X3.450000*%
%TD*%
%TA.AperFunction,SMDPad,CuDef*%
%ADD35RoundRect,0.200000X-0.200000X-0.275000X0.200000X-0.275000X0.200000X0.275000X-0.200000X0.275000X0*%
%TD*%
%TA.AperFunction,SMDPad,CuDef*%
%ADD36RoundRect,0.140000X0.140000X0.170000X-0.140000X0.170000X-0.140000X-0.170000X0.140000X-0.170000X0*%
%TD*%
%TA.AperFunction,SMDPad,CuDef*%
%ADD37RoundRect,0.135000X0.135000X0.185000X-0.135000X0.185000X-0.135000X-0.185000X0.135000X-0.185000X0*%
%TD*%
%TA.AperFunction,SMDPad,CuDef*%
%ADD38R,1.400000X1.200000*%
%TD*%
%TA.AperFunction,SMDPad,CuDef*%
%ADD39RoundRect,0.225000X-0.225000X-0.250000X0.225000X-0.250000X0.225000X0.250000X-0.225000X0.250000X0*%
%TD*%
%TA.AperFunction,SMDPad,CuDef*%
%ADD40RoundRect,0.150000X0.150000X-0.512500X0.150000X0.512500X-0.150000X0.512500X-0.150000X-0.512500X0*%
%TD*%
%TA.AperFunction,SMDPad,CuDef*%
%ADD41RoundRect,0.225000X-0.250000X0.225000X-0.250000X-0.225000X0.250000X-0.225000X0.250000X0.225000X0*%
%TD*%
%TA.AperFunction,SMDPad,CuDef*%
%ADD42RoundRect,0.200000X0.200000X0.275000X-0.200000X0.275000X-0.200000X-0.275000X0.200000X-0.275000X0*%
%TD*%
%TA.AperFunction,SMDPad,CuDef*%
%ADD43R,3.600000X1.270000*%
%TD*%
%TA.AperFunction,SMDPad,CuDef*%
%ADD44R,4.200000X1.350000*%
%TD*%
%TA.AperFunction,SMDPad,CuDef*%
%ADD45RoundRect,0.250000X-0.375000X-0.625000X0.375000X-0.625000X0.375000X0.625000X-0.375000X0.625000X0*%
%TD*%
%TA.AperFunction,ViaPad*%
%ADD46C,0.600000*%
%TD*%
%TA.AperFunction,ViaPad*%
%ADD47C,0.700000*%
%TD*%
%TA.AperFunction,Conductor*%
%ADD48C,0.500000*%
%TD*%
%TA.AperFunction,Conductor*%
%ADD49C,0.300000*%
%TD*%
%TA.AperFunction,Conductor*%
%ADD50C,0.250000*%
%TD*%
%TA.AperFunction,Conductor*%
%ADD51C,0.293370*%
%TD*%
%TA.AperFunction,Conductor*%
%ADD52C,0.700000*%
%TD*%
G04 APERTURE END LIST*
D10*
%TO.N,GND*%
X191545013Y-67599738D02*
G75*
G02*
X192399999Y-68550000I-45013J-900262D01*
G01*
X191700000Y-67600000D02*
X184000000Y-67600000D01*
X184000000Y-72900000D01*
X183400000Y-72900000D01*
X183400000Y-67010000D01*
X191690000Y-67010000D01*
X191700000Y-67600000D01*
%TA.AperFunction,Conductor*%
G36*
X191700000Y-67600000D02*
G01*
X184000000Y-67600000D01*
X184000000Y-72900000D01*
X183400000Y-72900000D01*
X183400000Y-67010000D01*
X191690000Y-67010000D01*
X191700000Y-67600000D01*
G37*
%TD.AperFunction*%
X184000000Y-80410000D02*
X191700000Y-80410000D01*
X191690000Y-81000000D01*
X183400000Y-81000000D01*
X183400000Y-76510000D01*
X184000000Y-76510000D01*
X184000000Y-80410000D01*
%TA.AperFunction,Conductor*%
G36*
X184000000Y-80410000D02*
G01*
X191700000Y-80410000D01*
X191690000Y-81000000D01*
X183400000Y-81000000D01*
X183400000Y-76510000D01*
X184000000Y-76510000D01*
X184000000Y-80410000D01*
G37*
%TD.AperFunction*%
X192399999Y-79460000D02*
G75*
G02*
X191545013Y-80410262I-899999J-50000D01*
G01*
%TO.N,+3.3V*%
X167400000Y-73300000D02*
X165600000Y-73300000D01*
X165600000Y-71900000D01*
X167400000Y-71900000D01*
X167400000Y-73300000D01*
%TA.AperFunction,Conductor*%
G36*
X167400000Y-73300000D02*
G01*
X165600000Y-73300000D01*
X165600000Y-71900000D01*
X167400000Y-71900000D01*
X167400000Y-73300000D01*
G37*
%TD.AperFunction*%
%TO.N,GND*%
X192900000Y-79860000D02*
X192800000Y-80110000D01*
X192650000Y-80360000D01*
X192400000Y-80660000D01*
X192300000Y-80710000D01*
X192150000Y-80810000D01*
X191850000Y-80910000D01*
X191800000Y-80910000D01*
X191800000Y-80460000D01*
X192000000Y-80360000D01*
X192150000Y-80260000D01*
X192250000Y-80160000D01*
X192350000Y-80010000D01*
X192400000Y-79860000D01*
X192500000Y-79660000D01*
X192450000Y-79610000D01*
X192900000Y-79610000D01*
X192900000Y-79860000D01*
%TA.AperFunction,Conductor*%
G36*
X192900000Y-79860000D02*
G01*
X192800000Y-80110000D01*
X192650000Y-80360000D01*
X192400000Y-80660000D01*
X192300000Y-80710000D01*
X192150000Y-80810000D01*
X191850000Y-80910000D01*
X191800000Y-80910000D01*
X191800000Y-80460000D01*
X192000000Y-80360000D01*
X192150000Y-80260000D01*
X192250000Y-80160000D01*
X192350000Y-80010000D01*
X192400000Y-79860000D01*
X192500000Y-79660000D01*
X192450000Y-79610000D01*
X192900000Y-79610000D01*
X192900000Y-79860000D01*
G37*
%TD.AperFunction*%
X191500000Y-67000000D02*
G75*
G02*
X193000000Y-68500000I0J-1500000D01*
G01*
X193000000Y-79510000D02*
G75*
G02*
X191500000Y-81010000I-1500000J0D01*
G01*
X192400000Y-78010000D02*
X193000000Y-78010000D01*
X193000000Y-79510000D01*
X192400000Y-79510000D01*
X192400000Y-78010000D01*
%TA.AperFunction,Conductor*%
G36*
X192400000Y-78010000D02*
G01*
X193000000Y-78010000D01*
X193000000Y-79510000D01*
X192400000Y-79510000D01*
X192400000Y-78010000D01*
G37*
%TD.AperFunction*%
X192150000Y-67200000D02*
X192300000Y-67300000D01*
X192400000Y-67350000D01*
X192650000Y-67650000D01*
X192800000Y-67900000D01*
X192900000Y-68150000D01*
X192900000Y-68400000D01*
X192450000Y-68400000D01*
X192500000Y-68350000D01*
X192400000Y-68150000D01*
X192350000Y-68000000D01*
X192250000Y-67850000D01*
X192150000Y-67750000D01*
X192000000Y-67650000D01*
X191800000Y-67550000D01*
X191800000Y-67100000D01*
X191850000Y-67100000D01*
X192150000Y-67200000D01*
%TA.AperFunction,Conductor*%
G36*
X192150000Y-67200000D02*
G01*
X192300000Y-67300000D01*
X192400000Y-67350000D01*
X192650000Y-67650000D01*
X192800000Y-67900000D01*
X192900000Y-68150000D01*
X192900000Y-68400000D01*
X192450000Y-68400000D01*
X192500000Y-68350000D01*
X192400000Y-68150000D01*
X192350000Y-68000000D01*
X192250000Y-67850000D01*
X192150000Y-67750000D01*
X192000000Y-67650000D01*
X191800000Y-67550000D01*
X191800000Y-67100000D01*
X191850000Y-67100000D01*
X192150000Y-67200000D01*
G37*
%TD.AperFunction*%
X193000000Y-70000000D02*
X192400000Y-70000000D01*
X192400000Y-68500000D01*
X193000000Y-68500000D01*
X193000000Y-70000000D01*
%TA.AperFunction,Conductor*%
G36*
X193000000Y-70000000D02*
G01*
X192400000Y-70000000D01*
X192400000Y-68500000D01*
X193000000Y-68500000D01*
X193000000Y-70000000D01*
G37*
%TD.AperFunction*%
%TD*%
D11*
%TO.P,D2,1,K*%
%TO.N,Net-(D2-K)*%
X169900000Y-68325000D03*
%TO.P,D2,2,A*%
%TO.N,Net-(D2-A)*%
X169900000Y-69900000D03*
%TD*%
D12*
%TO.P,C7,1*%
%TO.N,+3.3V*%
X171300000Y-69980000D03*
%TO.P,C7,2*%
%TO.N,GND*%
X171300000Y-69020000D03*
%TD*%
D11*
%TO.P,D1,1,K*%
%TO.N,Net-(D1-K)*%
X168200000Y-68325000D03*
%TO.P,D1,2,A*%
%TO.N,Net-(D1-A)*%
X168200000Y-69900000D03*
%TD*%
D12*
%TO.P,C14,1*%
%TO.N,NRF_XC2*%
X176725000Y-80130000D03*
%TO.P,C14,2*%
%TO.N,GND*%
X176725000Y-79170000D03*
%TD*%
%TO.P,C3,1*%
%TO.N,SWD_NRST*%
X159100000Y-79980000D03*
%TO.P,C3,2*%
%TO.N,GND*%
X159100000Y-79020000D03*
%TD*%
%TO.P,C10,1*%
%TO.N,+3.3V*%
X182300000Y-70500000D03*
%TO.P,C10,2*%
%TO.N,GND*%
X182300000Y-69540000D03*
%TD*%
D13*
%TO.P,U3,1,I/O1*%
%TO.N,USB_D+*%
X165137500Y-75850000D03*
%TO.P,U3,2,GND*%
%TO.N,GND*%
X165137500Y-74900000D03*
%TO.P,U3,3,I/O2*%
%TO.N,USB_D-*%
X165137500Y-73950000D03*
%TO.P,U3,4,I/O2*%
%TO.N,USB_CONN_D-*%
X162862500Y-73950000D03*
%TO.P,U3,5,VBUS*%
%TO.N,+5V*%
X162862500Y-74900000D03*
%TO.P,U3,6,I/O1*%
%TO.N,USB_CONN_D+*%
X162862500Y-75850000D03*
%TD*%
D14*
%TO.P,J2,1,Pin_1*%
%TO.N,+3.3V*%
X165900000Y-78430000D03*
D15*
%TO.P,J2,2,Pin_2*%
%TO.N,SWD_DIO*%
X165900000Y-79700000D03*
%TO.P,J2,3,Pin_3*%
%TO.N,GND*%
X164630000Y-78430000D03*
%TO.P,J2,4,Pin_4*%
%TO.N,SWD_CLK*%
X164630000Y-79700000D03*
%TO.P,J2,5,Pin_5*%
%TO.N,GND*%
X163360000Y-78430000D03*
%TO.P,J2,6,Pin_6*%
%TO.N,unconnected-(J2-Pin_6-Pad6)*%
X163360000Y-79700000D03*
%TO.P,J2,7,Pin_7*%
%TO.N,unconnected-(J2-Pin_7-Pad7)*%
X162090000Y-78430000D03*
%TO.P,J2,8,Pin_8*%
%TO.N,unconnected-(J2-Pin_8-Pad8)*%
X162090000Y-79700000D03*
%TO.P,J2,9,Pin_9*%
%TO.N,GND*%
X160820000Y-78430000D03*
%TO.P,J2,10,Pin_10*%
%TO.N,SWD_NRST*%
X160820000Y-79700000D03*
%TD*%
D16*
%TO.P,C17,1*%
%TO.N,NRF_VDD_PA*%
X184970000Y-75790000D03*
%TO.P,C17,2*%
%TO.N,GND*%
X184970000Y-76750000D03*
%TD*%
D17*
%TO.P,R1,1*%
%TO.N,Net-(U4-PH3)*%
X175300000Y-70210000D03*
%TO.P,R1,2*%
%TO.N,GND*%
X175300000Y-69190000D03*
%TD*%
D18*
%TO.P,L3,1,1*%
%TO.N,NRF_VDD_PA*%
X183750000Y-75720000D03*
%TO.P,L3,2,2*%
%TO.N,NRF_ANT1*%
X183750000Y-74750000D03*
%TD*%
D19*
%TO.P,L1,1,1*%
%TO.N,NRF_ANT2*%
X183765000Y-73750000D03*
%TO.P,L1,2,2*%
%TO.N,Net-(C15-Pad1)*%
X184735000Y-73750000D03*
%TD*%
D12*
%TO.P,C4,1*%
%TO.N,+3.3V*%
X174250000Y-70180000D03*
%TO.P,C4,2*%
%TO.N,GND*%
X174250000Y-69220000D03*
%TD*%
%TO.P,C5,1*%
%TO.N,+3.3V*%
X173250000Y-70180000D03*
%TO.P,C5,2*%
%TO.N,GND*%
X173250000Y-69220000D03*
%TD*%
D20*
%TO.P,J1,1,VBUS*%
%TO.N,+5V*%
X158500000Y-72700000D03*
%TO.P,J1,2,D-*%
%TO.N,USB_CONN_D-*%
X158500000Y-73350000D03*
%TO.P,J1,3,D+*%
%TO.N,USB_CONN_D+*%
X158500000Y-74000000D03*
%TO.P,J1,4,ID*%
%TO.N,unconnected-(J1-ID-Pad4)*%
X158500000Y-74650000D03*
%TO.P,J1,5,GND*%
%TO.N,GND*%
X158500000Y-75300000D03*
D21*
%TO.P,J1,6,Shield*%
%TO.N,N/C*%
X155800000Y-70500000D03*
D22*
%TO.N,unconnected-(J1-Shield-Pad6)_4*%
X155800000Y-71100000D03*
D23*
%TO.N,N/C*%
X158500000Y-71500000D03*
D24*
%TO.N,unconnected-(J1-Shield-Pad6)_4*%
X155800000Y-73000000D03*
X155800000Y-75000000D03*
D23*
%TO.N,N/C*%
X158500000Y-76500000D03*
D22*
%TO.N,unconnected-(J1-Shield-Pad6)_4*%
X155800000Y-76900000D03*
D21*
%TO.N,N/C*%
X155800000Y-77500000D03*
%TD*%
D25*
%TO.P,FB1,1*%
%TO.N,Net-(F1-Pad2)*%
X161037500Y-67750000D03*
%TO.P,FB1,2*%
%TO.N,Net-(U1-VI)*%
X163162500Y-67750000D03*
%TD*%
D26*
%TO.P,C2,1*%
%TO.N,+3.3V*%
X166250000Y-72250000D03*
%TO.P,C2,2*%
%TO.N,GND*%
X166250000Y-70700000D03*
%TD*%
D27*
%TO.P,C9,1*%
%TO.N,+3.3V*%
X177170000Y-77400000D03*
%TO.P,C9,2*%
%TO.N,GND*%
X178130000Y-77400000D03*
%TD*%
D28*
%TO.P,U2,1,CE*%
%TO.N,NRF_CE*%
X177625000Y-73000000D03*
%TO.P,U2,2,CSN*%
%TO.N,SPI3_!CS*%
X177625000Y-73500000D03*
%TO.P,U2,3,SCK*%
%TO.N,SPI3_SCK*%
X177625000Y-74000000D03*
%TO.P,U2,4,MOSI*%
%TO.N,SPI3_MOSI*%
X177625000Y-74500000D03*
%TO.P,U2,5,MISO*%
%TO.N,SPI3_MISO*%
X177625000Y-75000000D03*
D29*
%TO.P,U2,6,IRQ*%
%TO.N,NRF_IRQ*%
X178562500Y-75937500D03*
%TO.P,U2,7,VDD*%
%TO.N,+3.3V*%
X179062500Y-75937500D03*
%TO.P,U2,8,VSS*%
%TO.N,GND*%
X179562500Y-75937500D03*
%TO.P,U2,9,XC2*%
%TO.N,NRF_XC2*%
X180062500Y-75937500D03*
%TO.P,U2,10,XC1*%
%TO.N,NRF_XC1*%
X180562500Y-75937500D03*
D28*
%TO.P,U2,11,VDD_PA*%
%TO.N,NRF_VDD_PA*%
X181500000Y-75000000D03*
%TO.P,U2,12,ANT1*%
%TO.N,NRF_ANT1*%
X181500000Y-74500000D03*
%TO.P,U2,13,ANT2*%
%TO.N,NRF_ANT2*%
X181500000Y-74000000D03*
%TO.P,U2,14,VSS*%
%TO.N,GND*%
X181500000Y-73500000D03*
%TO.P,U2,15,VDD*%
%TO.N,+3.3V*%
X181500000Y-73000000D03*
D29*
%TO.P,U2,16,IREF*%
%TO.N,Net-(U2-IREF)*%
X180562500Y-72062500D03*
%TO.P,U2,17,VSS*%
%TO.N,GND*%
X180062500Y-72062500D03*
%TO.P,U2,18,VDD*%
%TO.N,+3.3V*%
X179562500Y-72062500D03*
%TO.P,U2,19,DVDD*%
%TO.N,Net-(U2-DVDD)*%
X179062500Y-72062500D03*
%TO.P,U2,20,VSS*%
%TO.N,GND*%
X178562500Y-72062500D03*
D30*
%TO.P,U2,21*%
X179562500Y-74000000D03*
%TD*%
D31*
%TO.P,R4,1*%
%TO.N,GND*%
X181100000Y-69510000D03*
%TO.P,R4,2*%
%TO.N,Net-(U2-IREF)*%
X181100000Y-70530000D03*
%TD*%
D27*
%TO.P,C11,1*%
%TO.N,+3.3V*%
X178965000Y-70520000D03*
%TO.P,C11,2*%
%TO.N,GND*%
X179925000Y-70520000D03*
%TD*%
D32*
%TO.P,U4,1,VDD*%
%TO.N,+3.3V*%
X173412500Y-71562500D03*
%TO.P,U4,2,PC14*%
%TO.N,unconnected-(U4-PC14-Pad2)*%
X172912500Y-71562500D03*
%TO.P,U4,3,PC15*%
%TO.N,unconnected-(U4-PC15-Pad3)*%
X172412500Y-71562500D03*
%TO.P,U4,4,NRST*%
%TO.N,SWD_NRST*%
X171912500Y-71562500D03*
%TO.P,U4,5,VDDA*%
%TO.N,+3.3V*%
X171412500Y-71562500D03*
%TO.P,U4,6,PA0*%
%TO.N,unconnected-(U4-PA0-Pad6)*%
X170912500Y-71562500D03*
%TO.P,U4,7,PA1*%
%TO.N,unconnected-(U4-PA1-Pad7)*%
X170412500Y-71562500D03*
%TO.P,U4,8,PA2*%
%TO.N,Net-(D2-A)*%
X169912500Y-71562500D03*
D33*
%TO.P,U4,9,PA3*%
%TO.N,Net-(D1-A)*%
X169225000Y-72250000D03*
%TO.P,U4,10,PA4*%
%TO.N,unconnected-(U4-PA4-Pad10)*%
X169225000Y-72750000D03*
%TO.P,U4,11,PA5*%
%TO.N,unconnected-(U4-PA5-Pad11)*%
X169225000Y-73250000D03*
%TO.P,U4,12,PA6*%
%TO.N,unconnected-(U4-PA6-Pad12)*%
X169225000Y-73750000D03*
%TO.P,U4,13,PA7*%
%TO.N,unconnected-(U4-PA7-Pad13)*%
X169225000Y-74250000D03*
%TO.P,U4,14,PB0*%
%TO.N,unconnected-(U4-PB0-Pad14)*%
X169225000Y-74750000D03*
%TO.P,U4,15,PB1*%
%TO.N,unconnected-(U4-PB1-Pad15)*%
X169225000Y-75250000D03*
%TO.P,U4,16,VSS*%
%TO.N,GND*%
X169225000Y-75750000D03*
D32*
%TO.P,U4,17,VDD*%
%TO.N,+3.3V*%
X169912500Y-76437500D03*
%TO.P,U4,18,PA8*%
%TO.N,unconnected-(U4-PA8-Pad18)*%
X170412500Y-76437500D03*
%TO.P,U4,19,PA9*%
%TO.N,unconnected-(U4-PA9-Pad19)*%
X170912500Y-76437500D03*
%TO.P,U4,20,PA10*%
%TO.N,unconnected-(U4-PA10-Pad20)*%
X171412500Y-76437500D03*
%TO.P,U4,21,PA11*%
%TO.N,USB_D-*%
X171912500Y-76437500D03*
%TO.P,U4,22,PA12*%
%TO.N,USB_D+*%
X172412500Y-76437500D03*
%TO.P,U4,23,PA13*%
%TO.N,SWD_DIO*%
X172912500Y-76437500D03*
%TO.P,U4,24,PA14*%
%TO.N,SWD_CLK*%
X173412500Y-76437500D03*
D33*
%TO.P,U4,25,PA15*%
%TO.N,NRF_IRQ*%
X174100000Y-75750000D03*
%TO.P,U4,26,PB3*%
%TO.N,SPI3_SCK*%
X174100000Y-75250000D03*
%TO.P,U4,27,PB4*%
%TO.N,SPI3_MISO*%
X174100000Y-74750000D03*
%TO.P,U4,28,PB5*%
%TO.N,SPI3_MOSI*%
X174100000Y-74250000D03*
%TO.P,U4,29,PB6*%
%TO.N,SPI3_!CS*%
X174100000Y-73750000D03*
%TO.P,U4,30,PB7*%
%TO.N,NRF_CE*%
X174100000Y-73250000D03*
%TO.P,U4,31,PH3*%
%TO.N,Net-(U4-PH3)*%
X174100000Y-72750000D03*
%TO.P,U4,32,VSS*%
%TO.N,GND*%
X174100000Y-72250000D03*
D34*
%TO.P,U4,33,VSS*%
X171662500Y-74000000D03*
%TD*%
D35*
%TO.P,R3,1*%
%TO.N,Net-(D2-K)*%
X171475000Y-67700000D03*
%TO.P,R3,2*%
%TO.N,GND*%
X173125000Y-67700000D03*
%TD*%
D36*
%TO.P,C6,1*%
%TO.N,+3.3V*%
X169880000Y-77700000D03*
%TO.P,C6,2*%
%TO.N,GND*%
X168920000Y-77700000D03*
%TD*%
D37*
%TO.P,R5,1*%
%TO.N,NRF_XC1*%
X181160000Y-77250000D03*
%TO.P,R5,2*%
%TO.N,NRF_XC2*%
X180140000Y-77250000D03*
%TD*%
D12*
%TO.P,C16,1*%
%TO.N,/NRF_ANT*%
X187750000Y-73730000D03*
%TO.P,C16,2*%
%TO.N,GND*%
X187750000Y-72770000D03*
%TD*%
D38*
%TO.P,Y1,1,1*%
%TO.N,NRF_XC1*%
X180600000Y-78800000D03*
%TO.P,Y1,2,2*%
%TO.N,GND*%
X178400000Y-78800000D03*
%TO.P,Y1,3,3*%
%TO.N,NRF_XC2*%
X178400000Y-80500000D03*
%TO.P,Y1,4,4*%
%TO.N,GND*%
X180600000Y-80500000D03*
%TD*%
D39*
%TO.P,C8,1*%
%TO.N,+3.3V*%
X178250000Y-68520000D03*
%TO.P,C8,2*%
%TO.N,GND*%
X179800000Y-68520000D03*
%TD*%
D27*
%TO.P,C15,1*%
%TO.N,Net-(C15-Pad1)*%
X185770000Y-73750000D03*
%TO.P,C15,2*%
%TO.N,/NRF_ANT*%
X186730000Y-73750000D03*
%TD*%
D12*
%TO.P,C13,1*%
%TO.N,GND*%
X182275000Y-79880000D03*
%TO.P,C13,2*%
%TO.N,NRF_XC1*%
X182275000Y-78920000D03*
%TD*%
D40*
%TO.P,U1,1,GND*%
%TO.N,GND*%
X162800000Y-72025000D03*
%TO.P,U1,2,VO*%
%TO.N,+3.3V*%
X164700000Y-72025000D03*
%TO.P,U1,3,VI*%
%TO.N,Net-(U1-VI)*%
X163750000Y-69750000D03*
%TD*%
D36*
%TO.P,C12,1*%
%TO.N,Net-(U2-DVDD)*%
X177925000Y-70520000D03*
%TO.P,C12,2*%
%TO.N,GND*%
X176965000Y-70520000D03*
%TD*%
D41*
%TO.P,C1,1*%
%TO.N,Net-(U1-VI)*%
X161250000Y-70125000D03*
%TO.P,C1,2*%
%TO.N,GND*%
X161250000Y-71675000D03*
%TD*%
D16*
%TO.P,C18,1*%
%TO.N,NRF_VDD_PA*%
X186000000Y-75790000D03*
%TO.P,C18,2*%
%TO.N,GND*%
X186000000Y-76750000D03*
%TD*%
D42*
%TO.P,R2,1*%
%TO.N,Net-(D1-K)*%
X166525000Y-67700000D03*
%TO.P,R2,2*%
%TO.N,GND*%
X164875000Y-67700000D03*
%TD*%
D43*
%TO.P,J3,1,In*%
%TO.N,/NRF_ANT*%
X191062500Y-74000000D03*
D44*
%TO.P,J3,2,Ext*%
%TO.N,GND*%
X190862500Y-76825000D03*
X190862500Y-71175000D03*
%TD*%
D45*
%TO.P,F1,1*%
%TO.N,+5V*%
X156600000Y-68000000D03*
%TO.P,F1,2*%
%TO.N,Net-(F1-Pad2)*%
X159400000Y-68000000D03*
%TD*%
D18*
%TO.P,L2,1,1*%
%TO.N,NRF_ANT1*%
X182750000Y-74735000D03*
%TO.P,L2,2,2*%
%TO.N,NRF_ANT2*%
X182750000Y-73765000D03*
%TD*%
D46*
%TO.N,GND*%
X189300000Y-69900000D03*
D47*
X188900000Y-67300000D03*
X188900000Y-80710000D03*
D46*
X169000000Y-76700000D03*
D47*
X186300000Y-80710000D03*
D46*
X161700000Y-72700000D03*
X179800000Y-67500000D03*
X175200000Y-71500000D03*
X159700000Y-75300000D03*
D47*
X183800000Y-67400000D03*
D46*
X182300000Y-68700000D03*
D47*
X186300000Y-67300000D03*
X183700000Y-78510000D03*
X191100000Y-67300000D03*
D46*
X166200000Y-69600000D03*
D47*
X183700000Y-69500000D03*
D46*
X172300000Y-69200000D03*
X180300000Y-74400000D03*
X172900000Y-73950000D03*
D47*
X192700000Y-78510000D03*
D46*
X180300000Y-73600000D03*
D47*
X191100000Y-80710000D03*
D46*
X190300000Y-69900000D03*
X164800000Y-68700000D03*
D47*
X183700000Y-71900000D03*
D46*
X177900000Y-72100000D03*
X163600000Y-72000000D03*
D47*
X192700000Y-69500000D03*
D46*
X191300000Y-69900000D03*
X158320000Y-79020000D03*
X170600000Y-72900000D03*
X181100000Y-68700000D03*
X161000000Y-72700000D03*
X190250000Y-78000000D03*
X172850000Y-72850000D03*
X191250000Y-78000000D03*
X178900000Y-74400000D03*
X170600000Y-75200000D03*
X174100000Y-67399997D03*
X170600000Y-74000000D03*
X176750000Y-78500000D03*
X182900000Y-72900000D03*
X177000000Y-69800000D03*
X189250000Y-78000000D03*
X187700000Y-72000000D03*
X162800000Y-70900000D03*
X182275000Y-80650000D03*
X164100000Y-74900000D03*
X172950000Y-75150000D03*
X185000000Y-77500000D03*
D47*
X183800000Y-80610000D03*
D46*
X179100000Y-77350000D03*
X186000000Y-77500000D03*
X178900000Y-73600000D03*
X174100000Y-68100000D03*
%TO.N,+3.3V*%
X178250000Y-67550000D03*
X167200000Y-72399997D03*
X170700000Y-77700000D03*
X167200000Y-73100000D03*
X174250000Y-70950000D03*
X165800000Y-73100000D03*
X166500000Y-73100000D03*
X171287500Y-70693844D03*
X176350000Y-77400000D03*
X182000000Y-71500000D03*
%TO.N,SWD_NRST*%
X172300000Y-70300000D03*
%TO.N,+5V*%
X161608422Y-74900000D03*
X159900000Y-71900000D03*
%TO.N,SPI3_SCK*%
X175300000Y-75700000D03*
X176400000Y-74100000D03*
%TD*%
D48*
%TO.N,GND*%
X181645000Y-79880000D02*
X182275000Y-79880000D01*
X163300000Y-78370000D02*
X163360000Y-78430000D01*
D10*
X182529026Y-72900000D02*
X181929026Y-73500000D01*
D48*
X191250000Y-78000000D02*
X191250000Y-76750000D01*
D49*
X163600000Y-72000000D02*
X162825000Y-72000000D01*
D50*
X179100000Y-77350000D02*
X179100000Y-77000000D01*
D49*
X179925000Y-70520000D02*
X179925000Y-69675000D01*
X178130000Y-78530000D02*
X178400000Y-78800000D01*
D48*
X190250000Y-78000000D02*
X190250000Y-76862500D01*
D49*
X176750000Y-78500000D02*
X176750000Y-79145000D01*
D48*
X189300000Y-69900000D02*
X189300000Y-71100000D01*
D10*
X181929026Y-73500000D02*
X181500000Y-73500000D01*
D49*
X179050000Y-77400000D02*
X179100000Y-77350000D01*
X178130000Y-77400000D02*
X179050000Y-77400000D01*
X176750000Y-79145000D02*
X176725000Y-79170000D01*
D48*
X185000000Y-77500000D02*
X185000000Y-76780000D01*
D50*
X180062500Y-71400000D02*
X180062500Y-71887500D01*
D48*
X182300000Y-69540000D02*
X182300000Y-68700000D01*
X186000000Y-77500000D02*
X186000000Y-76750000D01*
D49*
X180090000Y-69510000D02*
X181100000Y-69510000D01*
D48*
X177000000Y-69800000D02*
X176965000Y-69835000D01*
X174100000Y-67399997D02*
X174100000Y-67800000D01*
D49*
X164800000Y-67775000D02*
X164875000Y-67700000D01*
D50*
X179562500Y-76537500D02*
X179562500Y-75937500D01*
D49*
X164800000Y-68700000D02*
X164800000Y-67775000D01*
X180062500Y-70657500D02*
X180062500Y-71400000D01*
D50*
X158500000Y-75300000D02*
X159700000Y-75300000D01*
D48*
X187700000Y-72720000D02*
X187750000Y-72770000D01*
D50*
X179100000Y-77000000D02*
X179562500Y-76537500D01*
D48*
X171300000Y-69020000D02*
X172080000Y-69020000D01*
D49*
X161000000Y-72700000D02*
X161000000Y-71925000D01*
D48*
X181100000Y-69510000D02*
X181100000Y-68700000D01*
D49*
X179925000Y-69675000D02*
X180090000Y-69510000D01*
D48*
X176965000Y-69835000D02*
X176965000Y-70520000D01*
D49*
X179925000Y-70520000D02*
X180062500Y-70657500D01*
D48*
X172300000Y-69200000D02*
X173230000Y-69200000D01*
D49*
X175270000Y-69220000D02*
X175300000Y-69190000D01*
D48*
X174100000Y-67800000D02*
X174100000Y-68100000D01*
D49*
X179100000Y-77280366D02*
X179100000Y-77350000D01*
X178030000Y-79170000D02*
X178400000Y-78800000D01*
D48*
X182275000Y-80650000D02*
X182275000Y-79880000D01*
D10*
X169000000Y-77620000D02*
X168920000Y-77700000D01*
D48*
X172080000Y-69020000D02*
X172280000Y-69220000D01*
D49*
X166200000Y-70650000D02*
X166250000Y-70700000D01*
X173230000Y-69200000D02*
X173250000Y-69220000D01*
D48*
X173250000Y-69220000D02*
X174250000Y-69220000D01*
D50*
X174100000Y-72250000D02*
X174850000Y-71500000D01*
D10*
X182900000Y-72900000D02*
X182529026Y-72900000D01*
D48*
X173125000Y-67700000D02*
X174000000Y-67700000D01*
D10*
X169225000Y-76475000D02*
X169000000Y-76700000D01*
D49*
X162800000Y-70900000D02*
X162800000Y-72025000D01*
X161000000Y-71925000D02*
X161250000Y-71675000D01*
X162825000Y-72000000D02*
X162800000Y-72025000D01*
X178130000Y-77400000D02*
X178130000Y-78530000D01*
D50*
X174850000Y-71500000D02*
X175200000Y-71500000D01*
D48*
X191300000Y-69900000D02*
X191300000Y-71100000D01*
X181025000Y-80500000D02*
X181645000Y-79880000D01*
D49*
X158320000Y-79020000D02*
X159100000Y-79020000D01*
D10*
X169225000Y-75750000D02*
X169225000Y-76475000D01*
X178562500Y-72062500D02*
X177990533Y-72062500D01*
D49*
X164100000Y-74900000D02*
X165137500Y-74900000D01*
X172280000Y-69220000D02*
X172300000Y-69200000D01*
D48*
X174000000Y-67700000D02*
X174100000Y-67800000D01*
D49*
X166200000Y-69600000D02*
X166200000Y-70650000D01*
D48*
X190300000Y-69900000D02*
X190300000Y-71137500D01*
D49*
X176725000Y-79170000D02*
X178030000Y-79170000D01*
D48*
X173250000Y-69220000D02*
X173250000Y-67825000D01*
D10*
X169000000Y-76700000D02*
X169000000Y-77620000D01*
D48*
X187700000Y-72000000D02*
X187700000Y-72720000D01*
D49*
X161000000Y-72700000D02*
X161700000Y-72700000D01*
D48*
X189250000Y-78000000D02*
X189250000Y-76750000D01*
X180600000Y-80500000D02*
X181025000Y-80500000D01*
X174250000Y-69220000D02*
X175270000Y-69220000D01*
X179800000Y-68520000D02*
X179800000Y-67500000D01*
X173250000Y-67825000D02*
X173125000Y-67700000D01*
D10*
X177990533Y-72062500D02*
G75*
G03*
X177899990Y-72099990I-33J-128000D01*
G01*
D48*
%TO.N,Net-(U1-VI)*%
X163162500Y-68162500D02*
X163750000Y-68750000D01*
X163375000Y-70125000D02*
X161250000Y-70125000D01*
X163750000Y-68750000D02*
X163750000Y-69750000D01*
X163750000Y-69750000D02*
X163375000Y-70125000D01*
X163162500Y-67750000D02*
X163162500Y-68162500D01*
%TO.N,+3.3V*%
X178250000Y-67550000D02*
X178250000Y-68520000D01*
X178250000Y-68520000D02*
X178250000Y-68850000D01*
D49*
X179562500Y-71356104D02*
X178965000Y-70758604D01*
D50*
X181500000Y-72000000D02*
X182000000Y-71500000D01*
D48*
X164925000Y-72250000D02*
X164700000Y-72025000D01*
D49*
X176350000Y-77400000D02*
X177170000Y-77400000D01*
D48*
X173250000Y-70180000D02*
X174250000Y-70180000D01*
X166250000Y-72250000D02*
X164925000Y-72250000D01*
D50*
X181500000Y-73000000D02*
X181500000Y-72000000D01*
X173250000Y-70550000D02*
X173250000Y-70180000D01*
D48*
X169880000Y-77700000D02*
X170700000Y-77700000D01*
D10*
X178676886Y-76750000D02*
X177400000Y-76750000D01*
X177170000Y-76980000D02*
X177170000Y-77400000D01*
D48*
X178965000Y-69565000D02*
X178965000Y-70520000D01*
D49*
X179562500Y-71500000D02*
X179562500Y-71356104D01*
X169900000Y-77050000D02*
X169900000Y-77680000D01*
D50*
X182300000Y-71200000D02*
X182300000Y-70500000D01*
X179562500Y-72062500D02*
X179562500Y-71500000D01*
D10*
X177400000Y-76750000D02*
X177170000Y-76980000D01*
D50*
X171300000Y-70681344D02*
X171300000Y-70180000D01*
D10*
X179062500Y-75937500D02*
X179062500Y-76364386D01*
D48*
X178250000Y-68850000D02*
X178965000Y-69565000D01*
D10*
X169912500Y-77037500D02*
X169912500Y-76437500D01*
D50*
X171287500Y-70693844D02*
X171300000Y-70681344D01*
X182000000Y-71500000D02*
X182300000Y-71200000D01*
X171293844Y-70693844D02*
X171412500Y-70812500D01*
X171412500Y-70812500D02*
X171412500Y-71562500D01*
X171287500Y-70693844D02*
X171293844Y-70693844D01*
D49*
X178965000Y-70758604D02*
X178965000Y-70520000D01*
D10*
X169900000Y-77050000D02*
X169912500Y-77037500D01*
D50*
X173412500Y-70712500D02*
X173250000Y-70550000D01*
X173412500Y-71562500D02*
X173412500Y-70712500D01*
D49*
X169900000Y-77680000D02*
X169880000Y-77700000D01*
D48*
X174250000Y-70950000D02*
X174250000Y-70180000D01*
D10*
X179062500Y-76364386D02*
X178676886Y-76750000D01*
D49*
%TO.N,SWD_NRST*%
X159230000Y-79850000D02*
X160670000Y-79850000D01*
X159100000Y-79980000D02*
X159230000Y-79850000D01*
D50*
X171912500Y-70687500D02*
X172300000Y-70300000D01*
D49*
X160670000Y-79850000D02*
X160820000Y-79700000D01*
D50*
X171912500Y-71562500D02*
X171912500Y-70687500D01*
D10*
%TO.N,Net-(U2-DVDD)*%
X178700000Y-71130000D02*
X179062500Y-71492500D01*
X177925000Y-70725000D02*
X178330000Y-71130000D01*
X179062500Y-71492500D02*
X179062500Y-72062500D01*
X177925000Y-70520000D02*
X177925000Y-70725000D01*
X178330000Y-71130000D02*
X178700000Y-71130000D01*
%TO.N,NRF_XC1*%
X180562500Y-76462500D02*
X181110000Y-77010000D01*
X180562500Y-75937500D02*
X180562500Y-76462500D01*
X181110000Y-77010000D02*
X181110000Y-78450000D01*
D51*
X182275000Y-78920000D02*
X180720000Y-78920000D01*
D10*
%TO.N,NRF_XC2*%
X180062500Y-76550000D02*
X180062500Y-75937500D01*
D51*
X180062500Y-77327500D02*
X179500000Y-77890000D01*
X179475000Y-78040000D02*
X179475000Y-79850000D01*
X179475000Y-79850000D02*
X178825000Y-80500000D01*
X180062500Y-76550000D02*
X180062500Y-77327500D01*
X178825000Y-80500000D02*
X178400000Y-80500000D01*
X178400000Y-80500000D02*
X177625000Y-80500000D01*
X177255000Y-80130000D02*
X176725000Y-80130000D01*
X177625000Y-80500000D02*
X177255000Y-80130000D01*
%TO.N,Net-(C15-Pad1)*%
X184735000Y-73750000D02*
X185770000Y-73750000D01*
%TO.N,/NRF_ANT*%
X187930000Y-73730000D02*
X188200000Y-74000000D01*
X188200000Y-74000000D02*
X191062500Y-74000000D01*
X186730000Y-73750000D02*
X187730000Y-73750000D01*
%TO.N,NRF_VDD_PA*%
X181500000Y-75050000D02*
X181500000Y-75450000D01*
X183750000Y-75720000D02*
X186150000Y-75720000D01*
X181500000Y-75450000D02*
X181770000Y-75720000D01*
X181770000Y-75720000D02*
X183750000Y-75720000D01*
D48*
%TO.N,Net-(D1-K)*%
X166525000Y-67700000D02*
X167575000Y-67700000D01*
X167575000Y-67700000D02*
X168200000Y-68325000D01*
D50*
%TO.N,Net-(D1-A)*%
X169225000Y-70925000D02*
X168200000Y-69900000D01*
X169225000Y-72250000D02*
X169225000Y-70925000D01*
%TO.N,Net-(D2-A)*%
X169912500Y-71562500D02*
X169912500Y-69912500D01*
X169912500Y-69912500D02*
X169900000Y-69900000D01*
D48*
%TO.N,Net-(D2-K)*%
X170500000Y-67700000D02*
X171475000Y-67700000D01*
X169900000Y-68325000D02*
X169900000Y-68300000D01*
X169900000Y-68300000D02*
X170500000Y-67700000D01*
%TO.N,+5V*%
X161608422Y-74900000D02*
X162862500Y-74900000D01*
X156600000Y-68000000D02*
X158100000Y-69500000D01*
X159900000Y-72300000D02*
X159500000Y-72700000D01*
X158100000Y-69500000D02*
X159300000Y-69500000D01*
X159900000Y-70100000D02*
X159900000Y-71900000D01*
D49*
X159500000Y-72700000D02*
X158500000Y-72700000D01*
D48*
X159300000Y-69500000D02*
X159900000Y-70100000D01*
X159900000Y-71900000D02*
X159900000Y-72300000D01*
D52*
%TO.N,Net-(F1-Pad2)*%
X161037500Y-67750000D02*
X159650000Y-67750000D01*
D48*
X159650000Y-67750000D02*
X159400000Y-68000000D01*
D10*
%TO.N,USB_CONN_D-*%
X161200000Y-74300000D02*
X160250000Y-73350000D01*
X162500000Y-73950000D02*
X162150000Y-74300000D01*
X162862500Y-73950000D02*
X162500000Y-73950000D01*
X162150000Y-74300000D02*
X161200000Y-74300000D01*
X160250000Y-73350000D02*
X158500000Y-73350000D01*
%TO.N,USB_CONN_D+*%
X159859893Y-74000000D02*
X158500000Y-74000000D01*
X161359893Y-75500000D02*
X159859893Y-74000000D01*
X162150000Y-75500000D02*
X161359893Y-75500000D01*
X162500000Y-75850000D02*
X162150000Y-75500000D01*
X162862500Y-75850000D02*
X162500000Y-75850000D01*
D50*
%TO.N,SWD_DIO*%
X171600000Y-80300000D02*
X172912500Y-78987500D01*
X165900000Y-79700000D02*
X166500000Y-80300000D01*
X172912500Y-78987500D02*
X172912500Y-76437500D01*
X166500000Y-80300000D02*
X171600000Y-80300000D01*
D51*
%TO.N,NRF_ANT2*%
X182750000Y-73765000D02*
X183750000Y-73765000D01*
X181500000Y-74000000D02*
X182515000Y-74000000D01*
X182515000Y-74000000D02*
X182750000Y-73765000D01*
X183750000Y-73765000D02*
X183765000Y-73750000D01*
%TO.N,NRF_ANT1*%
X182515000Y-74500000D02*
X182750000Y-74735000D01*
X182750000Y-74735000D02*
X183735000Y-74735000D01*
X181500000Y-74500000D02*
X182515000Y-74500000D01*
X183735000Y-74735000D02*
X183750000Y-74750000D01*
D50*
%TO.N,Net-(U4-PH3)*%
X175825000Y-72175000D02*
X175250000Y-72750000D01*
X175250000Y-72750000D02*
X174100000Y-72750000D01*
X175825000Y-70735000D02*
X175825000Y-72175000D01*
X175300000Y-70210000D02*
X175825000Y-70735000D01*
%TO.N,Net-(U2-IREF)*%
X181100000Y-71000000D02*
X181100000Y-70530000D01*
X180562500Y-72062500D02*
X180562500Y-71537500D01*
X180562500Y-71537500D02*
X181100000Y-71000000D01*
%TO.N,SPI3_MISO*%
X175150000Y-74750000D02*
X175575000Y-75175000D01*
X175575000Y-75175000D02*
X177450000Y-75175000D01*
X177450000Y-75175000D02*
X177625000Y-75000000D01*
X174100000Y-74750000D02*
X175150000Y-74750000D01*
%TO.N,NRF_CE*%
X174100000Y-73250000D02*
X175450000Y-73250000D01*
X175700000Y-73000000D02*
X177625000Y-73000000D01*
X175450000Y-73250000D02*
X175700000Y-73000000D01*
%TO.N,SPI3_SCK*%
X174850000Y-75250000D02*
X174100000Y-75250000D01*
X176500000Y-74000000D02*
X177625000Y-74000000D01*
X175300000Y-75700000D02*
X174850000Y-75250000D01*
X176400000Y-74100000D02*
X176500000Y-74000000D01*
%TO.N,NRF_IRQ*%
X174100000Y-75750000D02*
X174100000Y-75800000D01*
X177198959Y-76350000D02*
X177611459Y-75937500D01*
X174100000Y-75800000D02*
X174650000Y-76350000D01*
X174650000Y-76350000D02*
X177198959Y-76350000D01*
X177611459Y-75937500D02*
X178562500Y-75937500D01*
%TO.N,SPI3_MOSI*%
X175925000Y-74725000D02*
X176937760Y-74725000D01*
X177162760Y-74500000D02*
X177625000Y-74500000D01*
X175450000Y-74250000D02*
X175925000Y-74725000D01*
X174100000Y-74250000D02*
X175450000Y-74250000D01*
X176937760Y-74725000D02*
X177162760Y-74500000D01*
%TO.N,SPI3_!CS*%
X174100000Y-73750000D02*
X175586396Y-73750000D01*
X177625000Y-73500000D02*
X177600000Y-73475000D01*
X177600000Y-73475000D02*
X175861396Y-73475000D01*
X175586396Y-73750000D02*
X175861396Y-73475000D01*
D10*
%TO.N,USB_D-*%
X171912500Y-77093751D02*
X171937500Y-77118751D01*
X171937500Y-77118751D02*
X171937500Y-77444300D01*
X170606800Y-78775000D02*
X168493200Y-78775000D01*
X171912500Y-76437500D02*
X171912500Y-77093751D01*
X167925000Y-75806800D02*
X166793200Y-74675000D01*
X171937500Y-77444300D02*
X170606800Y-78775000D01*
X168493200Y-78775000D02*
X167925000Y-78206800D01*
X166793200Y-74675000D02*
X166225000Y-74675000D01*
X166225000Y-74675000D02*
X165500000Y-73950000D01*
X165500000Y-73950000D02*
X165137500Y-73950000D01*
X167925000Y-78206800D02*
X167925000Y-75806800D01*
%TO.N,USB_D+*%
X170793200Y-79225000D02*
X168306800Y-79225000D01*
X165500000Y-75850000D02*
X165137500Y-75850000D01*
X166606800Y-75125000D02*
X166225000Y-75125000D01*
X172387500Y-77630700D02*
X170793200Y-79225000D01*
X167475000Y-75993200D02*
X166606800Y-75125000D01*
X167475000Y-78393200D02*
X167475000Y-75993200D01*
X166225000Y-75125000D02*
X165500000Y-75850000D01*
X168306800Y-79225000D02*
X167475000Y-78393200D01*
X172412500Y-77093751D02*
X172387500Y-77118751D01*
X172387500Y-77118751D02*
X172387500Y-77630700D01*
X172412500Y-76437500D02*
X172412500Y-77093751D01*
D50*
%TO.N,SWD_CLK*%
X165000000Y-80800000D02*
X164630000Y-80430000D01*
X164630000Y-80430000D02*
X164630000Y-79700000D01*
X173412500Y-79187500D02*
X171800000Y-80800000D01*
X173412500Y-76437500D02*
X173412500Y-79187500D01*
X171800000Y-80800000D02*
X165000000Y-80800000D01*
%TD*%
M02*
