%TF.GenerationSoftware,KiCad,Pcbnew,8.0.6*%
%TF.CreationDate,2024-12-29T16:51:47+05:30*%
%TF.ProjectId,STM32_RF,53544d33-325f-4524-962e-6b696361645f,rev?*%
%TF.SameCoordinates,Original*%
%TF.FileFunction,Soldermask,Top*%
%TF.FilePolarity,Negative*%
%FSLAX46Y46*%
G04 Gerber Fmt 4.6, Leading zero omitted, Abs format (unit mm)*
G04 Created by KiCad (PCBNEW 8.0.6) date 2024-12-29 16:51:47*
%MOMM*%
%LPD*%
G01*
G04 APERTURE LIST*
G04 APERTURE END LIST*
G36*
X179126788Y-79835328D02*
G01*
X179149497Y-79850503D01*
X179164672Y-79873212D01*
X179170000Y-79900000D01*
X179170000Y-81100000D01*
X179164672Y-81126788D01*
X179149497Y-81149497D01*
X179126788Y-81164672D01*
X179100000Y-81170000D01*
X177700000Y-81170000D01*
X177673212Y-81164672D01*
X177650503Y-81149497D01*
X177635328Y-81126788D01*
X177630000Y-81100000D01*
X177630000Y-79900000D01*
X177635328Y-79873212D01*
X177650503Y-79850503D01*
X177673212Y-79835328D01*
X177700000Y-79830000D01*
X179100000Y-79830000D01*
X179126788Y-79835328D01*
G37*
G36*
X181326788Y-79835328D02*
G01*
X181349497Y-79850503D01*
X181364672Y-79873212D01*
X181370000Y-79900000D01*
X181370000Y-81100000D01*
X181364672Y-81126788D01*
X181349497Y-81149497D01*
X181326788Y-81164672D01*
X181300000Y-81170000D01*
X179900000Y-81170000D01*
X179873212Y-81164672D01*
X179850503Y-81149497D01*
X179835328Y-81126788D01*
X179830000Y-81100000D01*
X179830000Y-79900000D01*
X179835328Y-79873212D01*
X179850503Y-79850503D01*
X179873212Y-79835328D01*
X179900000Y-79830000D01*
X181300000Y-79830000D01*
X181326788Y-79835328D01*
G37*
G36*
X184030950Y-76415056D02*
G01*
X184051618Y-76420594D01*
X184053362Y-76422338D01*
X184061717Y-76425053D01*
X184076704Y-76445680D01*
X184089405Y-76458382D01*
X184091434Y-76465954D01*
X184099861Y-76477553D01*
X184105000Y-76510000D01*
X184105000Y-76516581D01*
X184105000Y-80275711D01*
X184134289Y-80305000D01*
X191556440Y-80305000D01*
X191556878Y-80304967D01*
X191695853Y-80284177D01*
X191844187Y-80230780D01*
X191979198Y-80149377D01*
X192095655Y-80043124D01*
X192095665Y-80043112D01*
X192189068Y-79916117D01*
X192255804Y-79773286D01*
X192293289Y-79620155D01*
X192300000Y-79464250D01*
X192300000Y-79462082D01*
X192299961Y-79460694D01*
X192298720Y-79438367D01*
X192298720Y-79438365D01*
X192298583Y-79435894D01*
X192299622Y-79433837D01*
X192300000Y-79431944D01*
X192300000Y-78012452D01*
X192300000Y-78010000D01*
X192301921Y-77990491D01*
X192316853Y-77954443D01*
X192344443Y-77926853D01*
X192380491Y-77911921D01*
X192400000Y-77910000D01*
X193000000Y-77910000D01*
X193019509Y-77911921D01*
X193055557Y-77926853D01*
X193083147Y-77954443D01*
X193098079Y-77990491D01*
X193100000Y-78010000D01*
X193100000Y-79510000D01*
X193099339Y-79516704D01*
X193099337Y-79623776D01*
X193066761Y-79850312D01*
X193002278Y-80069907D01*
X192907201Y-80278090D01*
X192783465Y-80470624D01*
X192633589Y-80643589D01*
X192460624Y-80793465D01*
X192268090Y-80917201D01*
X192059907Y-81012278D01*
X191840312Y-81076761D01*
X191734603Y-81091962D01*
X191732051Y-81092474D01*
X191720750Y-81100396D01*
X191690000Y-81105000D01*
X191683634Y-81105000D01*
X191645727Y-81105000D01*
X191642164Y-81105255D01*
X191626502Y-81107507D01*
X191613776Y-81109337D01*
X191499343Y-81109340D01*
X191472548Y-81109341D01*
X191467188Y-81106246D01*
X191461726Y-81105000D01*
X183406582Y-81105000D01*
X183400000Y-81105000D01*
X183369038Y-81094939D01*
X183348382Y-81089405D01*
X183346638Y-81087662D01*
X183338283Y-81084947D01*
X183323296Y-81064320D01*
X183310594Y-81051618D01*
X183308564Y-81044043D01*
X183300139Y-81032447D01*
X183295000Y-81000000D01*
X183295000Y-76510000D01*
X183305056Y-76479048D01*
X183310594Y-76458383D01*
X183312337Y-76456639D01*
X183315053Y-76448283D01*
X183335682Y-76433294D01*
X183348383Y-76420594D01*
X183355955Y-76418564D01*
X183367553Y-76410139D01*
X183400000Y-76405000D01*
X184000000Y-76405000D01*
X184030950Y-76415056D01*
G37*
G36*
X176975364Y-79795985D02*
G01*
X177043492Y-79841508D01*
X177089015Y-79909636D01*
X177105000Y-79990000D01*
X177105000Y-80270000D01*
X177089015Y-80350364D01*
X177043492Y-80418492D01*
X176975364Y-80464015D01*
X176895000Y-80480000D01*
X176555000Y-80480000D01*
X176474636Y-80464015D01*
X176406508Y-80418492D01*
X176360985Y-80350364D01*
X176345000Y-80270000D01*
X176345000Y-79990000D01*
X176360985Y-79909636D01*
X176406508Y-79841508D01*
X176474636Y-79795985D01*
X176555000Y-79780000D01*
X176895000Y-79780000D01*
X176975364Y-79795985D01*
G37*
G36*
X159350364Y-79645985D02*
G01*
X159418492Y-79691508D01*
X159464015Y-79759636D01*
X159480000Y-79840000D01*
X159480000Y-80120000D01*
X159464015Y-80200364D01*
X159418492Y-80268492D01*
X159350364Y-80314015D01*
X159270000Y-80330000D01*
X158930000Y-80330000D01*
X158849636Y-80314015D01*
X158781508Y-80268492D01*
X158735985Y-80200364D01*
X158720000Y-80120000D01*
X158720000Y-79840000D01*
X158735985Y-79759636D01*
X158781508Y-79691508D01*
X158849636Y-79645985D01*
X158930000Y-79630000D01*
X159270000Y-79630000D01*
X159350364Y-79645985D01*
G37*
G36*
X160854333Y-79134520D02*
G01*
X160888662Y-79134520D01*
X160928020Y-79144220D01*
X160967527Y-79149422D01*
X160994570Y-79160624D01*
X161021993Y-79167383D01*
X161063573Y-79189206D01*
X161105000Y-79206366D01*
X161123900Y-79220868D01*
X161143587Y-79231201D01*
X161183832Y-79266856D01*
X161223051Y-79296949D01*
X161234198Y-79311476D01*
X161246377Y-79322266D01*
X161281308Y-79372872D01*
X161313634Y-79415000D01*
X161318505Y-79426760D01*
X161324384Y-79435277D01*
X161349880Y-79502505D01*
X161370578Y-79552473D01*
X161371507Y-79559529D01*
X161373081Y-79563680D01*
X161385277Y-79664126D01*
X161390000Y-79700000D01*
X161385276Y-79735876D01*
X161373081Y-79836319D01*
X161371507Y-79840468D01*
X161370578Y-79847527D01*
X161349876Y-79897505D01*
X161324384Y-79964722D01*
X161318506Y-79973236D01*
X161313634Y-79985000D01*
X161281301Y-80027136D01*
X161246377Y-80077733D01*
X161234200Y-80088520D01*
X161223051Y-80103051D01*
X161183824Y-80133150D01*
X161143587Y-80168798D01*
X161123904Y-80179128D01*
X161105000Y-80193634D01*
X161063564Y-80210797D01*
X161021993Y-80232616D01*
X160994575Y-80239373D01*
X160967527Y-80250578D01*
X160928017Y-80255779D01*
X160888662Y-80265480D01*
X160854333Y-80265480D01*
X160820000Y-80270000D01*
X160785667Y-80265480D01*
X160751338Y-80265480D01*
X160711981Y-80255779D01*
X160672473Y-80250578D01*
X160645425Y-80239374D01*
X160618006Y-80232616D01*
X160576430Y-80210795D01*
X160535000Y-80193634D01*
X160516097Y-80179130D01*
X160496412Y-80168798D01*
X160456168Y-80133144D01*
X160416949Y-80103051D01*
X160405801Y-80088523D01*
X160393622Y-80077733D01*
X160358688Y-80027123D01*
X160326366Y-79985000D01*
X160321494Y-79973240D01*
X160315615Y-79964722D01*
X160290112Y-79897476D01*
X160269422Y-79847527D01*
X160268493Y-79840472D01*
X160266918Y-79836319D01*
X160254710Y-79735779D01*
X160250000Y-79700000D01*
X160254709Y-79664223D01*
X160266918Y-79563680D01*
X160268493Y-79559525D01*
X160269422Y-79552473D01*
X160290107Y-79502534D01*
X160315615Y-79435277D01*
X160321496Y-79426756D01*
X160326366Y-79415000D01*
X160358681Y-79372885D01*
X160393622Y-79322266D01*
X160405803Y-79311473D01*
X160416949Y-79296949D01*
X160456159Y-79266861D01*
X160496412Y-79231201D01*
X160516102Y-79220866D01*
X160535000Y-79206366D01*
X160576421Y-79189208D01*
X160618006Y-79167383D01*
X160645430Y-79160623D01*
X160672473Y-79149422D01*
X160711978Y-79144221D01*
X160751338Y-79134520D01*
X160785667Y-79134520D01*
X160820000Y-79130000D01*
X160854333Y-79134520D01*
G37*
G36*
X162124333Y-79134520D02*
G01*
X162158662Y-79134520D01*
X162198020Y-79144220D01*
X162237527Y-79149422D01*
X162264570Y-79160624D01*
X162291993Y-79167383D01*
X162333573Y-79189206D01*
X162375000Y-79206366D01*
X162393900Y-79220868D01*
X162413587Y-79231201D01*
X162453832Y-79266856D01*
X162493051Y-79296949D01*
X162504198Y-79311476D01*
X162516377Y-79322266D01*
X162551308Y-79372872D01*
X162583634Y-79415000D01*
X162588505Y-79426760D01*
X162594384Y-79435277D01*
X162619880Y-79502505D01*
X162640578Y-79552473D01*
X162641507Y-79559529D01*
X162643081Y-79563680D01*
X162655277Y-79664126D01*
X162660000Y-79700000D01*
X162655276Y-79735876D01*
X162643081Y-79836319D01*
X162641507Y-79840468D01*
X162640578Y-79847527D01*
X162619876Y-79897505D01*
X162594384Y-79964722D01*
X162588506Y-79973236D01*
X162583634Y-79985000D01*
X162551301Y-80027136D01*
X162516377Y-80077733D01*
X162504200Y-80088520D01*
X162493051Y-80103051D01*
X162453824Y-80133150D01*
X162413587Y-80168798D01*
X162393904Y-80179128D01*
X162375000Y-80193634D01*
X162333564Y-80210797D01*
X162291993Y-80232616D01*
X162264575Y-80239373D01*
X162237527Y-80250578D01*
X162198017Y-80255779D01*
X162158662Y-80265480D01*
X162124333Y-80265480D01*
X162090000Y-80270000D01*
X162055667Y-80265480D01*
X162021338Y-80265480D01*
X161981981Y-80255779D01*
X161942473Y-80250578D01*
X161915425Y-80239374D01*
X161888006Y-80232616D01*
X161846430Y-80210795D01*
X161805000Y-80193634D01*
X161786097Y-80179130D01*
X161766412Y-80168798D01*
X161726168Y-80133144D01*
X161686949Y-80103051D01*
X161675801Y-80088523D01*
X161663622Y-80077733D01*
X161628688Y-80027123D01*
X161596366Y-79985000D01*
X161591494Y-79973240D01*
X161585615Y-79964722D01*
X161560112Y-79897476D01*
X161539422Y-79847527D01*
X161538493Y-79840472D01*
X161536918Y-79836319D01*
X161524710Y-79735779D01*
X161520000Y-79700000D01*
X161524709Y-79664223D01*
X161536918Y-79563680D01*
X161538493Y-79559525D01*
X161539422Y-79552473D01*
X161560107Y-79502534D01*
X161585615Y-79435277D01*
X161591496Y-79426756D01*
X161596366Y-79415000D01*
X161628681Y-79372885D01*
X161663622Y-79322266D01*
X161675803Y-79311473D01*
X161686949Y-79296949D01*
X161726159Y-79266861D01*
X161766412Y-79231201D01*
X161786102Y-79220866D01*
X161805000Y-79206366D01*
X161846421Y-79189208D01*
X161888006Y-79167383D01*
X161915430Y-79160623D01*
X161942473Y-79149422D01*
X161981978Y-79144221D01*
X162021338Y-79134520D01*
X162055667Y-79134520D01*
X162090000Y-79130000D01*
X162124333Y-79134520D01*
G37*
G36*
X163394333Y-79134520D02*
G01*
X163428662Y-79134520D01*
X163468020Y-79144220D01*
X163507527Y-79149422D01*
X163534570Y-79160624D01*
X163561993Y-79167383D01*
X163603573Y-79189206D01*
X163645000Y-79206366D01*
X163663900Y-79220868D01*
X163683587Y-79231201D01*
X163723832Y-79266856D01*
X163763051Y-79296949D01*
X163774198Y-79311476D01*
X163786377Y-79322266D01*
X163821308Y-79372872D01*
X163853634Y-79415000D01*
X163858505Y-79426760D01*
X163864384Y-79435277D01*
X163889880Y-79502505D01*
X163910578Y-79552473D01*
X163911507Y-79559529D01*
X163913081Y-79563680D01*
X163925277Y-79664126D01*
X163930000Y-79700000D01*
X163925276Y-79735876D01*
X163913081Y-79836319D01*
X163911507Y-79840468D01*
X163910578Y-79847527D01*
X163889876Y-79897505D01*
X163864384Y-79964722D01*
X163858506Y-79973236D01*
X163853634Y-79985000D01*
X163821301Y-80027136D01*
X163786377Y-80077733D01*
X163774200Y-80088520D01*
X163763051Y-80103051D01*
X163723824Y-80133150D01*
X163683587Y-80168798D01*
X163663904Y-80179128D01*
X163645000Y-80193634D01*
X163603564Y-80210797D01*
X163561993Y-80232616D01*
X163534575Y-80239373D01*
X163507527Y-80250578D01*
X163468017Y-80255779D01*
X163428662Y-80265480D01*
X163394333Y-80265480D01*
X163360000Y-80270000D01*
X163325667Y-80265480D01*
X163291338Y-80265480D01*
X163251981Y-80255779D01*
X163212473Y-80250578D01*
X163185425Y-80239374D01*
X163158006Y-80232616D01*
X163116430Y-80210795D01*
X163075000Y-80193634D01*
X163056097Y-80179130D01*
X163036412Y-80168798D01*
X162996168Y-80133144D01*
X162956949Y-80103051D01*
X162945801Y-80088523D01*
X162933622Y-80077733D01*
X162898688Y-80027123D01*
X162866366Y-79985000D01*
X162861494Y-79973240D01*
X162855615Y-79964722D01*
X162830112Y-79897476D01*
X162809422Y-79847527D01*
X162808493Y-79840472D01*
X162806918Y-79836319D01*
X162794710Y-79735779D01*
X162790000Y-79700000D01*
X162794709Y-79664223D01*
X162806918Y-79563680D01*
X162808493Y-79559525D01*
X162809422Y-79552473D01*
X162830107Y-79502534D01*
X162855615Y-79435277D01*
X162861496Y-79426756D01*
X162866366Y-79415000D01*
X162898681Y-79372885D01*
X162933622Y-79322266D01*
X162945803Y-79311473D01*
X162956949Y-79296949D01*
X162996159Y-79266861D01*
X163036412Y-79231201D01*
X163056102Y-79220866D01*
X163075000Y-79206366D01*
X163116421Y-79189208D01*
X163158006Y-79167383D01*
X163185430Y-79160623D01*
X163212473Y-79149422D01*
X163251978Y-79144221D01*
X163291338Y-79134520D01*
X163325667Y-79134520D01*
X163360000Y-79130000D01*
X163394333Y-79134520D01*
G37*
G36*
X164664333Y-79134520D02*
G01*
X164698662Y-79134520D01*
X164738020Y-79144220D01*
X164777527Y-79149422D01*
X164804570Y-79160624D01*
X164831993Y-79167383D01*
X164873573Y-79189206D01*
X164915000Y-79206366D01*
X164933900Y-79220868D01*
X164953587Y-79231201D01*
X164993832Y-79266856D01*
X165033051Y-79296949D01*
X165044198Y-79311476D01*
X165056377Y-79322266D01*
X165091308Y-79372872D01*
X165123634Y-79415000D01*
X165128505Y-79426760D01*
X165134384Y-79435277D01*
X165159880Y-79502505D01*
X165180578Y-79552473D01*
X165181507Y-79559529D01*
X165183081Y-79563680D01*
X165195277Y-79664126D01*
X165200000Y-79700000D01*
X165195276Y-79735876D01*
X165183081Y-79836319D01*
X165181507Y-79840468D01*
X165180578Y-79847527D01*
X165159876Y-79897505D01*
X165134384Y-79964722D01*
X165128506Y-79973236D01*
X165123634Y-79985000D01*
X165091301Y-80027136D01*
X165056377Y-80077733D01*
X165044200Y-80088520D01*
X165033051Y-80103051D01*
X164993824Y-80133150D01*
X164953587Y-80168798D01*
X164933904Y-80179128D01*
X164915000Y-80193634D01*
X164873564Y-80210797D01*
X164831993Y-80232616D01*
X164804575Y-80239373D01*
X164777527Y-80250578D01*
X164738017Y-80255779D01*
X164698662Y-80265480D01*
X164664333Y-80265480D01*
X164630000Y-80270000D01*
X164595667Y-80265480D01*
X164561338Y-80265480D01*
X164521981Y-80255779D01*
X164482473Y-80250578D01*
X164455425Y-80239374D01*
X164428006Y-80232616D01*
X164386430Y-80210795D01*
X164345000Y-80193634D01*
X164326097Y-80179130D01*
X164306412Y-80168798D01*
X164266168Y-80133144D01*
X164226949Y-80103051D01*
X164215801Y-80088523D01*
X164203622Y-80077733D01*
X164168688Y-80027123D01*
X164136366Y-79985000D01*
X164131494Y-79973240D01*
X164125615Y-79964722D01*
X164100112Y-79897476D01*
X164079422Y-79847527D01*
X164078493Y-79840472D01*
X164076918Y-79836319D01*
X164064710Y-79735779D01*
X164060000Y-79700000D01*
X164064709Y-79664223D01*
X164076918Y-79563680D01*
X164078493Y-79559525D01*
X164079422Y-79552473D01*
X164100107Y-79502534D01*
X164125615Y-79435277D01*
X164131496Y-79426756D01*
X164136366Y-79415000D01*
X164168681Y-79372885D01*
X164203622Y-79322266D01*
X164215803Y-79311473D01*
X164226949Y-79296949D01*
X164266159Y-79266861D01*
X164306412Y-79231201D01*
X164326102Y-79220866D01*
X164345000Y-79206366D01*
X164386421Y-79189208D01*
X164428006Y-79167383D01*
X164455430Y-79160623D01*
X164482473Y-79149422D01*
X164521978Y-79144221D01*
X164561338Y-79134520D01*
X164595667Y-79134520D01*
X164630000Y-79130000D01*
X164664333Y-79134520D01*
G37*
G36*
X165934333Y-79134520D02*
G01*
X165968662Y-79134520D01*
X166008020Y-79144220D01*
X166047527Y-79149422D01*
X166074570Y-79160624D01*
X166101993Y-79167383D01*
X166143573Y-79189206D01*
X166185000Y-79206366D01*
X166203900Y-79220868D01*
X166223587Y-79231201D01*
X166263832Y-79266856D01*
X166303051Y-79296949D01*
X166314198Y-79311476D01*
X166326377Y-79322266D01*
X166361308Y-79372872D01*
X166393634Y-79415000D01*
X166398505Y-79426760D01*
X166404384Y-79435277D01*
X166429880Y-79502505D01*
X166450578Y-79552473D01*
X166451507Y-79559529D01*
X166453081Y-79563680D01*
X166465277Y-79664126D01*
X166470000Y-79700000D01*
X166465276Y-79735876D01*
X166453081Y-79836319D01*
X166451507Y-79840468D01*
X166450578Y-79847527D01*
X166429876Y-79897505D01*
X166404384Y-79964722D01*
X166398506Y-79973236D01*
X166393634Y-79985000D01*
X166361301Y-80027136D01*
X166326377Y-80077733D01*
X166314200Y-80088520D01*
X166303051Y-80103051D01*
X166263824Y-80133150D01*
X166223587Y-80168798D01*
X166203904Y-80179128D01*
X166185000Y-80193634D01*
X166143564Y-80210797D01*
X166101993Y-80232616D01*
X166074575Y-80239373D01*
X166047527Y-80250578D01*
X166008017Y-80255779D01*
X165968662Y-80265480D01*
X165934333Y-80265480D01*
X165900000Y-80270000D01*
X165865667Y-80265480D01*
X165831338Y-80265480D01*
X165791981Y-80255779D01*
X165752473Y-80250578D01*
X165725425Y-80239374D01*
X165698006Y-80232616D01*
X165656430Y-80210795D01*
X165615000Y-80193634D01*
X165596097Y-80179130D01*
X165576412Y-80168798D01*
X165536168Y-80133144D01*
X165496949Y-80103051D01*
X165485801Y-80088523D01*
X165473622Y-80077733D01*
X165438688Y-80027123D01*
X165406366Y-79985000D01*
X165401494Y-79973240D01*
X165395615Y-79964722D01*
X165370112Y-79897476D01*
X165349422Y-79847527D01*
X165348493Y-79840472D01*
X165346918Y-79836319D01*
X165334710Y-79735779D01*
X165330000Y-79700000D01*
X165334709Y-79664223D01*
X165346918Y-79563680D01*
X165348493Y-79559525D01*
X165349422Y-79552473D01*
X165370107Y-79502534D01*
X165395615Y-79435277D01*
X165401496Y-79426756D01*
X165406366Y-79415000D01*
X165438681Y-79372885D01*
X165473622Y-79322266D01*
X165485803Y-79311473D01*
X165496949Y-79296949D01*
X165536159Y-79266861D01*
X165576412Y-79231201D01*
X165596102Y-79220866D01*
X165615000Y-79206366D01*
X165656421Y-79189208D01*
X165698006Y-79167383D01*
X165725430Y-79160623D01*
X165752473Y-79149422D01*
X165791978Y-79144221D01*
X165831338Y-79134520D01*
X165865667Y-79134520D01*
X165900000Y-79130000D01*
X165934333Y-79134520D01*
G37*
G36*
X182525364Y-79545985D02*
G01*
X182593492Y-79591508D01*
X182639015Y-79659636D01*
X182655000Y-79740000D01*
X182655000Y-80020000D01*
X182639015Y-80100364D01*
X182593492Y-80168492D01*
X182525364Y-80214015D01*
X182445000Y-80230000D01*
X182105000Y-80230000D01*
X182024636Y-80214015D01*
X181956508Y-80168492D01*
X181910985Y-80100364D01*
X181895000Y-80020000D01*
X181895000Y-79740000D01*
X181910985Y-79659636D01*
X181956508Y-79591508D01*
X182024636Y-79545985D01*
X182105000Y-79530000D01*
X182445000Y-79530000D01*
X182525364Y-79545985D01*
G37*
G36*
X176975364Y-78835985D02*
G01*
X177043492Y-78881508D01*
X177089015Y-78949636D01*
X177105000Y-79030000D01*
X177105000Y-79310000D01*
X177089015Y-79390364D01*
X177043492Y-79458492D01*
X176975364Y-79504015D01*
X176895000Y-79520000D01*
X176555000Y-79520000D01*
X176474636Y-79504015D01*
X176406508Y-79458492D01*
X176360985Y-79390364D01*
X176345000Y-79310000D01*
X176345000Y-79030000D01*
X176360985Y-78949636D01*
X176406508Y-78881508D01*
X176474636Y-78835985D01*
X176555000Y-78820000D01*
X176895000Y-78820000D01*
X176975364Y-78835985D01*
G37*
G36*
X179126788Y-78135328D02*
G01*
X179149497Y-78150503D01*
X179164672Y-78173212D01*
X179170000Y-78200000D01*
X179170000Y-79400000D01*
X179164672Y-79426788D01*
X179149497Y-79449497D01*
X179126788Y-79464672D01*
X179100000Y-79470000D01*
X177700000Y-79470000D01*
X177673212Y-79464672D01*
X177650503Y-79449497D01*
X177635328Y-79426788D01*
X177630000Y-79400000D01*
X177630000Y-78200000D01*
X177635328Y-78173212D01*
X177650503Y-78150503D01*
X177673212Y-78135328D01*
X177700000Y-78130000D01*
X179100000Y-78130000D01*
X179126788Y-78135328D01*
G37*
G36*
X181326788Y-78135328D02*
G01*
X181349497Y-78150503D01*
X181364672Y-78173212D01*
X181370000Y-78200000D01*
X181370000Y-79400000D01*
X181364672Y-79426788D01*
X181349497Y-79449497D01*
X181326788Y-79464672D01*
X181300000Y-79470000D01*
X179900000Y-79470000D01*
X179873212Y-79464672D01*
X179850503Y-79449497D01*
X179835328Y-79426788D01*
X179830000Y-79400000D01*
X179830000Y-78200000D01*
X179835328Y-78173212D01*
X179850503Y-78150503D01*
X179873212Y-78135328D01*
X179900000Y-78130000D01*
X181300000Y-78130000D01*
X181326788Y-78135328D01*
G37*
G36*
X159350364Y-78685985D02*
G01*
X159418492Y-78731508D01*
X159464015Y-78799636D01*
X159480000Y-78880000D01*
X159480000Y-79160000D01*
X159464015Y-79240364D01*
X159418492Y-79308492D01*
X159350364Y-79354015D01*
X159270000Y-79370000D01*
X158930000Y-79370000D01*
X158849636Y-79354015D01*
X158781508Y-79308492D01*
X158735985Y-79240364D01*
X158720000Y-79160000D01*
X158720000Y-78880000D01*
X158735985Y-78799636D01*
X158781508Y-78731508D01*
X158849636Y-78685985D01*
X158930000Y-78670000D01*
X159270000Y-78670000D01*
X159350364Y-78685985D01*
G37*
G36*
X182525364Y-78585985D02*
G01*
X182593492Y-78631508D01*
X182639015Y-78699636D01*
X182655000Y-78780000D01*
X182655000Y-79060000D01*
X182639015Y-79140364D01*
X182593492Y-79208492D01*
X182525364Y-79254015D01*
X182445000Y-79270000D01*
X182105000Y-79270000D01*
X182024636Y-79254015D01*
X181956508Y-79208492D01*
X181910985Y-79140364D01*
X181895000Y-79060000D01*
X181895000Y-78780000D01*
X181910985Y-78699636D01*
X181956508Y-78631508D01*
X182024636Y-78585985D01*
X182105000Y-78570000D01*
X182445000Y-78570000D01*
X182525364Y-78585985D01*
G37*
G36*
X160854333Y-77864520D02*
G01*
X160888662Y-77864520D01*
X160928020Y-77874220D01*
X160967527Y-77879422D01*
X160994570Y-77890624D01*
X161021993Y-77897383D01*
X161063573Y-77919206D01*
X161105000Y-77936366D01*
X161123900Y-77950868D01*
X161143587Y-77961201D01*
X161183832Y-77996856D01*
X161223051Y-78026949D01*
X161234198Y-78041476D01*
X161246377Y-78052266D01*
X161281308Y-78102872D01*
X161313634Y-78145000D01*
X161318505Y-78156760D01*
X161324384Y-78165277D01*
X161349880Y-78232505D01*
X161370578Y-78282473D01*
X161371507Y-78289529D01*
X161373081Y-78293680D01*
X161385277Y-78394126D01*
X161390000Y-78430000D01*
X161385276Y-78465876D01*
X161373081Y-78566319D01*
X161371507Y-78570468D01*
X161370578Y-78577527D01*
X161349876Y-78627505D01*
X161324384Y-78694722D01*
X161318506Y-78703236D01*
X161313634Y-78715000D01*
X161281301Y-78757136D01*
X161246377Y-78807733D01*
X161234200Y-78818520D01*
X161223051Y-78833051D01*
X161183824Y-78863150D01*
X161143587Y-78898798D01*
X161123904Y-78909128D01*
X161105000Y-78923634D01*
X161063564Y-78940797D01*
X161021993Y-78962616D01*
X160994575Y-78969373D01*
X160967527Y-78980578D01*
X160928017Y-78985779D01*
X160888662Y-78995480D01*
X160854333Y-78995480D01*
X160820000Y-79000000D01*
X160785667Y-78995480D01*
X160751338Y-78995480D01*
X160711981Y-78985779D01*
X160672473Y-78980578D01*
X160645425Y-78969374D01*
X160618006Y-78962616D01*
X160576430Y-78940795D01*
X160535000Y-78923634D01*
X160516097Y-78909130D01*
X160496412Y-78898798D01*
X160456168Y-78863144D01*
X160416949Y-78833051D01*
X160405801Y-78818523D01*
X160393622Y-78807733D01*
X160358688Y-78757123D01*
X160326366Y-78715000D01*
X160321494Y-78703240D01*
X160315615Y-78694722D01*
X160290112Y-78627476D01*
X160269422Y-78577527D01*
X160268493Y-78570472D01*
X160266918Y-78566319D01*
X160254710Y-78465779D01*
X160250000Y-78430000D01*
X160254709Y-78394223D01*
X160266918Y-78293680D01*
X160268493Y-78289525D01*
X160269422Y-78282473D01*
X160290107Y-78232534D01*
X160315615Y-78165277D01*
X160321496Y-78156756D01*
X160326366Y-78145000D01*
X160358681Y-78102885D01*
X160393622Y-78052266D01*
X160405803Y-78041473D01*
X160416949Y-78026949D01*
X160456159Y-77996861D01*
X160496412Y-77961201D01*
X160516102Y-77950866D01*
X160535000Y-77936366D01*
X160576421Y-77919208D01*
X160618006Y-77897383D01*
X160645430Y-77890623D01*
X160672473Y-77879422D01*
X160711978Y-77874221D01*
X160751338Y-77864520D01*
X160785667Y-77864520D01*
X160820000Y-77860000D01*
X160854333Y-77864520D01*
G37*
G36*
X162124333Y-77864520D02*
G01*
X162158662Y-77864520D01*
X162198020Y-77874220D01*
X162237527Y-77879422D01*
X162264570Y-77890624D01*
X162291993Y-77897383D01*
X162333573Y-77919206D01*
X162375000Y-77936366D01*
X162393900Y-77950868D01*
X162413587Y-77961201D01*
X162453832Y-77996856D01*
X162493051Y-78026949D01*
X162504198Y-78041476D01*
X162516377Y-78052266D01*
X162551308Y-78102872D01*
X162583634Y-78145000D01*
X162588505Y-78156760D01*
X162594384Y-78165277D01*
X162619880Y-78232505D01*
X162640578Y-78282473D01*
X162641507Y-78289529D01*
X162643081Y-78293680D01*
X162655277Y-78394126D01*
X162660000Y-78430000D01*
X162655276Y-78465876D01*
X162643081Y-78566319D01*
X162641507Y-78570468D01*
X162640578Y-78577527D01*
X162619876Y-78627505D01*
X162594384Y-78694722D01*
X162588506Y-78703236D01*
X162583634Y-78715000D01*
X162551301Y-78757136D01*
X162516377Y-78807733D01*
X162504200Y-78818520D01*
X162493051Y-78833051D01*
X162453824Y-78863150D01*
X162413587Y-78898798D01*
X162393904Y-78909128D01*
X162375000Y-78923634D01*
X162333564Y-78940797D01*
X162291993Y-78962616D01*
X162264575Y-78969373D01*
X162237527Y-78980578D01*
X162198017Y-78985779D01*
X162158662Y-78995480D01*
X162124333Y-78995480D01*
X162090000Y-79000000D01*
X162055667Y-78995480D01*
X162021338Y-78995480D01*
X161981981Y-78985779D01*
X161942473Y-78980578D01*
X161915425Y-78969374D01*
X161888006Y-78962616D01*
X161846430Y-78940795D01*
X161805000Y-78923634D01*
X161786097Y-78909130D01*
X161766412Y-78898798D01*
X161726168Y-78863144D01*
X161686949Y-78833051D01*
X161675801Y-78818523D01*
X161663622Y-78807733D01*
X161628688Y-78757123D01*
X161596366Y-78715000D01*
X161591494Y-78703240D01*
X161585615Y-78694722D01*
X161560112Y-78627476D01*
X161539422Y-78577527D01*
X161538493Y-78570472D01*
X161536918Y-78566319D01*
X161524710Y-78465779D01*
X161520000Y-78430000D01*
X161524709Y-78394223D01*
X161536918Y-78293680D01*
X161538493Y-78289525D01*
X161539422Y-78282473D01*
X161560107Y-78232534D01*
X161585615Y-78165277D01*
X161591496Y-78156756D01*
X161596366Y-78145000D01*
X161628681Y-78102885D01*
X161663622Y-78052266D01*
X161675803Y-78041473D01*
X161686949Y-78026949D01*
X161726159Y-77996861D01*
X161766412Y-77961201D01*
X161786102Y-77950866D01*
X161805000Y-77936366D01*
X161846421Y-77919208D01*
X161888006Y-77897383D01*
X161915430Y-77890623D01*
X161942473Y-77879422D01*
X161981978Y-77874221D01*
X162021338Y-77864520D01*
X162055667Y-77864520D01*
X162090000Y-77860000D01*
X162124333Y-77864520D01*
G37*
G36*
X163394333Y-77864520D02*
G01*
X163428662Y-77864520D01*
X163468020Y-77874220D01*
X163507527Y-77879422D01*
X163534570Y-77890624D01*
X163561993Y-77897383D01*
X163603573Y-77919206D01*
X163645000Y-77936366D01*
X163663900Y-77950868D01*
X163683587Y-77961201D01*
X163723832Y-77996856D01*
X163763051Y-78026949D01*
X163774198Y-78041476D01*
X163786377Y-78052266D01*
X163821308Y-78102872D01*
X163853634Y-78145000D01*
X163858505Y-78156760D01*
X163864384Y-78165277D01*
X163889880Y-78232505D01*
X163910578Y-78282473D01*
X163911507Y-78289529D01*
X163913081Y-78293680D01*
X163925277Y-78394126D01*
X163930000Y-78430000D01*
X163925276Y-78465876D01*
X163913081Y-78566319D01*
X163911507Y-78570468D01*
X163910578Y-78577527D01*
X163889876Y-78627505D01*
X163864384Y-78694722D01*
X163858506Y-78703236D01*
X163853634Y-78715000D01*
X163821301Y-78757136D01*
X163786377Y-78807733D01*
X163774200Y-78818520D01*
X163763051Y-78833051D01*
X163723824Y-78863150D01*
X163683587Y-78898798D01*
X163663904Y-78909128D01*
X163645000Y-78923634D01*
X163603564Y-78940797D01*
X163561993Y-78962616D01*
X163534575Y-78969373D01*
X163507527Y-78980578D01*
X163468017Y-78985779D01*
X163428662Y-78995480D01*
X163394333Y-78995480D01*
X163360000Y-79000000D01*
X163325667Y-78995480D01*
X163291338Y-78995480D01*
X163251981Y-78985779D01*
X163212473Y-78980578D01*
X163185425Y-78969374D01*
X163158006Y-78962616D01*
X163116430Y-78940795D01*
X163075000Y-78923634D01*
X163056097Y-78909130D01*
X163036412Y-78898798D01*
X162996168Y-78863144D01*
X162956949Y-78833051D01*
X162945801Y-78818523D01*
X162933622Y-78807733D01*
X162898688Y-78757123D01*
X162866366Y-78715000D01*
X162861494Y-78703240D01*
X162855615Y-78694722D01*
X162830112Y-78627476D01*
X162809422Y-78577527D01*
X162808493Y-78570472D01*
X162806918Y-78566319D01*
X162794710Y-78465779D01*
X162790000Y-78430000D01*
X162794709Y-78394223D01*
X162806918Y-78293680D01*
X162808493Y-78289525D01*
X162809422Y-78282473D01*
X162830107Y-78232534D01*
X162855615Y-78165277D01*
X162861496Y-78156756D01*
X162866366Y-78145000D01*
X162898681Y-78102885D01*
X162933622Y-78052266D01*
X162945803Y-78041473D01*
X162956949Y-78026949D01*
X162996159Y-77996861D01*
X163036412Y-77961201D01*
X163056102Y-77950866D01*
X163075000Y-77936366D01*
X163116421Y-77919208D01*
X163158006Y-77897383D01*
X163185430Y-77890623D01*
X163212473Y-77879422D01*
X163251978Y-77874221D01*
X163291338Y-77864520D01*
X163325667Y-77864520D01*
X163360000Y-77860000D01*
X163394333Y-77864520D01*
G37*
G36*
X164664333Y-77864520D02*
G01*
X164698662Y-77864520D01*
X164738020Y-77874220D01*
X164777527Y-77879422D01*
X164804570Y-77890624D01*
X164831993Y-77897383D01*
X164873573Y-77919206D01*
X164915000Y-77936366D01*
X164933900Y-77950868D01*
X164953587Y-77961201D01*
X164993832Y-77996856D01*
X165033051Y-78026949D01*
X165044198Y-78041476D01*
X165056377Y-78052266D01*
X165091308Y-78102872D01*
X165123634Y-78145000D01*
X165128505Y-78156760D01*
X165134384Y-78165277D01*
X165159880Y-78232505D01*
X165180578Y-78282473D01*
X165181507Y-78289529D01*
X165183081Y-78293680D01*
X165195277Y-78394126D01*
X165200000Y-78430000D01*
X165195276Y-78465876D01*
X165183081Y-78566319D01*
X165181507Y-78570468D01*
X165180578Y-78577527D01*
X165159876Y-78627505D01*
X165134384Y-78694722D01*
X165128506Y-78703236D01*
X165123634Y-78715000D01*
X165091301Y-78757136D01*
X165056377Y-78807733D01*
X165044200Y-78818520D01*
X165033051Y-78833051D01*
X164993824Y-78863150D01*
X164953587Y-78898798D01*
X164933904Y-78909128D01*
X164915000Y-78923634D01*
X164873564Y-78940797D01*
X164831993Y-78962616D01*
X164804575Y-78969373D01*
X164777527Y-78980578D01*
X164738017Y-78985779D01*
X164698662Y-78995480D01*
X164664333Y-78995480D01*
X164630000Y-79000000D01*
X164595667Y-78995480D01*
X164561338Y-78995480D01*
X164521981Y-78985779D01*
X164482473Y-78980578D01*
X164455425Y-78969374D01*
X164428006Y-78962616D01*
X164386430Y-78940795D01*
X164345000Y-78923634D01*
X164326097Y-78909130D01*
X164306412Y-78898798D01*
X164266168Y-78863144D01*
X164226949Y-78833051D01*
X164215801Y-78818523D01*
X164203622Y-78807733D01*
X164168688Y-78757123D01*
X164136366Y-78715000D01*
X164131494Y-78703240D01*
X164125615Y-78694722D01*
X164100112Y-78627476D01*
X164079422Y-78577527D01*
X164078493Y-78570472D01*
X164076918Y-78566319D01*
X164064710Y-78465779D01*
X164060000Y-78430000D01*
X164064709Y-78394223D01*
X164076918Y-78293680D01*
X164078493Y-78289525D01*
X164079422Y-78282473D01*
X164100107Y-78232534D01*
X164125615Y-78165277D01*
X164131496Y-78156756D01*
X164136366Y-78145000D01*
X164168681Y-78102885D01*
X164203622Y-78052266D01*
X164215803Y-78041473D01*
X164226949Y-78026949D01*
X164266159Y-77996861D01*
X164306412Y-77961201D01*
X164326102Y-77950866D01*
X164345000Y-77936366D01*
X164386421Y-77919208D01*
X164428006Y-77897383D01*
X164455430Y-77890623D01*
X164482473Y-77879422D01*
X164521978Y-77874221D01*
X164561338Y-77864520D01*
X164595667Y-77864520D01*
X164630000Y-77860000D01*
X164664333Y-77864520D01*
G37*
G36*
X166426788Y-77865328D02*
G01*
X166449497Y-77880503D01*
X166464672Y-77903212D01*
X166470000Y-77930000D01*
X166470000Y-78930000D01*
X166464672Y-78956788D01*
X166449497Y-78979497D01*
X166426788Y-78994672D01*
X166400000Y-79000000D01*
X165400000Y-79000000D01*
X165373212Y-78994672D01*
X165350503Y-78979497D01*
X165335328Y-78956788D01*
X165330000Y-78930000D01*
X165330000Y-77930000D01*
X165335328Y-77903212D01*
X165350503Y-77880503D01*
X165373212Y-77865328D01*
X165400000Y-77860000D01*
X166400000Y-77860000D01*
X166426788Y-77865328D01*
G37*
G36*
X156776788Y-76235328D02*
G01*
X156799497Y-76250503D01*
X156814672Y-76273212D01*
X156820000Y-76300000D01*
X156820000Y-77500000D01*
X156816774Y-77516219D01*
X156816774Y-77565671D01*
X156791150Y-77694491D01*
X156740887Y-77815836D01*
X156667917Y-77925044D01*
X156575044Y-78017917D01*
X156465836Y-78090887D01*
X156344491Y-78141150D01*
X156215671Y-78166774D01*
X156150000Y-78170000D01*
X156148768Y-78170000D01*
X155451232Y-78170000D01*
X155450000Y-78170000D01*
X155384329Y-78166774D01*
X155255509Y-78141150D01*
X155134164Y-78090887D01*
X155024956Y-78017917D01*
X154932083Y-77925044D01*
X154859113Y-77815836D01*
X154808850Y-77694491D01*
X154783226Y-77565671D01*
X154783226Y-77516219D01*
X154780000Y-77500000D01*
X154780000Y-76300000D01*
X154785328Y-76273212D01*
X154800503Y-76250503D01*
X154823212Y-76235328D01*
X154850000Y-76230000D01*
X156750000Y-76230000D01*
X156776788Y-76235328D01*
G37*
G36*
X169140364Y-77335985D02*
G01*
X169208492Y-77381508D01*
X169254015Y-77449636D01*
X169270000Y-77530000D01*
X169270000Y-77870000D01*
X169254015Y-77950364D01*
X169208492Y-78018492D01*
X169140364Y-78064015D01*
X169060000Y-78080000D01*
X168780000Y-78080000D01*
X168699636Y-78064015D01*
X168631508Y-78018492D01*
X168585985Y-77950364D01*
X168570000Y-77870000D01*
X168570000Y-77530000D01*
X168585985Y-77449636D01*
X168631508Y-77381508D01*
X168699636Y-77335985D01*
X168780000Y-77320000D01*
X169060000Y-77320000D01*
X169140364Y-77335985D01*
G37*
G36*
X170100364Y-77335985D02*
G01*
X170168492Y-77381508D01*
X170214015Y-77449636D01*
X170230000Y-77530000D01*
X170230000Y-77870000D01*
X170214015Y-77950364D01*
X170168492Y-78018492D01*
X170100364Y-78064015D01*
X170020000Y-78080000D01*
X169740000Y-78080000D01*
X169659636Y-78064015D01*
X169591508Y-78018492D01*
X169545985Y-77950364D01*
X169530000Y-77870000D01*
X169530000Y-77530000D01*
X169545985Y-77449636D01*
X169591508Y-77381508D01*
X169659636Y-77335985D01*
X169740000Y-77320000D01*
X170020000Y-77320000D01*
X170100364Y-77335985D01*
G37*
G36*
X177390364Y-77035985D02*
G01*
X177458492Y-77081508D01*
X177504015Y-77149636D01*
X177520000Y-77230000D01*
X177520000Y-77570000D01*
X177504015Y-77650364D01*
X177458492Y-77718492D01*
X177390364Y-77764015D01*
X177310000Y-77780000D01*
X177030000Y-77780000D01*
X176949636Y-77764015D01*
X176881508Y-77718492D01*
X176835985Y-77650364D01*
X176820000Y-77570000D01*
X176820000Y-77230000D01*
X176835985Y-77149636D01*
X176881508Y-77081508D01*
X176949636Y-77035985D01*
X177030000Y-77020000D01*
X177310000Y-77020000D01*
X177390364Y-77035985D01*
G37*
G36*
X178350364Y-77035985D02*
G01*
X178418492Y-77081508D01*
X178464015Y-77149636D01*
X178480000Y-77230000D01*
X178480000Y-77570000D01*
X178464015Y-77650364D01*
X178418492Y-77718492D01*
X178350364Y-77764015D01*
X178270000Y-77780000D01*
X177990000Y-77780000D01*
X177909636Y-77764015D01*
X177841508Y-77718492D01*
X177795985Y-77650364D01*
X177780000Y-77570000D01*
X177780000Y-77230000D01*
X177795985Y-77149636D01*
X177841508Y-77081508D01*
X177909636Y-77035985D01*
X177990000Y-77020000D01*
X178270000Y-77020000D01*
X178350364Y-77035985D01*
G37*
G36*
X180353450Y-76875605D02*
G01*
X180419957Y-76920043D01*
X180464395Y-76986550D01*
X180480000Y-77065000D01*
X180480000Y-77435000D01*
X180464395Y-77513450D01*
X180419957Y-77579957D01*
X180353450Y-77624395D01*
X180275000Y-77640000D01*
X180005000Y-77640000D01*
X179926550Y-77624395D01*
X179860043Y-77579957D01*
X179815605Y-77513450D01*
X179800000Y-77435000D01*
X179800000Y-77065000D01*
X179815605Y-76986550D01*
X179860043Y-76920043D01*
X179926550Y-76875605D01*
X180005000Y-76860000D01*
X180275000Y-76860000D01*
X180353450Y-76875605D01*
G37*
G36*
X181373450Y-76875605D02*
G01*
X181439957Y-76920043D01*
X181484395Y-76986550D01*
X181500000Y-77065000D01*
X181500000Y-77435000D01*
X181484395Y-77513450D01*
X181439957Y-77579957D01*
X181373450Y-77624395D01*
X181295000Y-77640000D01*
X181025000Y-77640000D01*
X180946550Y-77624395D01*
X180880043Y-77579957D01*
X180835605Y-77513450D01*
X180820000Y-77435000D01*
X180820000Y-77065000D01*
X180835605Y-76986550D01*
X180880043Y-76920043D01*
X180946550Y-76875605D01*
X181025000Y-76860000D01*
X181295000Y-76860000D01*
X181373450Y-76875605D01*
G37*
G36*
X193001534Y-76055764D02*
G01*
X193034625Y-76077875D01*
X193056736Y-76110966D01*
X193064500Y-76150000D01*
X193064500Y-77500000D01*
X193056736Y-77539034D01*
X193034625Y-77572125D01*
X193001534Y-77594236D01*
X192962500Y-77602000D01*
X188762500Y-77602000D01*
X188723466Y-77594236D01*
X188690375Y-77572125D01*
X188668264Y-77539034D01*
X188660500Y-77500000D01*
X188660500Y-76150000D01*
X188668264Y-76110966D01*
X188690375Y-76077875D01*
X188723466Y-76055764D01*
X188762500Y-76048000D01*
X192962500Y-76048000D01*
X193001534Y-76055764D01*
G37*
G36*
X158541084Y-75709629D02*
G01*
X158583073Y-75709629D01*
X158630438Y-75719696D01*
X158676904Y-75724932D01*
X158710690Y-75736754D01*
X158745583Y-75744171D01*
X158795872Y-75766560D01*
X158844938Y-75783730D01*
X158870475Y-75799776D01*
X158897360Y-75811746D01*
X158947492Y-75848169D01*
X158995674Y-75878444D01*
X159012976Y-75895746D01*
X159031773Y-75909403D01*
X159078243Y-75961013D01*
X159121556Y-76004326D01*
X159131518Y-76020181D01*
X159142949Y-76032876D01*
X159182048Y-76100598D01*
X159216270Y-76155062D01*
X159220543Y-76167275D01*
X159226015Y-76176752D01*
X159254030Y-76262975D01*
X159275068Y-76323096D01*
X159275865Y-76330176D01*
X159277358Y-76334769D01*
X159290892Y-76463539D01*
X159295000Y-76500000D01*
X159290891Y-76536463D01*
X159277358Y-76665230D01*
X159275865Y-76669822D01*
X159275068Y-76676904D01*
X159254026Y-76737037D01*
X159226015Y-76823247D01*
X159220544Y-76832722D01*
X159216270Y-76844938D01*
X159182041Y-76899412D01*
X159142949Y-76967123D01*
X159131520Y-76979815D01*
X159121556Y-76995674D01*
X159078234Y-77038995D01*
X159031773Y-77090596D01*
X159012980Y-77104249D01*
X158995674Y-77121556D01*
X158947482Y-77151837D01*
X158897360Y-77188253D01*
X158870481Y-77200220D01*
X158844938Y-77216270D01*
X158795861Y-77233442D01*
X158745583Y-77255828D01*
X158710696Y-77263243D01*
X158676904Y-77275068D01*
X158630435Y-77280303D01*
X158583073Y-77290371D01*
X158541084Y-77290371D01*
X158500000Y-77295000D01*
X158458916Y-77290371D01*
X158416927Y-77290371D01*
X158369563Y-77280303D01*
X158323096Y-77275068D01*
X158289304Y-77263243D01*
X158254416Y-77255828D01*
X158204133Y-77233441D01*
X158155062Y-77216270D01*
X158129521Y-77200221D01*
X158102639Y-77188253D01*
X158052510Y-77151832D01*
X158004326Y-77121556D01*
X157987022Y-77104252D01*
X157968226Y-77090596D01*
X157921755Y-77038985D01*
X157878444Y-76995674D01*
X157868481Y-76979819D01*
X157857050Y-76967123D01*
X157817946Y-76899393D01*
X157783730Y-76844938D01*
X157779457Y-76832726D01*
X157773984Y-76823247D01*
X157745959Y-76736997D01*
X157724932Y-76676904D01*
X157724134Y-76669826D01*
X157722641Y-76665230D01*
X157709093Y-76536330D01*
X157705000Y-76500000D01*
X157709093Y-76463672D01*
X157722641Y-76334769D01*
X157724134Y-76330171D01*
X157724932Y-76323096D01*
X157745955Y-76263015D01*
X157773984Y-76176752D01*
X157779457Y-76167270D01*
X157783730Y-76155062D01*
X157817939Y-76100618D01*
X157857050Y-76032876D01*
X157868483Y-76020177D01*
X157878444Y-76004326D01*
X157921746Y-75961023D01*
X157968226Y-75909403D01*
X157987025Y-75895744D01*
X158004326Y-75878444D01*
X158052504Y-75848171D01*
X158102640Y-75811746D01*
X158129524Y-75799776D01*
X158155062Y-75783730D01*
X158204124Y-75766562D01*
X158254416Y-75744171D01*
X158289310Y-75736754D01*
X158323096Y-75724932D01*
X158369560Y-75719696D01*
X158416927Y-75709629D01*
X158458916Y-75709629D01*
X158500000Y-75705000D01*
X158541084Y-75709629D01*
G37*
G36*
X185220364Y-76415985D02*
G01*
X185288492Y-76461508D01*
X185334015Y-76529636D01*
X185350000Y-76610000D01*
X185350000Y-76890000D01*
X185334015Y-76970364D01*
X185288492Y-77038492D01*
X185220364Y-77084015D01*
X185140000Y-77100000D01*
X184800000Y-77100000D01*
X184719636Y-77084015D01*
X184651508Y-77038492D01*
X184605985Y-76970364D01*
X184590000Y-76890000D01*
X184590000Y-76610000D01*
X184605985Y-76529636D01*
X184651508Y-76461508D01*
X184719636Y-76415985D01*
X184800000Y-76400000D01*
X185140000Y-76400000D01*
X185220364Y-76415985D01*
G37*
G36*
X186250364Y-76415985D02*
G01*
X186318492Y-76461508D01*
X186364015Y-76529636D01*
X186380000Y-76610000D01*
X186380000Y-76890000D01*
X186364015Y-76970364D01*
X186318492Y-77038492D01*
X186250364Y-77084015D01*
X186170000Y-77100000D01*
X185830000Y-77100000D01*
X185749636Y-77084015D01*
X185681508Y-77038492D01*
X185635985Y-76970364D01*
X185620000Y-76890000D01*
X185620000Y-76610000D01*
X185635985Y-76529636D01*
X185681508Y-76461508D01*
X185749636Y-76415985D01*
X185830000Y-76400000D01*
X186170000Y-76400000D01*
X186250364Y-76415985D01*
G37*
G36*
X170025706Y-75940086D02*
G01*
X170068692Y-75968808D01*
X170097414Y-76011794D01*
X170107500Y-76062500D01*
X170107500Y-76812500D01*
X170097414Y-76863206D01*
X170068692Y-76906192D01*
X170025706Y-76934914D01*
X169975000Y-76945000D01*
X169850000Y-76945000D01*
X169799294Y-76934914D01*
X169756308Y-76906192D01*
X169727586Y-76863206D01*
X169717500Y-76812500D01*
X169717500Y-76062500D01*
X169727586Y-76011794D01*
X169756308Y-75968808D01*
X169799294Y-75940086D01*
X169850000Y-75930000D01*
X169975000Y-75930000D01*
X170025706Y-75940086D01*
G37*
G36*
X170525706Y-75940086D02*
G01*
X170568692Y-75968808D01*
X170597414Y-76011794D01*
X170607500Y-76062500D01*
X170607500Y-76812500D01*
X170597414Y-76863206D01*
X170568692Y-76906192D01*
X170525706Y-76934914D01*
X170475000Y-76945000D01*
X170350000Y-76945000D01*
X170299294Y-76934914D01*
X170256308Y-76906192D01*
X170227586Y-76863206D01*
X170217500Y-76812500D01*
X170217500Y-76062500D01*
X170227586Y-76011794D01*
X170256308Y-75968808D01*
X170299294Y-75940086D01*
X170350000Y-75930000D01*
X170475000Y-75930000D01*
X170525706Y-75940086D01*
G37*
G36*
X171025706Y-75940086D02*
G01*
X171068692Y-75968808D01*
X171097414Y-76011794D01*
X171107500Y-76062500D01*
X171107500Y-76812500D01*
X171097414Y-76863206D01*
X171068692Y-76906192D01*
X171025706Y-76934914D01*
X170975000Y-76945000D01*
X170850000Y-76945000D01*
X170799294Y-76934914D01*
X170756308Y-76906192D01*
X170727586Y-76863206D01*
X170717500Y-76812500D01*
X170717500Y-76062500D01*
X170727586Y-76011794D01*
X170756308Y-75968808D01*
X170799294Y-75940086D01*
X170850000Y-75930000D01*
X170975000Y-75930000D01*
X171025706Y-75940086D01*
G37*
G36*
X171525706Y-75940086D02*
G01*
X171568692Y-75968808D01*
X171597414Y-76011794D01*
X171607500Y-76062500D01*
X171607500Y-76812500D01*
X171597414Y-76863206D01*
X171568692Y-76906192D01*
X171525706Y-76934914D01*
X171475000Y-76945000D01*
X171350000Y-76945000D01*
X171299294Y-76934914D01*
X171256308Y-76906192D01*
X171227586Y-76863206D01*
X171217500Y-76812500D01*
X171217500Y-76062500D01*
X171227586Y-76011794D01*
X171256308Y-75968808D01*
X171299294Y-75940086D01*
X171350000Y-75930000D01*
X171475000Y-75930000D01*
X171525706Y-75940086D01*
G37*
G36*
X172025706Y-75940086D02*
G01*
X172068692Y-75968808D01*
X172097414Y-76011794D01*
X172107500Y-76062500D01*
X172107500Y-76812500D01*
X172097414Y-76863206D01*
X172068692Y-76906192D01*
X172025706Y-76934914D01*
X171975000Y-76945000D01*
X171850000Y-76945000D01*
X171799294Y-76934914D01*
X171756308Y-76906192D01*
X171727586Y-76863206D01*
X171717500Y-76812500D01*
X171717500Y-76062500D01*
X171727586Y-76011794D01*
X171756308Y-75968808D01*
X171799294Y-75940086D01*
X171850000Y-75930000D01*
X171975000Y-75930000D01*
X172025706Y-75940086D01*
G37*
G36*
X172525706Y-75940086D02*
G01*
X172568692Y-75968808D01*
X172597414Y-76011794D01*
X172607500Y-76062500D01*
X172607500Y-76812500D01*
X172597414Y-76863206D01*
X172568692Y-76906192D01*
X172525706Y-76934914D01*
X172475000Y-76945000D01*
X172350000Y-76945000D01*
X172299294Y-76934914D01*
X172256308Y-76906192D01*
X172227586Y-76863206D01*
X172217500Y-76812500D01*
X172217500Y-76062500D01*
X172227586Y-76011794D01*
X172256308Y-75968808D01*
X172299294Y-75940086D01*
X172350000Y-75930000D01*
X172475000Y-75930000D01*
X172525706Y-75940086D01*
G37*
G36*
X173025706Y-75940086D02*
G01*
X173068692Y-75968808D01*
X173097414Y-76011794D01*
X173107500Y-76062500D01*
X173107500Y-76812500D01*
X173097414Y-76863206D01*
X173068692Y-76906192D01*
X173025706Y-76934914D01*
X172975000Y-76945000D01*
X172850000Y-76945000D01*
X172799294Y-76934914D01*
X172756308Y-76906192D01*
X172727586Y-76863206D01*
X172717500Y-76812500D01*
X172717500Y-76062500D01*
X172727586Y-76011794D01*
X172756308Y-75968808D01*
X172799294Y-75940086D01*
X172850000Y-75930000D01*
X172975000Y-75930000D01*
X173025706Y-75940086D01*
G37*
G36*
X173525706Y-75940086D02*
G01*
X173568692Y-75968808D01*
X173597414Y-76011794D01*
X173607500Y-76062500D01*
X173607500Y-76812500D01*
X173597414Y-76863206D01*
X173568692Y-76906192D01*
X173525706Y-76934914D01*
X173475000Y-76945000D01*
X173350000Y-76945000D01*
X173299294Y-76934914D01*
X173256308Y-76906192D01*
X173227586Y-76863206D01*
X173217500Y-76812500D01*
X173217500Y-76062500D01*
X173227586Y-76011794D01*
X173256308Y-75968808D01*
X173299294Y-75940086D01*
X173350000Y-75930000D01*
X173475000Y-75930000D01*
X173525706Y-75940086D01*
G37*
G36*
X178675706Y-75465086D02*
G01*
X178718692Y-75493808D01*
X178747414Y-75536794D01*
X178757500Y-75587500D01*
X178757500Y-76287500D01*
X178747414Y-76338206D01*
X178718692Y-76381192D01*
X178675706Y-76409914D01*
X178625000Y-76420000D01*
X178500000Y-76420000D01*
X178449294Y-76409914D01*
X178406308Y-76381192D01*
X178377586Y-76338206D01*
X178367500Y-76287500D01*
X178367500Y-75587500D01*
X178377586Y-75536794D01*
X178406308Y-75493808D01*
X178449294Y-75465086D01*
X178500000Y-75455000D01*
X178625000Y-75455000D01*
X178675706Y-75465086D01*
G37*
G36*
X179175706Y-75465086D02*
G01*
X179218692Y-75493808D01*
X179247414Y-75536794D01*
X179257500Y-75587500D01*
X179257500Y-76287500D01*
X179247414Y-76338206D01*
X179218692Y-76381192D01*
X179175706Y-76409914D01*
X179125000Y-76420000D01*
X179000000Y-76420000D01*
X178949294Y-76409914D01*
X178906308Y-76381192D01*
X178877586Y-76338206D01*
X178867500Y-76287500D01*
X178867500Y-75587500D01*
X178877586Y-75536794D01*
X178906308Y-75493808D01*
X178949294Y-75465086D01*
X179000000Y-75455000D01*
X179125000Y-75455000D01*
X179175706Y-75465086D01*
G37*
G36*
X179675706Y-75465086D02*
G01*
X179718692Y-75493808D01*
X179747414Y-75536794D01*
X179757500Y-75587500D01*
X179757500Y-76287500D01*
X179747414Y-76338206D01*
X179718692Y-76381192D01*
X179675706Y-76409914D01*
X179625000Y-76420000D01*
X179500000Y-76420000D01*
X179449294Y-76409914D01*
X179406308Y-76381192D01*
X179377586Y-76338206D01*
X179367500Y-76287500D01*
X179367500Y-75587500D01*
X179377586Y-75536794D01*
X179406308Y-75493808D01*
X179449294Y-75465086D01*
X179500000Y-75455000D01*
X179625000Y-75455000D01*
X179675706Y-75465086D01*
G37*
G36*
X180175706Y-75465086D02*
G01*
X180218692Y-75493808D01*
X180247414Y-75536794D01*
X180257500Y-75587500D01*
X180257500Y-76287500D01*
X180247414Y-76338206D01*
X180218692Y-76381192D01*
X180175706Y-76409914D01*
X180125000Y-76420000D01*
X180000000Y-76420000D01*
X179949294Y-76409914D01*
X179906308Y-76381192D01*
X179877586Y-76338206D01*
X179867500Y-76287500D01*
X179867500Y-75587500D01*
X179877586Y-75536794D01*
X179906308Y-75493808D01*
X179949294Y-75465086D01*
X180000000Y-75455000D01*
X180125000Y-75455000D01*
X180175706Y-75465086D01*
G37*
G36*
X180675706Y-75465086D02*
G01*
X180718692Y-75493808D01*
X180747414Y-75536794D01*
X180757500Y-75587500D01*
X180757500Y-76287500D01*
X180747414Y-76338206D01*
X180718692Y-76381192D01*
X180675706Y-76409914D01*
X180625000Y-76420000D01*
X180500000Y-76420000D01*
X180449294Y-76409914D01*
X180406308Y-76381192D01*
X180377586Y-76338206D01*
X180367500Y-76287500D01*
X180367500Y-75587500D01*
X180377586Y-75536794D01*
X180406308Y-75493808D01*
X180449294Y-75465086D01*
X180500000Y-75455000D01*
X180625000Y-75455000D01*
X180675706Y-75465086D01*
G37*
G36*
X163459190Y-75496747D02*
G01*
X163530563Y-75544437D01*
X163578253Y-75615810D01*
X163595000Y-75700000D01*
X163595000Y-76000000D01*
X163578253Y-76084190D01*
X163530563Y-76155563D01*
X163459190Y-76203253D01*
X163375000Y-76220000D01*
X162350000Y-76220000D01*
X162265810Y-76203253D01*
X162194437Y-76155563D01*
X162146747Y-76084190D01*
X162130000Y-76000000D01*
X162130000Y-75700000D01*
X162146747Y-75615810D01*
X162194437Y-75544437D01*
X162265810Y-75496747D01*
X162350000Y-75480000D01*
X163375000Y-75480000D01*
X163459190Y-75496747D01*
G37*
G36*
X165734190Y-75496747D02*
G01*
X165805563Y-75544437D01*
X165853253Y-75615810D01*
X165870000Y-75700000D01*
X165870000Y-76000000D01*
X165853253Y-76084190D01*
X165805563Y-76155563D01*
X165734190Y-76203253D01*
X165650000Y-76220000D01*
X164625000Y-76220000D01*
X164540810Y-76203253D01*
X164469437Y-76155563D01*
X164421747Y-76084190D01*
X164405000Y-76000000D01*
X164405000Y-75700000D01*
X164421747Y-75615810D01*
X164469437Y-75544437D01*
X164540810Y-75496747D01*
X164625000Y-75480000D01*
X165650000Y-75480000D01*
X165734190Y-75496747D01*
G37*
G36*
X185220364Y-75455985D02*
G01*
X185288492Y-75501508D01*
X185334015Y-75569636D01*
X185350000Y-75650000D01*
X185350000Y-75930000D01*
X185334015Y-76010364D01*
X185288492Y-76078492D01*
X185220364Y-76124015D01*
X185140000Y-76140000D01*
X184800000Y-76140000D01*
X184719636Y-76124015D01*
X184651508Y-76078492D01*
X184605985Y-76010364D01*
X184590000Y-75930000D01*
X184590000Y-75650000D01*
X184605985Y-75569636D01*
X184651508Y-75501508D01*
X184719636Y-75455985D01*
X184800000Y-75440000D01*
X185140000Y-75440000D01*
X185220364Y-75455985D01*
G37*
G36*
X186250364Y-75455985D02*
G01*
X186318492Y-75501508D01*
X186364015Y-75569636D01*
X186380000Y-75650000D01*
X186380000Y-75930000D01*
X186364015Y-76010364D01*
X186318492Y-76078492D01*
X186250364Y-76124015D01*
X186170000Y-76140000D01*
X185830000Y-76140000D01*
X185749636Y-76124015D01*
X185681508Y-76078492D01*
X185635985Y-76010364D01*
X185620000Y-75930000D01*
X185620000Y-75650000D01*
X185635985Y-75569636D01*
X185681508Y-75501508D01*
X185749636Y-75455985D01*
X185830000Y-75440000D01*
X186170000Y-75440000D01*
X186250364Y-75455985D01*
G37*
G36*
X184005734Y-75371556D02*
G01*
X184076296Y-75418704D01*
X184123444Y-75489266D01*
X184140000Y-75572500D01*
X184140000Y-75867500D01*
X184123444Y-75950734D01*
X184076296Y-76021296D01*
X184005734Y-76068444D01*
X183922500Y-76085000D01*
X183577500Y-76085000D01*
X183494266Y-76068444D01*
X183423704Y-76021296D01*
X183376556Y-75950734D01*
X183360000Y-75867500D01*
X183360000Y-75572500D01*
X183376556Y-75489266D01*
X183423704Y-75418704D01*
X183494266Y-75371556D01*
X183577500Y-75355000D01*
X183922500Y-75355000D01*
X184005734Y-75371556D01*
G37*
G36*
X169650706Y-75565086D02*
G01*
X169693692Y-75593808D01*
X169722414Y-75636794D01*
X169732500Y-75687500D01*
X169732500Y-75812500D01*
X169722414Y-75863206D01*
X169693692Y-75906192D01*
X169650706Y-75934914D01*
X169600000Y-75945000D01*
X168850000Y-75945000D01*
X168799294Y-75934914D01*
X168756308Y-75906192D01*
X168727586Y-75863206D01*
X168717500Y-75812500D01*
X168717500Y-75687500D01*
X168727586Y-75636794D01*
X168756308Y-75593808D01*
X168799294Y-75565086D01*
X168850000Y-75555000D01*
X169600000Y-75555000D01*
X169650706Y-75565086D01*
G37*
G36*
X174525706Y-75565086D02*
G01*
X174568692Y-75593808D01*
X174597414Y-75636794D01*
X174607500Y-75687500D01*
X174607500Y-75812500D01*
X174597414Y-75863206D01*
X174568692Y-75906192D01*
X174525706Y-75934914D01*
X174475000Y-75945000D01*
X173725000Y-75945000D01*
X173674294Y-75934914D01*
X173631308Y-75906192D01*
X173602586Y-75863206D01*
X173592500Y-75812500D01*
X173592500Y-75687500D01*
X173602586Y-75636794D01*
X173631308Y-75593808D01*
X173674294Y-75565086D01*
X173725000Y-75555000D01*
X174475000Y-75555000D01*
X174525706Y-75565086D01*
G37*
G36*
X156776788Y-74185328D02*
G01*
X156799497Y-74200503D01*
X156814672Y-74223212D01*
X156820000Y-74250000D01*
X156820000Y-75750000D01*
X156814672Y-75776788D01*
X156799497Y-75799497D01*
X156776788Y-75814672D01*
X156750000Y-75820000D01*
X154850000Y-75820000D01*
X154823212Y-75814672D01*
X154800503Y-75799497D01*
X154785328Y-75776788D01*
X154780000Y-75750000D01*
X154780000Y-74250000D01*
X154785328Y-74223212D01*
X154800503Y-74200503D01*
X154823212Y-74185328D01*
X154850000Y-74180000D01*
X156750000Y-74180000D01*
X156776788Y-74185328D01*
G37*
G36*
X173414288Y-72210328D02*
G01*
X173436997Y-72225503D01*
X173452172Y-72248212D01*
X173457500Y-72275000D01*
X173457500Y-75725000D01*
X173452172Y-75751788D01*
X173436997Y-75774497D01*
X173414288Y-75789672D01*
X173387500Y-75795000D01*
X169937500Y-75795000D01*
X169910712Y-75789672D01*
X169888003Y-75774497D01*
X169872828Y-75751788D01*
X169867500Y-75725000D01*
X169867500Y-72275000D01*
X169872828Y-72248212D01*
X169888003Y-72225503D01*
X169910712Y-72210328D01*
X169937500Y-72205000D01*
X173387500Y-72205000D01*
X173414288Y-72210328D01*
G37*
G36*
X159201788Y-75035328D02*
G01*
X159224497Y-75050503D01*
X159239672Y-75073212D01*
X159245000Y-75100000D01*
X159245000Y-75500000D01*
X159239672Y-75526788D01*
X159224497Y-75549497D01*
X159201788Y-75564672D01*
X159175000Y-75570000D01*
X157825000Y-75570000D01*
X157798212Y-75564672D01*
X157775503Y-75549497D01*
X157760328Y-75526788D01*
X157755000Y-75500000D01*
X157755000Y-75100000D01*
X157760328Y-75073212D01*
X157775503Y-75050503D01*
X157798212Y-75035328D01*
X157825000Y-75030000D01*
X159175000Y-75030000D01*
X159201788Y-75035328D01*
G37*
G36*
X169650706Y-75065086D02*
G01*
X169693692Y-75093808D01*
X169722414Y-75136794D01*
X169732500Y-75187500D01*
X169732500Y-75312500D01*
X169722414Y-75363206D01*
X169693692Y-75406192D01*
X169650706Y-75434914D01*
X169600000Y-75445000D01*
X168850000Y-75445000D01*
X168799294Y-75434914D01*
X168756308Y-75406192D01*
X168727586Y-75363206D01*
X168717500Y-75312500D01*
X168717500Y-75187500D01*
X168727586Y-75136794D01*
X168756308Y-75093808D01*
X168799294Y-75065086D01*
X168850000Y-75055000D01*
X169600000Y-75055000D01*
X169650706Y-75065086D01*
G37*
G36*
X174525706Y-75065086D02*
G01*
X174568692Y-75093808D01*
X174597414Y-75136794D01*
X174607500Y-75187500D01*
X174607500Y-75312500D01*
X174597414Y-75363206D01*
X174568692Y-75406192D01*
X174525706Y-75434914D01*
X174475000Y-75445000D01*
X173725000Y-75445000D01*
X173674294Y-75434914D01*
X173631308Y-75406192D01*
X173602586Y-75363206D01*
X173592500Y-75312500D01*
X173592500Y-75187500D01*
X173602586Y-75136794D01*
X173631308Y-75093808D01*
X173674294Y-75065086D01*
X173725000Y-75055000D01*
X174475000Y-75055000D01*
X174525706Y-75065086D01*
G37*
G36*
X180839288Y-72685328D02*
G01*
X180861997Y-72700503D01*
X180877172Y-72723212D01*
X180882500Y-72750000D01*
X180882500Y-75250000D01*
X180877172Y-75276788D01*
X180861997Y-75299497D01*
X180839288Y-75314672D01*
X180812500Y-75320000D01*
X178312500Y-75320000D01*
X178285712Y-75314672D01*
X178263003Y-75299497D01*
X178247828Y-75276788D01*
X178242500Y-75250000D01*
X178242500Y-72750000D01*
X178247828Y-72723212D01*
X178263003Y-72700503D01*
X178285712Y-72685328D01*
X178312500Y-72680000D01*
X180812500Y-72680000D01*
X180839288Y-72685328D01*
G37*
G36*
X163459190Y-74546747D02*
G01*
X163530563Y-74594437D01*
X163578253Y-74665810D01*
X163595000Y-74750000D01*
X163595000Y-75050000D01*
X163578253Y-75134190D01*
X163530563Y-75205563D01*
X163459190Y-75253253D01*
X163375000Y-75270000D01*
X162350000Y-75270000D01*
X162265810Y-75253253D01*
X162194437Y-75205563D01*
X162146747Y-75134190D01*
X162130000Y-75050000D01*
X162130000Y-74750000D01*
X162146747Y-74665810D01*
X162194437Y-74594437D01*
X162265810Y-74546747D01*
X162350000Y-74530000D01*
X163375000Y-74530000D01*
X163459190Y-74546747D01*
G37*
G36*
X165734190Y-74546747D02*
G01*
X165805563Y-74594437D01*
X165853253Y-74665810D01*
X165870000Y-74750000D01*
X165870000Y-75050000D01*
X165853253Y-75134190D01*
X165805563Y-75205563D01*
X165734190Y-75253253D01*
X165650000Y-75270000D01*
X164625000Y-75270000D01*
X164540810Y-75253253D01*
X164469437Y-75205563D01*
X164421747Y-75134190D01*
X164405000Y-75050000D01*
X164405000Y-74750000D01*
X164421747Y-74665810D01*
X164469437Y-74594437D01*
X164540810Y-74546747D01*
X164625000Y-74530000D01*
X165650000Y-74530000D01*
X165734190Y-74546747D01*
G37*
G36*
X178025706Y-74815086D02*
G01*
X178068692Y-74843808D01*
X178097414Y-74886794D01*
X178107500Y-74937500D01*
X178107500Y-75062500D01*
X178097414Y-75113206D01*
X178068692Y-75156192D01*
X178025706Y-75184914D01*
X177975000Y-75195000D01*
X177275000Y-75195000D01*
X177224294Y-75184914D01*
X177181308Y-75156192D01*
X177152586Y-75113206D01*
X177142500Y-75062500D01*
X177142500Y-74937500D01*
X177152586Y-74886794D01*
X177181308Y-74843808D01*
X177224294Y-74815086D01*
X177275000Y-74805000D01*
X177975000Y-74805000D01*
X178025706Y-74815086D01*
G37*
G36*
X181900706Y-74815086D02*
G01*
X181943692Y-74843808D01*
X181972414Y-74886794D01*
X181982500Y-74937500D01*
X181982500Y-75062500D01*
X181972414Y-75113206D01*
X181943692Y-75156192D01*
X181900706Y-75184914D01*
X181850000Y-75195000D01*
X181150000Y-75195000D01*
X181099294Y-75184914D01*
X181056308Y-75156192D01*
X181027586Y-75113206D01*
X181017500Y-75062500D01*
X181017500Y-74937500D01*
X181027586Y-74886794D01*
X181056308Y-74843808D01*
X181099294Y-74815086D01*
X181150000Y-74805000D01*
X181850000Y-74805000D01*
X181900706Y-74815086D01*
G37*
G36*
X184005734Y-74401556D02*
G01*
X184076296Y-74448704D01*
X184123444Y-74519266D01*
X184140000Y-74602500D01*
X184140000Y-74897500D01*
X184123444Y-74980734D01*
X184076296Y-75051296D01*
X184005734Y-75098444D01*
X183922500Y-75115000D01*
X183577500Y-75115000D01*
X183494266Y-75098444D01*
X183423704Y-75051296D01*
X183376556Y-74980734D01*
X183360000Y-74897500D01*
X183360000Y-74602500D01*
X183376556Y-74519266D01*
X183423704Y-74448704D01*
X183494266Y-74401556D01*
X183577500Y-74385000D01*
X183922500Y-74385000D01*
X184005734Y-74401556D01*
G37*
G36*
X183005734Y-74386556D02*
G01*
X183076296Y-74433704D01*
X183123444Y-74504266D01*
X183140000Y-74587500D01*
X183140000Y-74882500D01*
X183123444Y-74965734D01*
X183076296Y-75036296D01*
X183005734Y-75083444D01*
X182922500Y-75100000D01*
X182577500Y-75100000D01*
X182494266Y-75083444D01*
X182423704Y-75036296D01*
X182376556Y-74965734D01*
X182360000Y-74882500D01*
X182360000Y-74587500D01*
X182376556Y-74504266D01*
X182423704Y-74433704D01*
X182494266Y-74386556D01*
X182577500Y-74370000D01*
X182922500Y-74370000D01*
X183005734Y-74386556D01*
G37*
G36*
X169650706Y-74565086D02*
G01*
X169693692Y-74593808D01*
X169722414Y-74636794D01*
X169732500Y-74687500D01*
X169732500Y-74812500D01*
X169722414Y-74863206D01*
X169693692Y-74906192D01*
X169650706Y-74934914D01*
X169600000Y-74945000D01*
X168850000Y-74945000D01*
X168799294Y-74934914D01*
X168756308Y-74906192D01*
X168727586Y-74863206D01*
X168717500Y-74812500D01*
X168717500Y-74687500D01*
X168727586Y-74636794D01*
X168756308Y-74593808D01*
X168799294Y-74565086D01*
X168850000Y-74555000D01*
X169600000Y-74555000D01*
X169650706Y-74565086D01*
G37*
G36*
X174525706Y-74565086D02*
G01*
X174568692Y-74593808D01*
X174597414Y-74636794D01*
X174607500Y-74687500D01*
X174607500Y-74812500D01*
X174597414Y-74863206D01*
X174568692Y-74906192D01*
X174525706Y-74934914D01*
X174475000Y-74945000D01*
X173725000Y-74945000D01*
X173674294Y-74934914D01*
X173631308Y-74906192D01*
X173602586Y-74863206D01*
X173592500Y-74812500D01*
X173592500Y-74687500D01*
X173602586Y-74636794D01*
X173631308Y-74593808D01*
X173674294Y-74565086D01*
X173725000Y-74555000D01*
X174475000Y-74555000D01*
X174525706Y-74565086D01*
G37*
G36*
X159201788Y-74385328D02*
G01*
X159224497Y-74400503D01*
X159239672Y-74423212D01*
X159245000Y-74450000D01*
X159245000Y-74850000D01*
X159239672Y-74876788D01*
X159224497Y-74899497D01*
X159201788Y-74914672D01*
X159175000Y-74920000D01*
X157825000Y-74920000D01*
X157798212Y-74914672D01*
X157775503Y-74899497D01*
X157760328Y-74876788D01*
X157755000Y-74850000D01*
X157755000Y-74450000D01*
X157760328Y-74423212D01*
X157775503Y-74400503D01*
X157798212Y-74385328D01*
X157825000Y-74380000D01*
X159175000Y-74380000D01*
X159201788Y-74385328D01*
G37*
G36*
X192901534Y-73270764D02*
G01*
X192934625Y-73292875D01*
X192956736Y-73325966D01*
X192964500Y-73365000D01*
X192964500Y-74635000D01*
X192956736Y-74674034D01*
X192934625Y-74707125D01*
X192901534Y-74729236D01*
X192862500Y-74737000D01*
X189262500Y-74737000D01*
X189223466Y-74729236D01*
X189190375Y-74707125D01*
X189168264Y-74674034D01*
X189160500Y-74635000D01*
X189160500Y-73365000D01*
X189168264Y-73325966D01*
X189190375Y-73292875D01*
X189223466Y-73270764D01*
X189262500Y-73263000D01*
X192862500Y-73263000D01*
X192901534Y-73270764D01*
G37*
G36*
X178025706Y-74315086D02*
G01*
X178068692Y-74343808D01*
X178097414Y-74386794D01*
X178107500Y-74437500D01*
X178107500Y-74562500D01*
X178097414Y-74613206D01*
X178068692Y-74656192D01*
X178025706Y-74684914D01*
X177975000Y-74695000D01*
X177275000Y-74695000D01*
X177224294Y-74684914D01*
X177181308Y-74656192D01*
X177152586Y-74613206D01*
X177142500Y-74562500D01*
X177142500Y-74437500D01*
X177152586Y-74386794D01*
X177181308Y-74343808D01*
X177224294Y-74315086D01*
X177275000Y-74305000D01*
X177975000Y-74305000D01*
X178025706Y-74315086D01*
G37*
G36*
X181900706Y-74315086D02*
G01*
X181943692Y-74343808D01*
X181972414Y-74386794D01*
X181982500Y-74437500D01*
X181982500Y-74562500D01*
X181972414Y-74613206D01*
X181943692Y-74656192D01*
X181900706Y-74684914D01*
X181850000Y-74695000D01*
X181150000Y-74695000D01*
X181099294Y-74684914D01*
X181056308Y-74656192D01*
X181027586Y-74613206D01*
X181017500Y-74562500D01*
X181017500Y-74437500D01*
X181027586Y-74386794D01*
X181056308Y-74343808D01*
X181099294Y-74315086D01*
X181150000Y-74305000D01*
X181850000Y-74305000D01*
X181900706Y-74315086D01*
G37*
G36*
X169650706Y-74065086D02*
G01*
X169693692Y-74093808D01*
X169722414Y-74136794D01*
X169732500Y-74187500D01*
X169732500Y-74312500D01*
X169722414Y-74363206D01*
X169693692Y-74406192D01*
X169650706Y-74434914D01*
X169600000Y-74445000D01*
X168850000Y-74445000D01*
X168799294Y-74434914D01*
X168756308Y-74406192D01*
X168727586Y-74363206D01*
X168717500Y-74312500D01*
X168717500Y-74187500D01*
X168727586Y-74136794D01*
X168756308Y-74093808D01*
X168799294Y-74065086D01*
X168850000Y-74055000D01*
X169600000Y-74055000D01*
X169650706Y-74065086D01*
G37*
G36*
X174525706Y-74065086D02*
G01*
X174568692Y-74093808D01*
X174597414Y-74136794D01*
X174607500Y-74187500D01*
X174607500Y-74312500D01*
X174597414Y-74363206D01*
X174568692Y-74406192D01*
X174525706Y-74434914D01*
X174475000Y-74445000D01*
X173725000Y-74445000D01*
X173674294Y-74434914D01*
X173631308Y-74406192D01*
X173602586Y-74363206D01*
X173592500Y-74312500D01*
X173592500Y-74187500D01*
X173602586Y-74136794D01*
X173631308Y-74093808D01*
X173674294Y-74065086D01*
X173725000Y-74055000D01*
X174475000Y-74055000D01*
X174525706Y-74065086D01*
G37*
G36*
X163459190Y-73596747D02*
G01*
X163530563Y-73644437D01*
X163578253Y-73715810D01*
X163595000Y-73800000D01*
X163595000Y-74100000D01*
X163578253Y-74184190D01*
X163530563Y-74255563D01*
X163459190Y-74303253D01*
X163375000Y-74320000D01*
X162350000Y-74320000D01*
X162265810Y-74303253D01*
X162194437Y-74255563D01*
X162146747Y-74184190D01*
X162130000Y-74100000D01*
X162130000Y-73800000D01*
X162146747Y-73715810D01*
X162194437Y-73644437D01*
X162265810Y-73596747D01*
X162350000Y-73580000D01*
X163375000Y-73580000D01*
X163459190Y-73596747D01*
G37*
G36*
X165734190Y-73596747D02*
G01*
X165805563Y-73644437D01*
X165853253Y-73715810D01*
X165870000Y-73800000D01*
X165870000Y-74100000D01*
X165853253Y-74184190D01*
X165805563Y-74255563D01*
X165734190Y-74303253D01*
X165650000Y-74320000D01*
X164625000Y-74320000D01*
X164540810Y-74303253D01*
X164469437Y-74255563D01*
X164421747Y-74184190D01*
X164405000Y-74100000D01*
X164405000Y-73800000D01*
X164421747Y-73715810D01*
X164469437Y-73644437D01*
X164540810Y-73596747D01*
X164625000Y-73580000D01*
X165650000Y-73580000D01*
X165734190Y-73596747D01*
G37*
G36*
X159201788Y-73735328D02*
G01*
X159224497Y-73750503D01*
X159239672Y-73773212D01*
X159245000Y-73800000D01*
X159245000Y-74200000D01*
X159239672Y-74226788D01*
X159224497Y-74249497D01*
X159201788Y-74264672D01*
X159175000Y-74270000D01*
X157825000Y-74270000D01*
X157798212Y-74264672D01*
X157775503Y-74249497D01*
X157760328Y-74226788D01*
X157755000Y-74200000D01*
X157755000Y-73800000D01*
X157760328Y-73773212D01*
X157775503Y-73750503D01*
X157798212Y-73735328D01*
X157825000Y-73730000D01*
X159175000Y-73730000D01*
X159201788Y-73735328D01*
G37*
G36*
X178025706Y-73815086D02*
G01*
X178068692Y-73843808D01*
X178097414Y-73886794D01*
X178107500Y-73937500D01*
X178107500Y-74062500D01*
X178097414Y-74113206D01*
X178068692Y-74156192D01*
X178025706Y-74184914D01*
X177975000Y-74195000D01*
X177275000Y-74195000D01*
X177224294Y-74184914D01*
X177181308Y-74156192D01*
X177152586Y-74113206D01*
X177142500Y-74062500D01*
X177142500Y-73937500D01*
X177152586Y-73886794D01*
X177181308Y-73843808D01*
X177224294Y-73815086D01*
X177275000Y-73805000D01*
X177975000Y-73805000D01*
X178025706Y-73815086D01*
G37*
G36*
X181900706Y-73815086D02*
G01*
X181943692Y-73843808D01*
X181972414Y-73886794D01*
X181982500Y-73937500D01*
X181982500Y-74062500D01*
X181972414Y-74113206D01*
X181943692Y-74156192D01*
X181900706Y-74184914D01*
X181850000Y-74195000D01*
X181150000Y-74195000D01*
X181099294Y-74184914D01*
X181056308Y-74156192D01*
X181027586Y-74113206D01*
X181017500Y-74062500D01*
X181017500Y-73937500D01*
X181027586Y-73886794D01*
X181056308Y-73843808D01*
X181099294Y-73815086D01*
X181150000Y-73805000D01*
X181850000Y-73805000D01*
X181900706Y-73815086D01*
G37*
G36*
X183995734Y-73376556D02*
G01*
X184066296Y-73423704D01*
X184113444Y-73494266D01*
X184130000Y-73577500D01*
X184130000Y-73922500D01*
X184113444Y-74005734D01*
X184066296Y-74076296D01*
X183995734Y-74123444D01*
X183912500Y-74140000D01*
X183617500Y-74140000D01*
X183534266Y-74123444D01*
X183463704Y-74076296D01*
X183416556Y-74005734D01*
X183400000Y-73922500D01*
X183400000Y-73577500D01*
X183416556Y-73494266D01*
X183463704Y-73423704D01*
X183534266Y-73376556D01*
X183617500Y-73360000D01*
X183912500Y-73360000D01*
X183995734Y-73376556D01*
G37*
G36*
X184965734Y-73376556D02*
G01*
X185036296Y-73423704D01*
X185083444Y-73494266D01*
X185100000Y-73577500D01*
X185100000Y-73922500D01*
X185083444Y-74005734D01*
X185036296Y-74076296D01*
X184965734Y-74123444D01*
X184882500Y-74140000D01*
X184587500Y-74140000D01*
X184504266Y-74123444D01*
X184433704Y-74076296D01*
X184386556Y-74005734D01*
X184370000Y-73922500D01*
X184370000Y-73577500D01*
X184386556Y-73494266D01*
X184433704Y-73423704D01*
X184504266Y-73376556D01*
X184587500Y-73360000D01*
X184882500Y-73360000D01*
X184965734Y-73376556D01*
G37*
G36*
X183005734Y-73416556D02*
G01*
X183076296Y-73463704D01*
X183123444Y-73534266D01*
X183140000Y-73617500D01*
X183140000Y-73912500D01*
X183123444Y-73995734D01*
X183076296Y-74066296D01*
X183005734Y-74113444D01*
X182922500Y-74130000D01*
X182577500Y-74130000D01*
X182494266Y-74113444D01*
X182423704Y-74066296D01*
X182376556Y-73995734D01*
X182360000Y-73912500D01*
X182360000Y-73617500D01*
X182376556Y-73534266D01*
X182423704Y-73463704D01*
X182494266Y-73416556D01*
X182577500Y-73400000D01*
X182922500Y-73400000D01*
X183005734Y-73416556D01*
G37*
G36*
X185990364Y-73385985D02*
G01*
X186058492Y-73431508D01*
X186104015Y-73499636D01*
X186120000Y-73580000D01*
X186120000Y-73920000D01*
X186104015Y-74000364D01*
X186058492Y-74068492D01*
X185990364Y-74114015D01*
X185910000Y-74130000D01*
X185630000Y-74130000D01*
X185549636Y-74114015D01*
X185481508Y-74068492D01*
X185435985Y-74000364D01*
X185420000Y-73920000D01*
X185420000Y-73580000D01*
X185435985Y-73499636D01*
X185481508Y-73431508D01*
X185549636Y-73385985D01*
X185630000Y-73370000D01*
X185910000Y-73370000D01*
X185990364Y-73385985D01*
G37*
G36*
X186950364Y-73385985D02*
G01*
X187018492Y-73431508D01*
X187064015Y-73499636D01*
X187080000Y-73580000D01*
X187080000Y-73920000D01*
X187064015Y-74000364D01*
X187018492Y-74068492D01*
X186950364Y-74114015D01*
X186870000Y-74130000D01*
X186590000Y-74130000D01*
X186509636Y-74114015D01*
X186441508Y-74068492D01*
X186395985Y-74000364D01*
X186380000Y-73920000D01*
X186380000Y-73580000D01*
X186395985Y-73499636D01*
X186441508Y-73431508D01*
X186509636Y-73385985D01*
X186590000Y-73370000D01*
X186870000Y-73370000D01*
X186950364Y-73385985D01*
G37*
G36*
X188000364Y-73395985D02*
G01*
X188068492Y-73441508D01*
X188114015Y-73509636D01*
X188130000Y-73590000D01*
X188130000Y-73870000D01*
X188114015Y-73950364D01*
X188068492Y-74018492D01*
X188000364Y-74064015D01*
X187920000Y-74080000D01*
X187580000Y-74080000D01*
X187499636Y-74064015D01*
X187431508Y-74018492D01*
X187385985Y-73950364D01*
X187370000Y-73870000D01*
X187370000Y-73590000D01*
X187385985Y-73509636D01*
X187431508Y-73441508D01*
X187499636Y-73395985D01*
X187580000Y-73380000D01*
X187920000Y-73380000D01*
X188000364Y-73395985D01*
G37*
G36*
X169650706Y-73565086D02*
G01*
X169693692Y-73593808D01*
X169722414Y-73636794D01*
X169732500Y-73687500D01*
X169732500Y-73812500D01*
X169722414Y-73863206D01*
X169693692Y-73906192D01*
X169650706Y-73934914D01*
X169600000Y-73945000D01*
X168850000Y-73945000D01*
X168799294Y-73934914D01*
X168756308Y-73906192D01*
X168727586Y-73863206D01*
X168717500Y-73812500D01*
X168717500Y-73687500D01*
X168727586Y-73636794D01*
X168756308Y-73593808D01*
X168799294Y-73565086D01*
X168850000Y-73555000D01*
X169600000Y-73555000D01*
X169650706Y-73565086D01*
G37*
G36*
X174525706Y-73565086D02*
G01*
X174568692Y-73593808D01*
X174597414Y-73636794D01*
X174607500Y-73687500D01*
X174607500Y-73812500D01*
X174597414Y-73863206D01*
X174568692Y-73906192D01*
X174525706Y-73934914D01*
X174475000Y-73945000D01*
X173725000Y-73945000D01*
X173674294Y-73934914D01*
X173631308Y-73906192D01*
X173602586Y-73863206D01*
X173592500Y-73812500D01*
X173592500Y-73687500D01*
X173602586Y-73636794D01*
X173631308Y-73593808D01*
X173674294Y-73565086D01*
X173725000Y-73555000D01*
X174475000Y-73555000D01*
X174525706Y-73565086D01*
G37*
G36*
X156776788Y-72185328D02*
G01*
X156799497Y-72200503D01*
X156814672Y-72223212D01*
X156820000Y-72250000D01*
X156820000Y-73750000D01*
X156814672Y-73776788D01*
X156799497Y-73799497D01*
X156776788Y-73814672D01*
X156750000Y-73820000D01*
X154850000Y-73820000D01*
X154823212Y-73814672D01*
X154800503Y-73799497D01*
X154785328Y-73776788D01*
X154780000Y-73750000D01*
X154780000Y-72250000D01*
X154785328Y-72223212D01*
X154800503Y-72200503D01*
X154823212Y-72185328D01*
X154850000Y-72180000D01*
X156750000Y-72180000D01*
X156776788Y-72185328D01*
G37*
G36*
X178025706Y-73315086D02*
G01*
X178068692Y-73343808D01*
X178097414Y-73386794D01*
X178107500Y-73437500D01*
X178107500Y-73562500D01*
X178097414Y-73613206D01*
X178068692Y-73656192D01*
X178025706Y-73684914D01*
X177975000Y-73695000D01*
X177275000Y-73695000D01*
X177224294Y-73684914D01*
X177181308Y-73656192D01*
X177152586Y-73613206D01*
X177142500Y-73562500D01*
X177142500Y-73437500D01*
X177152586Y-73386794D01*
X177181308Y-73343808D01*
X177224294Y-73315086D01*
X177275000Y-73305000D01*
X177975000Y-73305000D01*
X178025706Y-73315086D01*
G37*
G36*
X181900706Y-73315086D02*
G01*
X181943692Y-73343808D01*
X181972414Y-73386794D01*
X181982500Y-73437500D01*
X181982500Y-73562500D01*
X181972414Y-73613206D01*
X181943692Y-73656192D01*
X181900706Y-73684914D01*
X181850000Y-73695000D01*
X181150000Y-73695000D01*
X181099294Y-73684914D01*
X181056308Y-73656192D01*
X181027586Y-73613206D01*
X181017500Y-73562500D01*
X181017500Y-73437500D01*
X181027586Y-73386794D01*
X181056308Y-73343808D01*
X181099294Y-73315086D01*
X181150000Y-73305000D01*
X181850000Y-73305000D01*
X181900706Y-73315086D01*
G37*
G36*
X159201788Y-73085328D02*
G01*
X159224497Y-73100503D01*
X159239672Y-73123212D01*
X159245000Y-73150000D01*
X159245000Y-73550000D01*
X159239672Y-73576788D01*
X159224497Y-73599497D01*
X159201788Y-73614672D01*
X159175000Y-73620000D01*
X157825000Y-73620000D01*
X157798212Y-73614672D01*
X157775503Y-73599497D01*
X157760328Y-73576788D01*
X157755000Y-73550000D01*
X157755000Y-73150000D01*
X157760328Y-73123212D01*
X157775503Y-73100503D01*
X157798212Y-73085328D01*
X157825000Y-73080000D01*
X159175000Y-73080000D01*
X159201788Y-73085328D01*
G37*
G36*
X169650706Y-73065086D02*
G01*
X169693692Y-73093808D01*
X169722414Y-73136794D01*
X169732500Y-73187500D01*
X169732500Y-73312500D01*
X169722414Y-73363206D01*
X169693692Y-73406192D01*
X169650706Y-73434914D01*
X169600000Y-73445000D01*
X168850000Y-73445000D01*
X168799294Y-73434914D01*
X168756308Y-73406192D01*
X168727586Y-73363206D01*
X168717500Y-73312500D01*
X168717500Y-73187500D01*
X168727586Y-73136794D01*
X168756308Y-73093808D01*
X168799294Y-73065086D01*
X168850000Y-73055000D01*
X169600000Y-73055000D01*
X169650706Y-73065086D01*
G37*
G36*
X174525706Y-73065086D02*
G01*
X174568692Y-73093808D01*
X174597414Y-73136794D01*
X174607500Y-73187500D01*
X174607500Y-73312500D01*
X174597414Y-73363206D01*
X174568692Y-73406192D01*
X174525706Y-73434914D01*
X174475000Y-73445000D01*
X173725000Y-73445000D01*
X173674294Y-73434914D01*
X173631308Y-73406192D01*
X173602586Y-73363206D01*
X173592500Y-73312500D01*
X173592500Y-73187500D01*
X173602586Y-73136794D01*
X173631308Y-73093808D01*
X173674294Y-73065086D01*
X173725000Y-73055000D01*
X174475000Y-73055000D01*
X174525706Y-73065086D01*
G37*
G36*
X178025706Y-72815086D02*
G01*
X178068692Y-72843808D01*
X178097414Y-72886794D01*
X178107500Y-72937500D01*
X178107500Y-73062500D01*
X178097414Y-73113206D01*
X178068692Y-73156192D01*
X178025706Y-73184914D01*
X177975000Y-73195000D01*
X177275000Y-73195000D01*
X177224294Y-73184914D01*
X177181308Y-73156192D01*
X177152586Y-73113206D01*
X177142500Y-73062500D01*
X177142500Y-72937500D01*
X177152586Y-72886794D01*
X177181308Y-72843808D01*
X177224294Y-72815086D01*
X177275000Y-72805000D01*
X177975000Y-72805000D01*
X178025706Y-72815086D01*
G37*
G36*
X181900706Y-72815086D02*
G01*
X181943692Y-72843808D01*
X181972414Y-72886794D01*
X181982500Y-72937500D01*
X181982500Y-73062500D01*
X181972414Y-73113206D01*
X181943692Y-73156192D01*
X181900706Y-73184914D01*
X181850000Y-73195000D01*
X181150000Y-73195000D01*
X181099294Y-73184914D01*
X181056308Y-73156192D01*
X181027586Y-73113206D01*
X181017500Y-73062500D01*
X181017500Y-72937500D01*
X181027586Y-72886794D01*
X181056308Y-72843808D01*
X181099294Y-72815086D01*
X181150000Y-72805000D01*
X181850000Y-72805000D01*
X181900706Y-72815086D01*
G37*
G36*
X188000364Y-72435985D02*
G01*
X188068492Y-72481508D01*
X188114015Y-72549636D01*
X188130000Y-72630000D01*
X188130000Y-72910000D01*
X188114015Y-72990364D01*
X188068492Y-73058492D01*
X188000364Y-73104015D01*
X187920000Y-73120000D01*
X187580000Y-73120000D01*
X187499636Y-73104015D01*
X187431508Y-73058492D01*
X187385985Y-72990364D01*
X187370000Y-72910000D01*
X187370000Y-72630000D01*
X187385985Y-72549636D01*
X187431508Y-72481508D01*
X187499636Y-72435985D01*
X187580000Y-72420000D01*
X187920000Y-72420000D01*
X188000364Y-72435985D01*
G37*
G36*
X191647430Y-66904745D02*
G01*
X191650992Y-66905000D01*
X191690000Y-66905000D01*
X191720944Y-66915054D01*
X191721596Y-66915229D01*
X191724511Y-66915827D01*
X191840970Y-66932571D01*
X192060570Y-66997051D01*
X192268758Y-67092128D01*
X192461292Y-67215862D01*
X192634260Y-67365739D01*
X192770499Y-67522968D01*
X192784137Y-67538707D01*
X192907873Y-67731244D01*
X192950767Y-67825170D01*
X193002948Y-67939429D01*
X193028551Y-68026626D01*
X193067428Y-68159028D01*
X193074004Y-68204767D01*
X193099999Y-68385566D01*
X193099999Y-68468424D01*
X193105000Y-68500000D01*
X193105000Y-70000000D01*
X193094938Y-70030964D01*
X193089405Y-70051617D01*
X193087662Y-70053359D01*
X193084947Y-70061717D01*
X193064314Y-70076707D01*
X193051617Y-70089405D01*
X193044045Y-70091433D01*
X193032447Y-70099861D01*
X193000000Y-70105000D01*
X192993418Y-70105000D01*
X192406582Y-70105000D01*
X192400000Y-70105000D01*
X192369038Y-70094939D01*
X192348382Y-70089405D01*
X192346638Y-70087662D01*
X192338283Y-70084947D01*
X192323296Y-70064320D01*
X192310594Y-70051618D01*
X192308564Y-70044043D01*
X192300139Y-70032447D01*
X192295000Y-70000000D01*
X192295000Y-68500000D01*
X192297859Y-68491198D01*
X192293372Y-68386947D01*
X192255888Y-68233817D01*
X192189151Y-68090988D01*
X192095743Y-67963988D01*
X191979286Y-67857735D01*
X191979274Y-67857727D01*
X191844277Y-67776334D01*
X191844261Y-67776326D01*
X191695936Y-67722936D01*
X191576242Y-67705032D01*
X191575808Y-67705000D01*
X184134289Y-67705000D01*
X184105000Y-67734289D01*
X184105000Y-72900000D01*
X184094938Y-72930964D01*
X184089405Y-72951617D01*
X184087662Y-72953359D01*
X184084947Y-72961717D01*
X184064314Y-72976707D01*
X184051617Y-72989405D01*
X184044045Y-72991433D01*
X184032447Y-72999861D01*
X184000000Y-73005000D01*
X183993418Y-73005000D01*
X183406582Y-73005000D01*
X183400000Y-73005000D01*
X183369038Y-72994939D01*
X183348382Y-72989405D01*
X183346638Y-72987662D01*
X183338283Y-72984947D01*
X183323296Y-72964320D01*
X183310594Y-72951618D01*
X183308564Y-72944043D01*
X183300139Y-72932447D01*
X183295000Y-72900000D01*
X183295000Y-67010000D01*
X183305056Y-66979048D01*
X183310594Y-66958383D01*
X183312337Y-66956639D01*
X183315053Y-66948283D01*
X183335682Y-66933294D01*
X183348383Y-66920594D01*
X183355955Y-66918564D01*
X183367553Y-66910139D01*
X183400000Y-66905000D01*
X191461016Y-66905000D01*
X191466852Y-66903667D01*
X191473204Y-66900001D01*
X191499999Y-66900001D01*
X191614433Y-66900001D01*
X191647430Y-66904745D01*
G37*
G36*
X159201788Y-72435328D02*
G01*
X159224497Y-72450503D01*
X159239672Y-72473212D01*
X159245000Y-72500000D01*
X159245000Y-72900000D01*
X159239672Y-72926788D01*
X159224497Y-72949497D01*
X159201788Y-72964672D01*
X159175000Y-72970000D01*
X157825000Y-72970000D01*
X157798212Y-72964672D01*
X157775503Y-72949497D01*
X157760328Y-72926788D01*
X157755000Y-72900000D01*
X157755000Y-72500000D01*
X157760328Y-72473212D01*
X157775503Y-72450503D01*
X157798212Y-72435328D01*
X157825000Y-72430000D01*
X159175000Y-72430000D01*
X159201788Y-72435328D01*
G37*
G36*
X169650706Y-72565086D02*
G01*
X169693692Y-72593808D01*
X169722414Y-72636794D01*
X169732500Y-72687500D01*
X169732500Y-72812500D01*
X169722414Y-72863206D01*
X169693692Y-72906192D01*
X169650706Y-72934914D01*
X169600000Y-72945000D01*
X168850000Y-72945000D01*
X168799294Y-72934914D01*
X168756308Y-72906192D01*
X168727586Y-72863206D01*
X168717500Y-72812500D01*
X168717500Y-72687500D01*
X168727586Y-72636794D01*
X168756308Y-72593808D01*
X168799294Y-72565086D01*
X168850000Y-72555000D01*
X169600000Y-72555000D01*
X169650706Y-72565086D01*
G37*
G36*
X174525706Y-72565086D02*
G01*
X174568692Y-72593808D01*
X174597414Y-72636794D01*
X174607500Y-72687500D01*
X174607500Y-72812500D01*
X174597414Y-72863206D01*
X174568692Y-72906192D01*
X174525706Y-72934914D01*
X174475000Y-72945000D01*
X173725000Y-72945000D01*
X173674294Y-72934914D01*
X173631308Y-72906192D01*
X173602586Y-72863206D01*
X173592500Y-72812500D01*
X173592500Y-72687500D01*
X173602586Y-72636794D01*
X173631308Y-72593808D01*
X173674294Y-72565086D01*
X173725000Y-72555000D01*
X174475000Y-72555000D01*
X174525706Y-72565086D01*
G37*
G36*
X166567540Y-71737836D02*
G01*
X166572339Y-71739955D01*
X166575134Y-71740323D01*
X166610120Y-71756637D01*
X166666715Y-71781626D01*
X166743374Y-71858285D01*
X166768372Y-71914900D01*
X166784676Y-71949865D01*
X166785043Y-71952657D01*
X166787164Y-71957460D01*
X166795000Y-72025000D01*
X166795000Y-72475000D01*
X166787164Y-72542540D01*
X166785043Y-72547342D01*
X166784676Y-72550134D01*
X166768380Y-72585080D01*
X166743374Y-72641715D01*
X166666715Y-72718374D01*
X166610080Y-72743380D01*
X166575134Y-72759676D01*
X166572342Y-72760043D01*
X166567540Y-72762164D01*
X166500000Y-72770000D01*
X166000000Y-72770000D01*
X165932460Y-72762164D01*
X165927657Y-72760043D01*
X165924865Y-72759676D01*
X165889900Y-72743372D01*
X165833285Y-72718374D01*
X165756626Y-72641715D01*
X165731637Y-72585120D01*
X165715323Y-72550134D01*
X165714955Y-72547339D01*
X165712836Y-72542540D01*
X165705000Y-72475000D01*
X165705000Y-72025000D01*
X165712836Y-71957460D01*
X165714954Y-71952661D01*
X165715323Y-71949865D01*
X165731645Y-71914860D01*
X165756626Y-71858285D01*
X165833285Y-71781626D01*
X165889860Y-71756645D01*
X165924865Y-71740323D01*
X165927661Y-71739954D01*
X165932460Y-71737836D01*
X166000000Y-71730000D01*
X166500000Y-71730000D01*
X166567540Y-71737836D01*
G37*
G36*
X163034190Y-71309247D02*
G01*
X163105563Y-71356937D01*
X163153253Y-71428310D01*
X163170000Y-71512500D01*
X163170000Y-72537500D01*
X163153253Y-72621690D01*
X163105563Y-72693063D01*
X163034190Y-72740753D01*
X162950000Y-72757500D01*
X162650000Y-72757500D01*
X162565810Y-72740753D01*
X162494437Y-72693063D01*
X162446747Y-72621690D01*
X162430000Y-72537500D01*
X162430000Y-71512500D01*
X162446747Y-71428310D01*
X162494437Y-71356937D01*
X162565810Y-71309247D01*
X162650000Y-71292500D01*
X162950000Y-71292500D01*
X163034190Y-71309247D01*
G37*
G36*
X164934190Y-71309247D02*
G01*
X165005563Y-71356937D01*
X165053253Y-71428310D01*
X165070000Y-71512500D01*
X165070000Y-72537500D01*
X165053253Y-72621690D01*
X165005563Y-72693063D01*
X164934190Y-72740753D01*
X164850000Y-72757500D01*
X164550000Y-72757500D01*
X164465810Y-72740753D01*
X164394437Y-72693063D01*
X164346747Y-72621690D01*
X164330000Y-72537500D01*
X164330000Y-71512500D01*
X164346747Y-71428310D01*
X164394437Y-71356937D01*
X164465810Y-71309247D01*
X164550000Y-71292500D01*
X164850000Y-71292500D01*
X164934190Y-71309247D01*
G37*
G36*
X178675706Y-71590086D02*
G01*
X178718692Y-71618808D01*
X178747414Y-71661794D01*
X178757500Y-71712500D01*
X178757500Y-72412500D01*
X178747414Y-72463206D01*
X178718692Y-72506192D01*
X178675706Y-72534914D01*
X178625000Y-72545000D01*
X178500000Y-72545000D01*
X178449294Y-72534914D01*
X178406308Y-72506192D01*
X178377586Y-72463206D01*
X178367500Y-72412500D01*
X178367500Y-71712500D01*
X178377586Y-71661794D01*
X178406308Y-71618808D01*
X178449294Y-71590086D01*
X178500000Y-71580000D01*
X178625000Y-71580000D01*
X178675706Y-71590086D01*
G37*
G36*
X179175706Y-71590086D02*
G01*
X179218692Y-71618808D01*
X179247414Y-71661794D01*
X179257500Y-71712500D01*
X179257500Y-72412500D01*
X179247414Y-72463206D01*
X179218692Y-72506192D01*
X179175706Y-72534914D01*
X179125000Y-72545000D01*
X179000000Y-72545000D01*
X178949294Y-72534914D01*
X178906308Y-72506192D01*
X178877586Y-72463206D01*
X178867500Y-72412500D01*
X178867500Y-71712500D01*
X178877586Y-71661794D01*
X178906308Y-71618808D01*
X178949294Y-71590086D01*
X179000000Y-71580000D01*
X179125000Y-71580000D01*
X179175706Y-71590086D01*
G37*
G36*
X179675706Y-71590086D02*
G01*
X179718692Y-71618808D01*
X179747414Y-71661794D01*
X179757500Y-71712500D01*
X179757500Y-72412500D01*
X179747414Y-72463206D01*
X179718692Y-72506192D01*
X179675706Y-72534914D01*
X179625000Y-72545000D01*
X179500000Y-72545000D01*
X179449294Y-72534914D01*
X179406308Y-72506192D01*
X179377586Y-72463206D01*
X179367500Y-72412500D01*
X179367500Y-71712500D01*
X179377586Y-71661794D01*
X179406308Y-71618808D01*
X179449294Y-71590086D01*
X179500000Y-71580000D01*
X179625000Y-71580000D01*
X179675706Y-71590086D01*
G37*
G36*
X180175706Y-71590086D02*
G01*
X180218692Y-71618808D01*
X180247414Y-71661794D01*
X180257500Y-71712500D01*
X180257500Y-72412500D01*
X180247414Y-72463206D01*
X180218692Y-72506192D01*
X180175706Y-72534914D01*
X180125000Y-72545000D01*
X180000000Y-72545000D01*
X179949294Y-72534914D01*
X179906308Y-72506192D01*
X179877586Y-72463206D01*
X179867500Y-72412500D01*
X179867500Y-71712500D01*
X179877586Y-71661794D01*
X179906308Y-71618808D01*
X179949294Y-71590086D01*
X180000000Y-71580000D01*
X180125000Y-71580000D01*
X180175706Y-71590086D01*
G37*
G36*
X180675706Y-71590086D02*
G01*
X180718692Y-71618808D01*
X180747414Y-71661794D01*
X180757500Y-71712500D01*
X180757500Y-72412500D01*
X180747414Y-72463206D01*
X180718692Y-72506192D01*
X180675706Y-72534914D01*
X180625000Y-72545000D01*
X180500000Y-72545000D01*
X180449294Y-72534914D01*
X180406308Y-72506192D01*
X180377586Y-72463206D01*
X180367500Y-72412500D01*
X180367500Y-71712500D01*
X180377586Y-71661794D01*
X180406308Y-71618808D01*
X180449294Y-71590086D01*
X180500000Y-71580000D01*
X180625000Y-71580000D01*
X180675706Y-71590086D01*
G37*
G36*
X169650706Y-72065086D02*
G01*
X169693692Y-72093808D01*
X169722414Y-72136794D01*
X169732500Y-72187500D01*
X169732500Y-72312500D01*
X169722414Y-72363206D01*
X169693692Y-72406192D01*
X169650706Y-72434914D01*
X169600000Y-72445000D01*
X168850000Y-72445000D01*
X168799294Y-72434914D01*
X168756308Y-72406192D01*
X168727586Y-72363206D01*
X168717500Y-72312500D01*
X168717500Y-72187500D01*
X168727586Y-72136794D01*
X168756308Y-72093808D01*
X168799294Y-72065086D01*
X168850000Y-72055000D01*
X169600000Y-72055000D01*
X169650706Y-72065086D01*
G37*
G36*
X174525706Y-72065086D02*
G01*
X174568692Y-72093808D01*
X174597414Y-72136794D01*
X174607500Y-72187500D01*
X174607500Y-72312500D01*
X174597414Y-72363206D01*
X174568692Y-72406192D01*
X174525706Y-72434914D01*
X174475000Y-72445000D01*
X173725000Y-72445000D01*
X173674294Y-72434914D01*
X173631308Y-72406192D01*
X173602586Y-72363206D01*
X173592500Y-72312500D01*
X173592500Y-72187500D01*
X173602586Y-72136794D01*
X173631308Y-72093808D01*
X173674294Y-72065086D01*
X173725000Y-72055000D01*
X174475000Y-72055000D01*
X174525706Y-72065086D01*
G37*
G36*
X158541084Y-70709629D02*
G01*
X158583073Y-70709629D01*
X158630438Y-70719696D01*
X158676904Y-70724932D01*
X158710690Y-70736754D01*
X158745583Y-70744171D01*
X158795872Y-70766560D01*
X158844938Y-70783730D01*
X158870475Y-70799776D01*
X158897360Y-70811746D01*
X158947492Y-70848169D01*
X158995674Y-70878444D01*
X159012976Y-70895746D01*
X159031773Y-70909403D01*
X159078243Y-70961013D01*
X159121556Y-71004326D01*
X159131518Y-71020181D01*
X159142949Y-71032876D01*
X159182048Y-71100598D01*
X159216270Y-71155062D01*
X159220543Y-71167275D01*
X159226015Y-71176752D01*
X159254030Y-71262975D01*
X159275068Y-71323096D01*
X159275865Y-71330176D01*
X159277358Y-71334769D01*
X159290892Y-71463539D01*
X159295000Y-71500000D01*
X159290891Y-71536463D01*
X159277358Y-71665230D01*
X159275865Y-71669822D01*
X159275068Y-71676904D01*
X159254026Y-71737037D01*
X159226015Y-71823247D01*
X159220544Y-71832722D01*
X159216270Y-71844938D01*
X159182041Y-71899412D01*
X159142949Y-71967123D01*
X159131520Y-71979815D01*
X159121556Y-71995674D01*
X159078234Y-72038995D01*
X159031773Y-72090596D01*
X159012980Y-72104249D01*
X158995674Y-72121556D01*
X158947482Y-72151837D01*
X158897360Y-72188253D01*
X158870481Y-72200220D01*
X158844938Y-72216270D01*
X158795861Y-72233442D01*
X158745583Y-72255828D01*
X158710696Y-72263243D01*
X158676904Y-72275068D01*
X158630435Y-72280303D01*
X158583073Y-72290371D01*
X158541084Y-72290371D01*
X158500000Y-72295000D01*
X158458916Y-72290371D01*
X158416927Y-72290371D01*
X158369563Y-72280303D01*
X158323096Y-72275068D01*
X158289304Y-72263243D01*
X158254416Y-72255828D01*
X158204133Y-72233441D01*
X158155062Y-72216270D01*
X158129521Y-72200221D01*
X158102639Y-72188253D01*
X158052510Y-72151832D01*
X158004326Y-72121556D01*
X157987022Y-72104252D01*
X157968226Y-72090596D01*
X157921755Y-72038985D01*
X157878444Y-71995674D01*
X157868481Y-71979819D01*
X157857050Y-71967123D01*
X157817946Y-71899393D01*
X157783730Y-71844938D01*
X157779457Y-71832726D01*
X157773984Y-71823247D01*
X157745959Y-71736997D01*
X157724932Y-71676904D01*
X157724134Y-71669826D01*
X157722641Y-71665230D01*
X157709093Y-71536330D01*
X157705000Y-71500000D01*
X157709093Y-71463672D01*
X157722641Y-71334769D01*
X157724134Y-71330171D01*
X157724932Y-71323096D01*
X157745955Y-71263015D01*
X157773984Y-71176752D01*
X157779457Y-71167270D01*
X157783730Y-71155062D01*
X157817939Y-71100618D01*
X157857050Y-71032876D01*
X157868483Y-71020177D01*
X157878444Y-71004326D01*
X157921746Y-70961023D01*
X157968226Y-70909403D01*
X157987025Y-70895744D01*
X158004326Y-70878444D01*
X158052504Y-70848171D01*
X158102640Y-70811746D01*
X158129524Y-70799776D01*
X158155062Y-70783730D01*
X158204124Y-70766562D01*
X158254416Y-70744171D01*
X158289310Y-70736754D01*
X158323096Y-70724932D01*
X158369560Y-70719696D01*
X158416927Y-70709629D01*
X158458916Y-70709629D01*
X158500000Y-70705000D01*
X158541084Y-70709629D01*
G37*
G36*
X161567540Y-71162836D02*
G01*
X161572339Y-71164955D01*
X161575134Y-71165323D01*
X161610120Y-71181637D01*
X161666715Y-71206626D01*
X161743374Y-71283285D01*
X161768372Y-71339900D01*
X161784676Y-71374865D01*
X161785043Y-71377657D01*
X161787164Y-71382460D01*
X161795000Y-71450000D01*
X161795000Y-71900000D01*
X161787164Y-71967540D01*
X161785043Y-71972342D01*
X161784676Y-71975134D01*
X161768380Y-72010080D01*
X161743374Y-72066715D01*
X161666715Y-72143374D01*
X161610080Y-72168380D01*
X161575134Y-72184676D01*
X161572342Y-72185043D01*
X161567540Y-72187164D01*
X161500000Y-72195000D01*
X161000000Y-72195000D01*
X160932460Y-72187164D01*
X160927657Y-72185043D01*
X160924865Y-72184676D01*
X160889900Y-72168372D01*
X160833285Y-72143374D01*
X160756626Y-72066715D01*
X160731637Y-72010120D01*
X160715323Y-71975134D01*
X160714955Y-71972339D01*
X160712836Y-71967540D01*
X160705000Y-71900000D01*
X160705000Y-71450000D01*
X160712836Y-71382460D01*
X160714954Y-71377661D01*
X160715323Y-71374865D01*
X160731645Y-71339860D01*
X160756626Y-71283285D01*
X160833285Y-71206626D01*
X160889860Y-71181645D01*
X160924865Y-71165323D01*
X160927661Y-71164954D01*
X160932460Y-71162836D01*
X161000000Y-71155000D01*
X161500000Y-71155000D01*
X161567540Y-71162836D01*
G37*
G36*
X170025706Y-71065086D02*
G01*
X170068692Y-71093808D01*
X170097414Y-71136794D01*
X170107500Y-71187500D01*
X170107500Y-71937500D01*
X170097414Y-71988206D01*
X170068692Y-72031192D01*
X170025706Y-72059914D01*
X169975000Y-72070000D01*
X169850000Y-72070000D01*
X169799294Y-72059914D01*
X169756308Y-72031192D01*
X169727586Y-71988206D01*
X169717500Y-71937500D01*
X169717500Y-71187500D01*
X169727586Y-71136794D01*
X169756308Y-71093808D01*
X169799294Y-71065086D01*
X169850000Y-71055000D01*
X169975000Y-71055000D01*
X170025706Y-71065086D01*
G37*
G36*
X170525706Y-71065086D02*
G01*
X170568692Y-71093808D01*
X170597414Y-71136794D01*
X170607500Y-71187500D01*
X170607500Y-71937500D01*
X170597414Y-71988206D01*
X170568692Y-72031192D01*
X170525706Y-72059914D01*
X170475000Y-72070000D01*
X170350000Y-72070000D01*
X170299294Y-72059914D01*
X170256308Y-72031192D01*
X170227586Y-71988206D01*
X170217500Y-71937500D01*
X170217500Y-71187500D01*
X170227586Y-71136794D01*
X170256308Y-71093808D01*
X170299294Y-71065086D01*
X170350000Y-71055000D01*
X170475000Y-71055000D01*
X170525706Y-71065086D01*
G37*
G36*
X171025706Y-71065086D02*
G01*
X171068692Y-71093808D01*
X171097414Y-71136794D01*
X171107500Y-71187500D01*
X171107500Y-71937500D01*
X171097414Y-71988206D01*
X171068692Y-72031192D01*
X171025706Y-72059914D01*
X170975000Y-72070000D01*
X170850000Y-72070000D01*
X170799294Y-72059914D01*
X170756308Y-72031192D01*
X170727586Y-71988206D01*
X170717500Y-71937500D01*
X170717500Y-71187500D01*
X170727586Y-71136794D01*
X170756308Y-71093808D01*
X170799294Y-71065086D01*
X170850000Y-71055000D01*
X170975000Y-71055000D01*
X171025706Y-71065086D01*
G37*
G36*
X171525706Y-71065086D02*
G01*
X171568692Y-71093808D01*
X171597414Y-71136794D01*
X171607500Y-71187500D01*
X171607500Y-71937500D01*
X171597414Y-71988206D01*
X171568692Y-72031192D01*
X171525706Y-72059914D01*
X171475000Y-72070000D01*
X171350000Y-72070000D01*
X171299294Y-72059914D01*
X171256308Y-72031192D01*
X171227586Y-71988206D01*
X171217500Y-71937500D01*
X171217500Y-71187500D01*
X171227586Y-71136794D01*
X171256308Y-71093808D01*
X171299294Y-71065086D01*
X171350000Y-71055000D01*
X171475000Y-71055000D01*
X171525706Y-71065086D01*
G37*
G36*
X172025706Y-71065086D02*
G01*
X172068692Y-71093808D01*
X172097414Y-71136794D01*
X172107500Y-71187500D01*
X172107500Y-71937500D01*
X172097414Y-71988206D01*
X172068692Y-72031192D01*
X172025706Y-72059914D01*
X171975000Y-72070000D01*
X171850000Y-72070000D01*
X171799294Y-72059914D01*
X171756308Y-72031192D01*
X171727586Y-71988206D01*
X171717500Y-71937500D01*
X171717500Y-71187500D01*
X171727586Y-71136794D01*
X171756308Y-71093808D01*
X171799294Y-71065086D01*
X171850000Y-71055000D01*
X171975000Y-71055000D01*
X172025706Y-71065086D01*
G37*
G36*
X172525706Y-71065086D02*
G01*
X172568692Y-71093808D01*
X172597414Y-71136794D01*
X172607500Y-71187500D01*
X172607500Y-71937500D01*
X172597414Y-71988206D01*
X172568692Y-72031192D01*
X172525706Y-72059914D01*
X172475000Y-72070000D01*
X172350000Y-72070000D01*
X172299294Y-72059914D01*
X172256308Y-72031192D01*
X172227586Y-71988206D01*
X172217500Y-71937500D01*
X172217500Y-71187500D01*
X172227586Y-71136794D01*
X172256308Y-71093808D01*
X172299294Y-71065086D01*
X172350000Y-71055000D01*
X172475000Y-71055000D01*
X172525706Y-71065086D01*
G37*
G36*
X173025706Y-71065086D02*
G01*
X173068692Y-71093808D01*
X173097414Y-71136794D01*
X173107500Y-71187500D01*
X173107500Y-71937500D01*
X173097414Y-71988206D01*
X173068692Y-72031192D01*
X173025706Y-72059914D01*
X172975000Y-72070000D01*
X172850000Y-72070000D01*
X172799294Y-72059914D01*
X172756308Y-72031192D01*
X172727586Y-71988206D01*
X172717500Y-71937500D01*
X172717500Y-71187500D01*
X172727586Y-71136794D01*
X172756308Y-71093808D01*
X172799294Y-71065086D01*
X172850000Y-71055000D01*
X172975000Y-71055000D01*
X173025706Y-71065086D01*
G37*
G36*
X173525706Y-71065086D02*
G01*
X173568692Y-71093808D01*
X173597414Y-71136794D01*
X173607500Y-71187500D01*
X173607500Y-71937500D01*
X173597414Y-71988206D01*
X173568692Y-72031192D01*
X173525706Y-72059914D01*
X173475000Y-72070000D01*
X173350000Y-72070000D01*
X173299294Y-72059914D01*
X173256308Y-72031192D01*
X173227586Y-71988206D01*
X173217500Y-71937500D01*
X173217500Y-71187500D01*
X173227586Y-71136794D01*
X173256308Y-71093808D01*
X173299294Y-71065086D01*
X173350000Y-71055000D01*
X173475000Y-71055000D01*
X173525706Y-71065086D01*
G37*
G36*
X193001534Y-70405764D02*
G01*
X193034625Y-70427875D01*
X193056736Y-70460966D01*
X193064500Y-70500000D01*
X193064500Y-71850000D01*
X193056736Y-71889034D01*
X193034625Y-71922125D01*
X193001534Y-71944236D01*
X192962500Y-71952000D01*
X188762500Y-71952000D01*
X188723466Y-71944236D01*
X188690375Y-71922125D01*
X188668264Y-71889034D01*
X188660500Y-71850000D01*
X188660500Y-70500000D01*
X188668264Y-70460966D01*
X188690375Y-70427875D01*
X188723466Y-70405764D01*
X188762500Y-70398000D01*
X192962500Y-70398000D01*
X193001534Y-70405764D01*
G37*
G36*
X156215671Y-69833226D02*
G01*
X156344491Y-69858850D01*
X156465836Y-69909113D01*
X156575044Y-69982083D01*
X156667917Y-70074956D01*
X156740887Y-70184164D01*
X156791150Y-70305509D01*
X156816774Y-70434329D01*
X156816774Y-70483780D01*
X156820000Y-70500000D01*
X156820000Y-71700000D01*
X156814672Y-71726788D01*
X156799497Y-71749497D01*
X156776788Y-71764672D01*
X156750000Y-71770000D01*
X154850000Y-71770000D01*
X154823212Y-71764672D01*
X154800503Y-71749497D01*
X154785328Y-71726788D01*
X154780000Y-71700000D01*
X154780000Y-70500000D01*
X154783226Y-70483780D01*
X154783226Y-70434329D01*
X154808850Y-70305509D01*
X154859113Y-70184164D01*
X154932083Y-70074956D01*
X155024956Y-69982083D01*
X155134164Y-69909113D01*
X155255509Y-69858850D01*
X155384329Y-69833226D01*
X155450000Y-69830000D01*
X156150000Y-69830000D01*
X156215671Y-69833226D01*
G37*
G36*
X166567540Y-70187836D02*
G01*
X166572339Y-70189955D01*
X166575134Y-70190323D01*
X166610120Y-70206637D01*
X166666715Y-70231626D01*
X166743374Y-70308285D01*
X166768372Y-70364900D01*
X166784676Y-70399865D01*
X166785043Y-70402657D01*
X166787164Y-70407460D01*
X166795000Y-70475000D01*
X166795000Y-70925000D01*
X166787164Y-70992540D01*
X166785043Y-70997342D01*
X166784676Y-71000134D01*
X166768380Y-71035080D01*
X166743374Y-71091715D01*
X166666715Y-71168374D01*
X166610080Y-71193380D01*
X166575134Y-71209676D01*
X166572342Y-71210043D01*
X166567540Y-71212164D01*
X166500000Y-71220000D01*
X166000000Y-71220000D01*
X165932460Y-71212164D01*
X165927657Y-71210043D01*
X165924865Y-71209676D01*
X165889900Y-71193372D01*
X165833285Y-71168374D01*
X165756626Y-71091715D01*
X165731637Y-71035120D01*
X165715323Y-71000134D01*
X165714955Y-70997339D01*
X165712836Y-70992540D01*
X165705000Y-70925000D01*
X165705000Y-70475000D01*
X165712836Y-70407460D01*
X165714954Y-70402661D01*
X165715323Y-70399865D01*
X165731645Y-70364860D01*
X165756626Y-70308285D01*
X165833285Y-70231626D01*
X165889860Y-70206645D01*
X165924865Y-70190323D01*
X165927661Y-70189954D01*
X165932460Y-70187836D01*
X166000000Y-70180000D01*
X166500000Y-70180000D01*
X166567540Y-70187836D01*
G37*
G36*
X177185364Y-70155985D02*
G01*
X177253492Y-70201508D01*
X177299015Y-70269636D01*
X177315000Y-70350000D01*
X177315000Y-70690000D01*
X177299015Y-70770364D01*
X177253492Y-70838492D01*
X177185364Y-70884015D01*
X177105000Y-70900000D01*
X176825000Y-70900000D01*
X176744636Y-70884015D01*
X176676508Y-70838492D01*
X176630985Y-70770364D01*
X176615000Y-70690000D01*
X176615000Y-70350000D01*
X176630985Y-70269636D01*
X176676508Y-70201508D01*
X176744636Y-70155985D01*
X176825000Y-70140000D01*
X177105000Y-70140000D01*
X177185364Y-70155985D01*
G37*
G36*
X178145364Y-70155985D02*
G01*
X178213492Y-70201508D01*
X178259015Y-70269636D01*
X178275000Y-70350000D01*
X178275000Y-70690000D01*
X178259015Y-70770364D01*
X178213492Y-70838492D01*
X178145364Y-70884015D01*
X178065000Y-70900000D01*
X177785000Y-70900000D01*
X177704636Y-70884015D01*
X177636508Y-70838492D01*
X177590985Y-70770364D01*
X177575000Y-70690000D01*
X177575000Y-70350000D01*
X177590985Y-70269636D01*
X177636508Y-70201508D01*
X177704636Y-70155985D01*
X177785000Y-70140000D01*
X178065000Y-70140000D01*
X178145364Y-70155985D01*
G37*
G36*
X179185364Y-70155985D02*
G01*
X179253492Y-70201508D01*
X179299015Y-70269636D01*
X179315000Y-70350000D01*
X179315000Y-70690000D01*
X179299015Y-70770364D01*
X179253492Y-70838492D01*
X179185364Y-70884015D01*
X179105000Y-70900000D01*
X178825000Y-70900000D01*
X178744636Y-70884015D01*
X178676508Y-70838492D01*
X178630985Y-70770364D01*
X178615000Y-70690000D01*
X178615000Y-70350000D01*
X178630985Y-70269636D01*
X178676508Y-70201508D01*
X178744636Y-70155985D01*
X178825000Y-70140000D01*
X179105000Y-70140000D01*
X179185364Y-70155985D01*
G37*
G36*
X180145364Y-70155985D02*
G01*
X180213492Y-70201508D01*
X180259015Y-70269636D01*
X180275000Y-70350000D01*
X180275000Y-70690000D01*
X180259015Y-70770364D01*
X180213492Y-70838492D01*
X180145364Y-70884015D01*
X180065000Y-70900000D01*
X179785000Y-70900000D01*
X179704636Y-70884015D01*
X179636508Y-70838492D01*
X179590985Y-70770364D01*
X179575000Y-70690000D01*
X179575000Y-70350000D01*
X179590985Y-70269636D01*
X179636508Y-70201508D01*
X179704636Y-70155985D01*
X179785000Y-70140000D01*
X180065000Y-70140000D01*
X180145364Y-70155985D01*
G37*
G36*
X181363450Y-70205605D02*
G01*
X181429957Y-70250043D01*
X181474395Y-70316550D01*
X181490000Y-70395000D01*
X181490000Y-70665000D01*
X181474395Y-70743450D01*
X181429957Y-70809957D01*
X181363450Y-70854395D01*
X181285000Y-70870000D01*
X180915000Y-70870000D01*
X180836550Y-70854395D01*
X180770043Y-70809957D01*
X180725605Y-70743450D01*
X180710000Y-70665000D01*
X180710000Y-70395000D01*
X180725605Y-70316550D01*
X180770043Y-70250043D01*
X180836550Y-70205605D01*
X180915000Y-70190000D01*
X181285000Y-70190000D01*
X181363450Y-70205605D01*
G37*
G36*
X182550364Y-70165985D02*
G01*
X182618492Y-70211508D01*
X182664015Y-70279636D01*
X182680000Y-70360000D01*
X182680000Y-70640000D01*
X182664015Y-70720364D01*
X182618492Y-70788492D01*
X182550364Y-70834015D01*
X182470000Y-70850000D01*
X182130000Y-70850000D01*
X182049636Y-70834015D01*
X181981508Y-70788492D01*
X181935985Y-70720364D01*
X181920000Y-70640000D01*
X181920000Y-70360000D01*
X181935985Y-70279636D01*
X181981508Y-70211508D01*
X182049636Y-70165985D01*
X182130000Y-70150000D01*
X182470000Y-70150000D01*
X182550364Y-70165985D01*
G37*
G36*
X161567540Y-69612836D02*
G01*
X161572339Y-69614955D01*
X161575134Y-69615323D01*
X161610120Y-69631637D01*
X161666715Y-69656626D01*
X161743374Y-69733285D01*
X161768372Y-69789900D01*
X161784676Y-69824865D01*
X161785043Y-69827657D01*
X161787164Y-69832460D01*
X161795000Y-69900000D01*
X161795000Y-70350000D01*
X161787164Y-70417540D01*
X161785043Y-70422342D01*
X161784676Y-70425134D01*
X161768380Y-70460080D01*
X161743374Y-70516715D01*
X161666715Y-70593374D01*
X161610080Y-70618380D01*
X161575134Y-70634676D01*
X161572342Y-70635043D01*
X161567540Y-70637164D01*
X161500000Y-70645000D01*
X161000000Y-70645000D01*
X160932460Y-70637164D01*
X160927657Y-70635043D01*
X160924865Y-70634676D01*
X160889900Y-70618372D01*
X160833285Y-70593374D01*
X160756626Y-70516715D01*
X160731637Y-70460120D01*
X160715323Y-70425134D01*
X160714955Y-70422339D01*
X160712836Y-70417540D01*
X160705000Y-70350000D01*
X160705000Y-69900000D01*
X160712836Y-69832460D01*
X160714954Y-69827661D01*
X160715323Y-69824865D01*
X160731645Y-69789860D01*
X160756626Y-69733285D01*
X160833285Y-69656626D01*
X160889860Y-69631645D01*
X160924865Y-69615323D01*
X160927661Y-69614954D01*
X160932460Y-69612836D01*
X161000000Y-69605000D01*
X161500000Y-69605000D01*
X161567540Y-69612836D01*
G37*
G36*
X175563450Y-69885605D02*
G01*
X175629957Y-69930043D01*
X175674395Y-69996550D01*
X175690000Y-70075000D01*
X175690000Y-70345000D01*
X175674395Y-70423450D01*
X175629957Y-70489957D01*
X175563450Y-70534395D01*
X175485000Y-70550000D01*
X175115000Y-70550000D01*
X175036550Y-70534395D01*
X174970043Y-70489957D01*
X174925605Y-70423450D01*
X174910000Y-70345000D01*
X174910000Y-70075000D01*
X174925605Y-69996550D01*
X174970043Y-69930043D01*
X175036550Y-69885605D01*
X175115000Y-69870000D01*
X175485000Y-69870000D01*
X175563450Y-69885605D01*
G37*
G36*
X173500364Y-69845985D02*
G01*
X173568492Y-69891508D01*
X173614015Y-69959636D01*
X173630000Y-70040000D01*
X173630000Y-70320000D01*
X173614015Y-70400364D01*
X173568492Y-70468492D01*
X173500364Y-70514015D01*
X173420000Y-70530000D01*
X173080000Y-70530000D01*
X172999636Y-70514015D01*
X172931508Y-70468492D01*
X172885985Y-70400364D01*
X172870000Y-70320000D01*
X172870000Y-70040000D01*
X172885985Y-69959636D01*
X172931508Y-69891508D01*
X172999636Y-69845985D01*
X173080000Y-69830000D01*
X173420000Y-69830000D01*
X173500364Y-69845985D01*
G37*
G36*
X174500364Y-69845985D02*
G01*
X174568492Y-69891508D01*
X174614015Y-69959636D01*
X174630000Y-70040000D01*
X174630000Y-70320000D01*
X174614015Y-70400364D01*
X174568492Y-70468492D01*
X174500364Y-70514015D01*
X174420000Y-70530000D01*
X174080000Y-70530000D01*
X173999636Y-70514015D01*
X173931508Y-70468492D01*
X173885985Y-70400364D01*
X173870000Y-70320000D01*
X173870000Y-70040000D01*
X173885985Y-69959636D01*
X173931508Y-69891508D01*
X173999636Y-69845985D01*
X174080000Y-69830000D01*
X174420000Y-69830000D01*
X174500364Y-69845985D01*
G37*
G36*
X163984190Y-69034247D02*
G01*
X164055563Y-69081937D01*
X164103253Y-69153310D01*
X164120000Y-69237500D01*
X164120000Y-70262500D01*
X164103253Y-70346690D01*
X164055563Y-70418063D01*
X163984190Y-70465753D01*
X163900000Y-70482500D01*
X163600000Y-70482500D01*
X163515810Y-70465753D01*
X163444437Y-70418063D01*
X163396747Y-70346690D01*
X163380000Y-70262500D01*
X163380000Y-69237500D01*
X163396747Y-69153310D01*
X163444437Y-69081937D01*
X163515810Y-69034247D01*
X163600000Y-69017500D01*
X163900000Y-69017500D01*
X163984190Y-69034247D01*
G37*
G36*
X168522359Y-69400170D02*
G01*
X168527085Y-69402256D01*
X168529767Y-69402610D01*
X168563319Y-69418255D01*
X168619433Y-69443032D01*
X168694468Y-69518067D01*
X168719253Y-69574202D01*
X168734889Y-69607732D01*
X168735241Y-69610411D01*
X168737330Y-69615141D01*
X168745000Y-69681250D01*
X168745000Y-70118750D01*
X168737330Y-70184859D01*
X168735241Y-70189588D01*
X168734889Y-70192267D01*
X168719262Y-70225778D01*
X168694468Y-70281933D01*
X168619433Y-70356968D01*
X168563278Y-70381762D01*
X168529767Y-70397389D01*
X168527088Y-70397741D01*
X168522359Y-70399830D01*
X168456250Y-70407500D01*
X167943750Y-70407500D01*
X167877641Y-70399830D01*
X167872911Y-70397741D01*
X167870232Y-70397389D01*
X167836702Y-70381753D01*
X167780567Y-70356968D01*
X167705532Y-70281933D01*
X167680755Y-70225819D01*
X167665110Y-70192267D01*
X167664756Y-70189585D01*
X167662670Y-70184859D01*
X167655000Y-70118750D01*
X167655000Y-69681250D01*
X167662670Y-69615141D01*
X167664756Y-69610414D01*
X167665110Y-69607732D01*
X167680763Y-69574161D01*
X167705532Y-69518067D01*
X167780567Y-69443032D01*
X167836661Y-69418263D01*
X167870232Y-69402610D01*
X167872914Y-69402256D01*
X167877641Y-69400170D01*
X167943750Y-69392500D01*
X168456250Y-69392500D01*
X168522359Y-69400170D01*
G37*
G36*
X170222359Y-69400170D02*
G01*
X170227085Y-69402256D01*
X170229767Y-69402610D01*
X170263319Y-69418255D01*
X170319433Y-69443032D01*
X170394468Y-69518067D01*
X170419253Y-69574202D01*
X170434889Y-69607732D01*
X170435241Y-69610411D01*
X170437330Y-69615141D01*
X170445000Y-69681250D01*
X170445000Y-70118750D01*
X170437330Y-70184859D01*
X170435241Y-70189588D01*
X170434889Y-70192267D01*
X170419262Y-70225778D01*
X170394468Y-70281933D01*
X170319433Y-70356968D01*
X170263278Y-70381762D01*
X170229767Y-70397389D01*
X170227088Y-70397741D01*
X170222359Y-70399830D01*
X170156250Y-70407500D01*
X169643750Y-70407500D01*
X169577641Y-70399830D01*
X169572911Y-70397741D01*
X169570232Y-70397389D01*
X169536702Y-70381753D01*
X169480567Y-70356968D01*
X169405532Y-70281933D01*
X169380755Y-70225819D01*
X169365110Y-70192267D01*
X169364756Y-70189585D01*
X169362670Y-70184859D01*
X169355000Y-70118750D01*
X169355000Y-69681250D01*
X169362670Y-69615141D01*
X169364756Y-69610414D01*
X169365110Y-69607732D01*
X169380763Y-69574161D01*
X169405532Y-69518067D01*
X169480567Y-69443032D01*
X169536661Y-69418263D01*
X169570232Y-69402610D01*
X169572914Y-69402256D01*
X169577641Y-69400170D01*
X169643750Y-69392500D01*
X170156250Y-69392500D01*
X170222359Y-69400170D01*
G37*
G36*
X171550364Y-69645985D02*
G01*
X171618492Y-69691508D01*
X171664015Y-69759636D01*
X171680000Y-69840000D01*
X171680000Y-70120000D01*
X171664015Y-70200364D01*
X171618492Y-70268492D01*
X171550364Y-70314015D01*
X171470000Y-70330000D01*
X171130000Y-70330000D01*
X171049636Y-70314015D01*
X170981508Y-70268492D01*
X170935985Y-70200364D01*
X170920000Y-70120000D01*
X170920000Y-69840000D01*
X170935985Y-69759636D01*
X170981508Y-69691508D01*
X171049636Y-69645985D01*
X171130000Y-69630000D01*
X171470000Y-69630000D01*
X171550364Y-69645985D01*
G37*
G36*
X182550364Y-69205985D02*
G01*
X182618492Y-69251508D01*
X182664015Y-69319636D01*
X182680000Y-69400000D01*
X182680000Y-69680000D01*
X182664015Y-69760364D01*
X182618492Y-69828492D01*
X182550364Y-69874015D01*
X182470000Y-69890000D01*
X182130000Y-69890000D01*
X182049636Y-69874015D01*
X181981508Y-69828492D01*
X181935985Y-69760364D01*
X181920000Y-69680000D01*
X181920000Y-69400000D01*
X181935985Y-69319636D01*
X181981508Y-69251508D01*
X182049636Y-69205985D01*
X182130000Y-69190000D01*
X182470000Y-69190000D01*
X182550364Y-69205985D01*
G37*
G36*
X181363450Y-69185605D02*
G01*
X181429957Y-69230043D01*
X181474395Y-69296550D01*
X181490000Y-69375000D01*
X181490000Y-69645000D01*
X181474395Y-69723450D01*
X181429957Y-69789957D01*
X181363450Y-69834395D01*
X181285000Y-69850000D01*
X180915000Y-69850000D01*
X180836550Y-69834395D01*
X180770043Y-69789957D01*
X180725605Y-69723450D01*
X180710000Y-69645000D01*
X180710000Y-69375000D01*
X180725605Y-69296550D01*
X180770043Y-69230043D01*
X180836550Y-69185605D01*
X180915000Y-69170000D01*
X181285000Y-69170000D01*
X181363450Y-69185605D01*
G37*
G36*
X173500364Y-68885985D02*
G01*
X173568492Y-68931508D01*
X173614015Y-68999636D01*
X173630000Y-69080000D01*
X173630000Y-69360000D01*
X173614015Y-69440364D01*
X173568492Y-69508492D01*
X173500364Y-69554015D01*
X173420000Y-69570000D01*
X173080000Y-69570000D01*
X172999636Y-69554015D01*
X172931508Y-69508492D01*
X172885985Y-69440364D01*
X172870000Y-69360000D01*
X172870000Y-69080000D01*
X172885985Y-68999636D01*
X172931508Y-68931508D01*
X172999636Y-68885985D01*
X173080000Y-68870000D01*
X173420000Y-68870000D01*
X173500364Y-68885985D01*
G37*
G36*
X174500364Y-68885985D02*
G01*
X174568492Y-68931508D01*
X174614015Y-68999636D01*
X174630000Y-69080000D01*
X174630000Y-69360000D01*
X174614015Y-69440364D01*
X174568492Y-69508492D01*
X174500364Y-69554015D01*
X174420000Y-69570000D01*
X174080000Y-69570000D01*
X173999636Y-69554015D01*
X173931508Y-69508492D01*
X173885985Y-69440364D01*
X173870000Y-69360000D01*
X173870000Y-69080000D01*
X173885985Y-68999636D01*
X173931508Y-68931508D01*
X173999636Y-68885985D01*
X174080000Y-68870000D01*
X174420000Y-68870000D01*
X174500364Y-68885985D01*
G37*
G36*
X175563450Y-68865605D02*
G01*
X175629957Y-68910043D01*
X175674395Y-68976550D01*
X175690000Y-69055000D01*
X175690000Y-69325000D01*
X175674395Y-69403450D01*
X175629957Y-69469957D01*
X175563450Y-69514395D01*
X175485000Y-69530000D01*
X175115000Y-69530000D01*
X175036550Y-69514395D01*
X174970043Y-69469957D01*
X174925605Y-69403450D01*
X174910000Y-69325000D01*
X174910000Y-69055000D01*
X174925605Y-68976550D01*
X174970043Y-68910043D01*
X175036550Y-68865605D01*
X175115000Y-68850000D01*
X175485000Y-68850000D01*
X175563450Y-68865605D01*
G37*
G36*
X171550364Y-68685985D02*
G01*
X171618492Y-68731508D01*
X171664015Y-68799636D01*
X171680000Y-68880000D01*
X171680000Y-69160000D01*
X171664015Y-69240364D01*
X171618492Y-69308492D01*
X171550364Y-69354015D01*
X171470000Y-69370000D01*
X171130000Y-69370000D01*
X171049636Y-69354015D01*
X170981508Y-69308492D01*
X170935985Y-69240364D01*
X170920000Y-69160000D01*
X170920000Y-68880000D01*
X170935985Y-68799636D01*
X170981508Y-68731508D01*
X171049636Y-68685985D01*
X171130000Y-68670000D01*
X171470000Y-68670000D01*
X171550364Y-68685985D01*
G37*
G36*
X178542540Y-67982836D02*
G01*
X178547339Y-67984955D01*
X178550134Y-67985323D01*
X178585120Y-68001637D01*
X178641715Y-68026626D01*
X178718374Y-68103285D01*
X178743372Y-68159900D01*
X178759676Y-68194865D01*
X178760043Y-68197657D01*
X178762164Y-68202460D01*
X178770000Y-68270000D01*
X178770000Y-68770000D01*
X178762164Y-68837540D01*
X178760043Y-68842342D01*
X178759676Y-68845134D01*
X178743380Y-68880080D01*
X178718374Y-68936715D01*
X178641715Y-69013374D01*
X178585080Y-69038380D01*
X178550134Y-69054676D01*
X178547342Y-69055043D01*
X178542540Y-69057164D01*
X178475000Y-69065000D01*
X178025000Y-69065000D01*
X177957460Y-69057164D01*
X177952657Y-69055043D01*
X177949865Y-69054676D01*
X177914900Y-69038372D01*
X177858285Y-69013374D01*
X177781626Y-68936715D01*
X177756637Y-68880120D01*
X177740323Y-68845134D01*
X177739955Y-68842339D01*
X177737836Y-68837540D01*
X177730000Y-68770000D01*
X177730000Y-68270000D01*
X177737836Y-68202460D01*
X177739954Y-68197661D01*
X177740323Y-68194865D01*
X177756645Y-68159860D01*
X177781626Y-68103285D01*
X177858285Y-68026626D01*
X177914860Y-68001645D01*
X177949865Y-67985323D01*
X177952661Y-67984954D01*
X177957460Y-67982836D01*
X178025000Y-67975000D01*
X178475000Y-67975000D01*
X178542540Y-67982836D01*
G37*
G36*
X180092540Y-67982836D02*
G01*
X180097339Y-67984955D01*
X180100134Y-67985323D01*
X180135120Y-68001637D01*
X180191715Y-68026626D01*
X180268374Y-68103285D01*
X180293372Y-68159900D01*
X180309676Y-68194865D01*
X180310043Y-68197657D01*
X180312164Y-68202460D01*
X180320000Y-68270000D01*
X180320000Y-68770000D01*
X180312164Y-68837540D01*
X180310043Y-68842342D01*
X180309676Y-68845134D01*
X180293380Y-68880080D01*
X180268374Y-68936715D01*
X180191715Y-69013374D01*
X180135080Y-69038380D01*
X180100134Y-69054676D01*
X180097342Y-69055043D01*
X180092540Y-69057164D01*
X180025000Y-69065000D01*
X179575000Y-69065000D01*
X179507460Y-69057164D01*
X179502657Y-69055043D01*
X179499865Y-69054676D01*
X179464900Y-69038372D01*
X179408285Y-69013374D01*
X179331626Y-68936715D01*
X179306637Y-68880120D01*
X179290323Y-68845134D01*
X179289955Y-68842339D01*
X179287836Y-68837540D01*
X179280000Y-68770000D01*
X179280000Y-68270000D01*
X179287836Y-68202460D01*
X179289954Y-68197661D01*
X179290323Y-68194865D01*
X179306645Y-68159860D01*
X179331626Y-68103285D01*
X179408285Y-68026626D01*
X179464860Y-68001645D01*
X179499865Y-67985323D01*
X179502661Y-67984954D01*
X179507460Y-67982836D01*
X179575000Y-67975000D01*
X180025000Y-67975000D01*
X180092540Y-67982836D01*
G37*
G36*
X157057822Y-67065904D02*
G01*
X157063095Y-67068363D01*
X157065634Y-67068733D01*
X157101697Y-67086363D01*
X157158544Y-67112871D01*
X157237129Y-67191456D01*
X157263647Y-67248325D01*
X157281266Y-67284365D01*
X157281635Y-67286901D01*
X157284096Y-67292178D01*
X157295000Y-67375000D01*
X157295000Y-68625000D01*
X157284096Y-68707822D01*
X157281635Y-68713098D01*
X157281266Y-68715634D01*
X157263657Y-68751653D01*
X157237129Y-68808544D01*
X157158544Y-68887129D01*
X157101653Y-68913657D01*
X157065634Y-68931266D01*
X157063098Y-68931635D01*
X157057822Y-68934096D01*
X156975000Y-68945000D01*
X156225000Y-68945000D01*
X156142178Y-68934096D01*
X156136901Y-68931635D01*
X156134365Y-68931266D01*
X156098325Y-68913647D01*
X156041456Y-68887129D01*
X155962871Y-68808544D01*
X155936363Y-68751697D01*
X155918733Y-68715634D01*
X155918363Y-68713095D01*
X155915904Y-68707822D01*
X155905000Y-68625000D01*
X155905000Y-67375000D01*
X155915904Y-67292178D01*
X155918363Y-67286904D01*
X155918733Y-67284365D01*
X155936373Y-67248280D01*
X155962871Y-67191456D01*
X156041456Y-67112871D01*
X156098280Y-67086373D01*
X156134365Y-67068733D01*
X156136904Y-67068363D01*
X156142178Y-67065904D01*
X156225000Y-67055000D01*
X156975000Y-67055000D01*
X157057822Y-67065904D01*
G37*
G36*
X159857822Y-67065904D02*
G01*
X159863095Y-67068363D01*
X159865634Y-67068733D01*
X159901697Y-67086363D01*
X159958544Y-67112871D01*
X160037129Y-67191456D01*
X160063647Y-67248325D01*
X160081266Y-67284365D01*
X160081635Y-67286901D01*
X160084096Y-67292178D01*
X160095000Y-67375000D01*
X160095000Y-68625000D01*
X160084096Y-68707822D01*
X160081635Y-68713098D01*
X160081266Y-68715634D01*
X160063657Y-68751653D01*
X160037129Y-68808544D01*
X159958544Y-68887129D01*
X159901653Y-68913657D01*
X159865634Y-68931266D01*
X159863098Y-68931635D01*
X159857822Y-68934096D01*
X159775000Y-68945000D01*
X159025000Y-68945000D01*
X158942178Y-68934096D01*
X158936901Y-68931635D01*
X158934365Y-68931266D01*
X158898325Y-68913647D01*
X158841456Y-68887129D01*
X158762871Y-68808544D01*
X158736363Y-68751697D01*
X158718733Y-68715634D01*
X158718363Y-68713095D01*
X158715904Y-68707822D01*
X158705000Y-68625000D01*
X158705000Y-67375000D01*
X158715904Y-67292178D01*
X158718363Y-67286904D01*
X158718733Y-67284365D01*
X158736373Y-67248280D01*
X158762871Y-67191456D01*
X158841456Y-67112871D01*
X158898280Y-67086373D01*
X158934365Y-67068733D01*
X158936904Y-67068363D01*
X158942178Y-67065904D01*
X159025000Y-67055000D01*
X159775000Y-67055000D01*
X159857822Y-67065904D01*
G37*
G36*
X168522359Y-67825170D02*
G01*
X168527085Y-67827256D01*
X168529767Y-67827610D01*
X168563319Y-67843255D01*
X168619433Y-67868032D01*
X168694468Y-67943067D01*
X168719253Y-67999202D01*
X168734889Y-68032732D01*
X168735241Y-68035411D01*
X168737330Y-68040141D01*
X168745000Y-68106250D01*
X168745000Y-68543750D01*
X168737330Y-68609859D01*
X168735241Y-68614588D01*
X168734889Y-68617267D01*
X168719262Y-68650778D01*
X168694468Y-68706933D01*
X168619433Y-68781968D01*
X168563278Y-68806762D01*
X168529767Y-68822389D01*
X168527088Y-68822741D01*
X168522359Y-68824830D01*
X168456250Y-68832500D01*
X167943750Y-68832500D01*
X167877641Y-68824830D01*
X167872911Y-68822741D01*
X167870232Y-68822389D01*
X167836702Y-68806753D01*
X167780567Y-68781968D01*
X167705532Y-68706933D01*
X167680755Y-68650819D01*
X167665110Y-68617267D01*
X167664756Y-68614585D01*
X167662670Y-68609859D01*
X167655000Y-68543750D01*
X167655000Y-68106250D01*
X167662670Y-68040141D01*
X167664756Y-68035414D01*
X167665110Y-68032732D01*
X167680763Y-67999161D01*
X167705532Y-67943067D01*
X167780567Y-67868032D01*
X167836661Y-67843263D01*
X167870232Y-67827610D01*
X167872914Y-67827256D01*
X167877641Y-67825170D01*
X167943750Y-67817500D01*
X168456250Y-67817500D01*
X168522359Y-67825170D01*
G37*
G36*
X170222359Y-67825170D02*
G01*
X170227085Y-67827256D01*
X170229767Y-67827610D01*
X170263319Y-67843255D01*
X170319433Y-67868032D01*
X170394468Y-67943067D01*
X170419253Y-67999202D01*
X170434889Y-68032732D01*
X170435241Y-68035411D01*
X170437330Y-68040141D01*
X170445000Y-68106250D01*
X170445000Y-68543750D01*
X170437330Y-68609859D01*
X170435241Y-68614588D01*
X170434889Y-68617267D01*
X170419262Y-68650778D01*
X170394468Y-68706933D01*
X170319433Y-68781968D01*
X170263278Y-68806762D01*
X170229767Y-68822389D01*
X170227088Y-68822741D01*
X170222359Y-68824830D01*
X170156250Y-68832500D01*
X169643750Y-68832500D01*
X169577641Y-68824830D01*
X169572911Y-68822741D01*
X169570232Y-68822389D01*
X169536702Y-68806753D01*
X169480567Y-68781968D01*
X169405532Y-68706933D01*
X169380755Y-68650819D01*
X169365110Y-68617267D01*
X169364756Y-68614585D01*
X169362670Y-68609859D01*
X169355000Y-68543750D01*
X169355000Y-68106250D01*
X169362670Y-68040141D01*
X169364756Y-68035414D01*
X169365110Y-68032732D01*
X169380763Y-67999161D01*
X169405532Y-67943067D01*
X169480567Y-67868032D01*
X169536661Y-67843263D01*
X169570232Y-67827610D01*
X169572914Y-67827256D01*
X169577641Y-67825170D01*
X169643750Y-67817500D01*
X170156250Y-67817500D01*
X170222359Y-67825170D01*
G37*
G36*
X161322359Y-67087670D02*
G01*
X161327085Y-67089756D01*
X161329767Y-67090110D01*
X161363319Y-67105755D01*
X161419433Y-67130532D01*
X161494468Y-67205567D01*
X161519253Y-67261702D01*
X161534889Y-67295232D01*
X161535241Y-67297911D01*
X161537330Y-67302641D01*
X161545000Y-67368750D01*
X161545000Y-68131250D01*
X161537330Y-68197359D01*
X161535241Y-68202088D01*
X161534889Y-68204767D01*
X161519262Y-68238278D01*
X161494468Y-68294433D01*
X161419433Y-68369468D01*
X161363278Y-68394262D01*
X161329767Y-68409889D01*
X161327088Y-68410241D01*
X161322359Y-68412330D01*
X161256250Y-68420000D01*
X160818750Y-68420000D01*
X160752641Y-68412330D01*
X160747911Y-68410241D01*
X160745232Y-68409889D01*
X160711702Y-68394253D01*
X160655567Y-68369468D01*
X160580532Y-68294433D01*
X160555755Y-68238319D01*
X160540110Y-68204767D01*
X160539756Y-68202085D01*
X160537670Y-68197359D01*
X160530000Y-68131250D01*
X160530000Y-67368750D01*
X160537670Y-67302641D01*
X160539756Y-67297914D01*
X160540110Y-67295232D01*
X160555763Y-67261661D01*
X160580532Y-67205567D01*
X160655567Y-67130532D01*
X160711661Y-67105763D01*
X160745232Y-67090110D01*
X160747914Y-67089756D01*
X160752641Y-67087670D01*
X160818750Y-67080000D01*
X161256250Y-67080000D01*
X161322359Y-67087670D01*
G37*
G36*
X163447359Y-67087670D02*
G01*
X163452085Y-67089756D01*
X163454767Y-67090110D01*
X163488319Y-67105755D01*
X163544433Y-67130532D01*
X163619468Y-67205567D01*
X163644253Y-67261702D01*
X163659889Y-67295232D01*
X163660241Y-67297911D01*
X163662330Y-67302641D01*
X163670000Y-67368750D01*
X163670000Y-68131250D01*
X163662330Y-68197359D01*
X163660241Y-68202088D01*
X163659889Y-68204767D01*
X163644262Y-68238278D01*
X163619468Y-68294433D01*
X163544433Y-68369468D01*
X163488278Y-68394262D01*
X163454767Y-68409889D01*
X163452088Y-68410241D01*
X163447359Y-68412330D01*
X163381250Y-68420000D01*
X162943750Y-68420000D01*
X162877641Y-68412330D01*
X162872911Y-68410241D01*
X162870232Y-68409889D01*
X162836702Y-68394253D01*
X162780567Y-68369468D01*
X162705532Y-68294433D01*
X162680755Y-68238319D01*
X162665110Y-68204767D01*
X162664756Y-68202085D01*
X162662670Y-68197359D01*
X162655000Y-68131250D01*
X162655000Y-67368750D01*
X162662670Y-67302641D01*
X162664756Y-67297914D01*
X162665110Y-67295232D01*
X162680763Y-67261661D01*
X162705532Y-67205567D01*
X162780567Y-67130532D01*
X162836661Y-67105763D01*
X162870232Y-67090110D01*
X162872914Y-67089756D01*
X162877641Y-67087670D01*
X162943750Y-67080000D01*
X163381250Y-67080000D01*
X163447359Y-67087670D01*
G37*
G36*
X165081411Y-67156275D02*
G01*
X165143664Y-67164471D01*
X165159324Y-67171773D01*
X165178325Y-67175553D01*
X165203491Y-67192368D01*
X165229422Y-67204460D01*
X165245197Y-67220235D01*
X165265919Y-67234081D01*
X165279764Y-67254802D01*
X165295539Y-67270577D01*
X165307629Y-67296505D01*
X165324447Y-67321675D01*
X165328226Y-67340677D01*
X165335528Y-67356335D01*
X165343722Y-67418575D01*
X165345000Y-67425000D01*
X165345000Y-67975000D01*
X165343721Y-67981426D01*
X165335528Y-68043664D01*
X165328227Y-68059320D01*
X165324447Y-68078325D01*
X165307628Y-68103496D01*
X165295539Y-68129422D01*
X165279766Y-68145194D01*
X165265919Y-68165919D01*
X165245194Y-68179766D01*
X165229422Y-68195539D01*
X165203496Y-68207628D01*
X165178325Y-68224447D01*
X165159320Y-68228227D01*
X165143664Y-68235528D01*
X165081426Y-68243721D01*
X165075000Y-68245000D01*
X164675000Y-68245000D01*
X164668575Y-68243722D01*
X164606335Y-68235528D01*
X164590677Y-68228226D01*
X164571675Y-68224447D01*
X164546505Y-68207629D01*
X164520577Y-68195539D01*
X164504802Y-68179764D01*
X164484081Y-68165919D01*
X164470235Y-68145197D01*
X164454460Y-68129422D01*
X164442368Y-68103491D01*
X164425553Y-68078325D01*
X164421773Y-68059324D01*
X164414471Y-68043664D01*
X164406275Y-67981411D01*
X164405000Y-67975000D01*
X164405000Y-67425000D01*
X164406275Y-67418590D01*
X164414471Y-67356335D01*
X164421773Y-67340673D01*
X164425553Y-67321675D01*
X164442367Y-67296510D01*
X164454460Y-67270577D01*
X164470237Y-67254799D01*
X164484081Y-67234081D01*
X164504799Y-67220237D01*
X164520577Y-67204460D01*
X164546510Y-67192367D01*
X164571675Y-67175553D01*
X164590673Y-67171773D01*
X164606335Y-67164471D01*
X164668590Y-67156275D01*
X164675000Y-67155000D01*
X165075000Y-67155000D01*
X165081411Y-67156275D01*
G37*
G36*
X166731411Y-67156275D02*
G01*
X166793664Y-67164471D01*
X166809324Y-67171773D01*
X166828325Y-67175553D01*
X166853491Y-67192368D01*
X166879422Y-67204460D01*
X166895197Y-67220235D01*
X166915919Y-67234081D01*
X166929764Y-67254802D01*
X166945539Y-67270577D01*
X166957629Y-67296505D01*
X166974447Y-67321675D01*
X166978226Y-67340677D01*
X166985528Y-67356335D01*
X166993722Y-67418575D01*
X166995000Y-67425000D01*
X166995000Y-67975000D01*
X166993721Y-67981426D01*
X166985528Y-68043664D01*
X166978227Y-68059320D01*
X166974447Y-68078325D01*
X166957628Y-68103496D01*
X166945539Y-68129422D01*
X166929766Y-68145194D01*
X166915919Y-68165919D01*
X166895194Y-68179766D01*
X166879422Y-68195539D01*
X166853496Y-68207628D01*
X166828325Y-68224447D01*
X166809320Y-68228227D01*
X166793664Y-68235528D01*
X166731426Y-68243721D01*
X166725000Y-68245000D01*
X166325000Y-68245000D01*
X166318575Y-68243722D01*
X166256335Y-68235528D01*
X166240677Y-68228226D01*
X166221675Y-68224447D01*
X166196505Y-68207629D01*
X166170577Y-68195539D01*
X166154802Y-68179764D01*
X166134081Y-68165919D01*
X166120235Y-68145197D01*
X166104460Y-68129422D01*
X166092368Y-68103491D01*
X166075553Y-68078325D01*
X166071773Y-68059324D01*
X166064471Y-68043664D01*
X166056275Y-67981411D01*
X166055000Y-67975000D01*
X166055000Y-67425000D01*
X166056275Y-67418590D01*
X166064471Y-67356335D01*
X166071773Y-67340673D01*
X166075553Y-67321675D01*
X166092367Y-67296510D01*
X166104460Y-67270577D01*
X166120237Y-67254799D01*
X166134081Y-67234081D01*
X166154799Y-67220237D01*
X166170577Y-67204460D01*
X166196510Y-67192367D01*
X166221675Y-67175553D01*
X166240673Y-67171773D01*
X166256335Y-67164471D01*
X166318590Y-67156275D01*
X166325000Y-67155000D01*
X166725000Y-67155000D01*
X166731411Y-67156275D01*
G37*
G36*
X171681411Y-67156275D02*
G01*
X171743664Y-67164471D01*
X171759324Y-67171773D01*
X171778325Y-67175553D01*
X171803491Y-67192368D01*
X171829422Y-67204460D01*
X171845197Y-67220235D01*
X171865919Y-67234081D01*
X171879764Y-67254802D01*
X171895539Y-67270577D01*
X171907629Y-67296505D01*
X171924447Y-67321675D01*
X171928226Y-67340677D01*
X171935528Y-67356335D01*
X171943722Y-67418575D01*
X171945000Y-67425000D01*
X171945000Y-67975000D01*
X171943721Y-67981426D01*
X171935528Y-68043664D01*
X171928227Y-68059320D01*
X171924447Y-68078325D01*
X171907628Y-68103496D01*
X171895539Y-68129422D01*
X171879766Y-68145194D01*
X171865919Y-68165919D01*
X171845194Y-68179766D01*
X171829422Y-68195539D01*
X171803496Y-68207628D01*
X171778325Y-68224447D01*
X171759320Y-68228227D01*
X171743664Y-68235528D01*
X171681426Y-68243721D01*
X171675000Y-68245000D01*
X171275000Y-68245000D01*
X171268575Y-68243722D01*
X171206335Y-68235528D01*
X171190677Y-68228226D01*
X171171675Y-68224447D01*
X171146505Y-68207629D01*
X171120577Y-68195539D01*
X171104802Y-68179764D01*
X171084081Y-68165919D01*
X171070235Y-68145197D01*
X171054460Y-68129422D01*
X171042368Y-68103491D01*
X171025553Y-68078325D01*
X171021773Y-68059324D01*
X171014471Y-68043664D01*
X171006275Y-67981411D01*
X171005000Y-67975000D01*
X171005000Y-67425000D01*
X171006275Y-67418590D01*
X171014471Y-67356335D01*
X171021773Y-67340673D01*
X171025553Y-67321675D01*
X171042367Y-67296510D01*
X171054460Y-67270577D01*
X171070237Y-67254799D01*
X171084081Y-67234081D01*
X171104799Y-67220237D01*
X171120577Y-67204460D01*
X171146510Y-67192367D01*
X171171675Y-67175553D01*
X171190673Y-67171773D01*
X171206335Y-67164471D01*
X171268590Y-67156275D01*
X171275000Y-67155000D01*
X171675000Y-67155000D01*
X171681411Y-67156275D01*
G37*
G36*
X173331411Y-67156275D02*
G01*
X173393664Y-67164471D01*
X173409324Y-67171773D01*
X173428325Y-67175553D01*
X173453491Y-67192368D01*
X173479422Y-67204460D01*
X173495197Y-67220235D01*
X173515919Y-67234081D01*
X173529764Y-67254802D01*
X173545539Y-67270577D01*
X173557629Y-67296505D01*
X173574447Y-67321675D01*
X173578226Y-67340677D01*
X173585528Y-67356335D01*
X173593722Y-67418575D01*
X173595000Y-67425000D01*
X173595000Y-67975000D01*
X173593721Y-67981426D01*
X173585528Y-68043664D01*
X173578227Y-68059320D01*
X173574447Y-68078325D01*
X173557628Y-68103496D01*
X173545539Y-68129422D01*
X173529766Y-68145194D01*
X173515919Y-68165919D01*
X173495194Y-68179766D01*
X173479422Y-68195539D01*
X173453496Y-68207628D01*
X173428325Y-68224447D01*
X173409320Y-68228227D01*
X173393664Y-68235528D01*
X173331426Y-68243721D01*
X173325000Y-68245000D01*
X172925000Y-68245000D01*
X172918575Y-68243722D01*
X172856335Y-68235528D01*
X172840677Y-68228226D01*
X172821675Y-68224447D01*
X172796505Y-68207629D01*
X172770577Y-68195539D01*
X172754802Y-68179764D01*
X172734081Y-68165919D01*
X172720235Y-68145197D01*
X172704460Y-68129422D01*
X172692368Y-68103491D01*
X172675553Y-68078325D01*
X172671773Y-68059324D01*
X172664471Y-68043664D01*
X172656275Y-67981411D01*
X172655000Y-67975000D01*
X172655000Y-67425000D01*
X172656275Y-67418590D01*
X172664471Y-67356335D01*
X172671773Y-67340673D01*
X172675553Y-67321675D01*
X172692367Y-67296510D01*
X172704460Y-67270577D01*
X172720237Y-67254799D01*
X172734081Y-67234081D01*
X172754799Y-67220237D01*
X172770577Y-67204460D01*
X172796510Y-67192367D01*
X172821675Y-67175553D01*
X172840673Y-67171773D01*
X172856335Y-67164471D01*
X172918590Y-67156275D01*
X172925000Y-67155000D01*
X173325000Y-67155000D01*
X173331411Y-67156275D01*
G37*
M02*
