M48
; DRILL file {KiCad 8.0.6} date 2024-12-29T16:52:00+0530
; FORMAT={-:-/ absolute / inch / decimal}
; #@! TF.CreationDate,2024-12-29T16:52:00+05:30
; #@! TF.GenerationSoftware,Kicad,Pcbnew,8.0.6
; #@! TF.FileFunction,Plated,1,4,PTH
FMAT,2
INCH
; #@! TA.AperFunction,Plated,PTH,ViaDrill
T1C0.0118
; #@! TA.AperFunction,Plated,PTH,ComponentDrill
T2C0.0236
; #@! TA.AperFunction,Plated,PTH,ComponentDrill
T3C0.0256
; #@! TA.AperFunction,Plated,PTH,ComponentDrill
T4C0.0335
%
G90
G05
T1
X6.2331Y-3.111
X6.2874Y-2.9646
X6.2953Y-2.8307
X6.3386Y-2.8622
X6.3625Y-2.9488
X6.3661Y-2.8622
X6.4094Y-2.7913
X6.4409Y-2.8346
X6.4606Y-2.9488
X6.4882Y-2.7047
X6.5276Y-2.878
X6.5433Y-2.7402
X6.5551Y-2.878
X6.5827Y-2.8504
X6.5827Y-2.878
X6.6535Y-3.0197
X6.7165Y-2.8701
X6.7165Y-2.9134
X6.7165Y-2.9606
X6.7205Y-3.0591
X6.7436Y-2.7832
X6.7835Y-2.7244
X6.7835Y-2.7677
X6.8051Y-2.8681
X6.8071Y-2.9114
X6.8091Y-2.9587
X6.8543Y-2.6535
X6.8543Y-2.6811
X6.8602Y-2.7933
X6.8976Y-2.815
X6.9016Y-2.9803
X6.9429Y-3.0472
X6.9449Y-2.9173
X6.9587Y-3.0906
X6.9685Y-2.748
X7.0039Y-2.8386
X7.0177Y-2.6594
X7.0433Y-2.8976
X7.0433Y-2.9291
X7.0512Y-3.0453
X7.0787Y-2.6575
X7.0984Y-2.8976
X7.0984Y-2.9291
X7.1299Y-2.7047
X7.1654Y-2.815
X7.1762Y-3.1752
X7.1772Y-2.7047
X7.2008Y-2.8701
X7.2323Y-2.7362
X7.2323Y-2.8307
X7.2323Y-3.0909
X7.2362Y-2.6535
X7.2362Y-3.1736
X7.2835Y-3.0512
X7.3228Y-3.0512
X7.3346Y-2.6496
X7.3346Y-3.1776
X7.3898Y-2.8346
X7.437Y-2.6496
X7.437Y-3.1776
X7.4508Y-3.0709
X7.4528Y-2.752
X7.4902Y-3.0709
X7.4921Y-2.752
X7.5236Y-2.6496
X7.5236Y-3.1776
X7.5295Y-3.0709
X7.5315Y-2.752
X7.5866Y-2.7362
X7.5866Y-3.0909
T3
X6.3315Y-3.0878
X6.3315Y-3.1378
X6.3815Y-3.0878
X6.3815Y-3.1378
X6.4315Y-3.0878
X6.4315Y-3.1378
X6.4815Y-3.0878
X6.4815Y-3.1378
X6.5315Y-3.0878
X6.5315Y-3.1378
T4
X6.2402Y-2.815
X6.2402Y-3.0118
T2
G00X6.1201Y-2.7756
M15
G01X6.1476Y-2.7756
M16
G05
G00X6.1476Y-3.0512
M15
G01X6.1201Y-3.0512
M16
G05
M30
