%TF.GenerationSoftware,KiCad,Pcbnew,8.0.6*%
%TF.CreationDate,2024-12-29T16:51:47+05:30*%
%TF.ProjectId,STM32_RF,53544d33-325f-4524-962e-6b696361645f,rev?*%
%TF.SameCoordinates,Original*%
%TF.FileFunction,Copper,L4,Bot*%
%TF.FilePolarity,Positive*%
%FSLAX46Y46*%
G04 Gerber Fmt 4.6, Leading zero omitted, Abs format (unit mm)*
G04 Created by KiCad (PCBNEW 8.0.6) date 2024-12-29 16:51:47*
%MOMM*%
%LPD*%
G01*
G04 APERTURE LIST*
%TA.AperFunction,ComponentPad*%
%ADD10R,1.000000X1.000000*%
%TD*%
%TA.AperFunction,ComponentPad*%
%ADD11O,1.000000X1.000000*%
%TD*%
%TA.AperFunction,ComponentPad*%
%ADD12O,1.900000X1.200000*%
%TD*%
%TA.AperFunction,ComponentPad*%
%ADD13C,1.450000*%
%TD*%
%TA.AperFunction,SMDPad,CuDef*%
%ADD14R,4.200000X1.350000*%
%TD*%
%TA.AperFunction,ViaPad*%
%ADD15C,0.600000*%
%TD*%
%TA.AperFunction,ViaPad*%
%ADD16C,0.700000*%
%TD*%
%TA.AperFunction,Conductor*%
%ADD17C,0.500000*%
%TD*%
%TA.AperFunction,Conductor*%
%ADD18C,0.300000*%
%TD*%
%TA.AperFunction,Conductor*%
%ADD19C,0.250000*%
%TD*%
G04 APERTURE END LIST*
D10*
%TO.P,J2,1,Pin_1*%
%TO.N,+3.3V*%
X165900000Y-78430000D03*
D11*
%TO.P,J2,2,Pin_2*%
%TO.N,SWD_DIO*%
X165900000Y-79700000D03*
%TO.P,J2,3,Pin_3*%
%TO.N,GND*%
X164630000Y-78430000D03*
%TO.P,J2,4,Pin_4*%
%TO.N,SWD_CLK*%
X164630000Y-79700000D03*
%TO.P,J2,5,Pin_5*%
%TO.N,GND*%
X163360000Y-78430000D03*
%TO.P,J2,6,Pin_6*%
%TO.N,unconnected-(J2-Pin_6-Pad6)*%
X163360000Y-79700000D03*
%TO.P,J2,7,Pin_7*%
%TO.N,unconnected-(J2-Pin_7-Pad7)*%
X162090000Y-78430000D03*
%TO.P,J2,8,Pin_8*%
%TO.N,unconnected-(J2-Pin_8-Pad8)*%
X162090000Y-79700000D03*
%TO.P,J2,9,Pin_9*%
%TO.N,GND*%
X160820000Y-78430000D03*
%TO.P,J2,10,Pin_10*%
%TO.N,SWD_NRST*%
X160820000Y-79700000D03*
%TD*%
D12*
%TO.P,J1,6,Shield*%
%TO.N,N/C*%
X155800000Y-70500000D03*
D13*
X158500000Y-71500000D03*
X158500000Y-76500000D03*
D12*
X155800000Y-77500000D03*
%TD*%
D14*
%TO.P,J3,2,Ext*%
%TO.N,GND*%
X190862500Y-76825000D03*
X190862500Y-71175000D03*
%TD*%
D15*
%TO.N,GND*%
X189300000Y-69900000D03*
D16*
X188900000Y-67300000D03*
X188900000Y-80710000D03*
D15*
X169000000Y-76700000D03*
D16*
X186300000Y-80710000D03*
D15*
X161700000Y-72700000D03*
X179800000Y-67500000D03*
X175200000Y-71500000D03*
X159700000Y-75300000D03*
D16*
X183800000Y-67400000D03*
D15*
X182300000Y-68700000D03*
D16*
X186300000Y-67300000D03*
X183700000Y-78510000D03*
X191100000Y-67300000D03*
D15*
X166200000Y-69600000D03*
D16*
X183700000Y-69500000D03*
D15*
X172300000Y-69200000D03*
X180300000Y-74400000D03*
X172900000Y-73950000D03*
D16*
X192700000Y-78510000D03*
D15*
X180300000Y-73600000D03*
D16*
X191100000Y-80710000D03*
D15*
X190300000Y-69900000D03*
X164800000Y-68700000D03*
D16*
X183700000Y-71900000D03*
D15*
X177900000Y-72100000D03*
X163600000Y-72000000D03*
D16*
X192700000Y-69500000D03*
D15*
X191300000Y-69900000D03*
X158320000Y-79020000D03*
X170600000Y-72900000D03*
X181100000Y-68700000D03*
X161000000Y-72700000D03*
X190250000Y-78000000D03*
X172850000Y-72850000D03*
X191250000Y-78000000D03*
X178900000Y-74400000D03*
X170600000Y-75200000D03*
X174100000Y-67399997D03*
X170600000Y-74000000D03*
X176750000Y-78500000D03*
X182900000Y-72900000D03*
X177000000Y-69800000D03*
X189250000Y-78000000D03*
X187700000Y-72000000D03*
X162800000Y-70900000D03*
X182275000Y-80650000D03*
X164100000Y-74900000D03*
X172950000Y-75150000D03*
X185000000Y-77500000D03*
D16*
X183800000Y-80610000D03*
D15*
X179100000Y-77350000D03*
X186000000Y-77500000D03*
X178900000Y-73600000D03*
X174100000Y-68100000D03*
%TO.N,+3.3V*%
X178250000Y-67550000D03*
X167200000Y-72399997D03*
X170700000Y-77700000D03*
X167200000Y-73100000D03*
X174250000Y-70950000D03*
X165800000Y-73100000D03*
X166500000Y-73100000D03*
X171287500Y-70693844D03*
X176350000Y-77400000D03*
X182000000Y-71500000D03*
%TO.N,SWD_NRST*%
X172300000Y-70300000D03*
%TO.N,+5V*%
X161608422Y-74900000D03*
X159900000Y-71900000D03*
%TO.N,SPI3_SCK*%
X175300000Y-75700000D03*
X176400000Y-74100000D03*
%TD*%
D17*
%TO.N,GND*%
X189250000Y-78000000D02*
X189250000Y-77020710D01*
X190300000Y-69900000D02*
X190300000Y-70800000D01*
X189300000Y-69900000D02*
X189300000Y-70900000D01*
X191300000Y-69900000D02*
X191300000Y-70900000D01*
X191250000Y-78000000D02*
X191250000Y-77120710D01*
X190250000Y-78000000D02*
X190250000Y-77020710D01*
X190250000Y-77020710D02*
G75*
G03*
X190200003Y-76899997I-170700J10D01*
G01*
X191250000Y-77120710D02*
G75*
G03*
X191200003Y-76999997I-170700J10D01*
G01*
X189250000Y-77020710D02*
G75*
G02*
X189299997Y-76899997I170700J10D01*
G01*
D18*
%TO.N,SWD_NRST*%
X171700000Y-80600000D02*
X171700000Y-71950000D01*
X160820000Y-79700000D02*
X162120000Y-81000000D01*
X171700000Y-71950000D02*
X172300000Y-71350000D01*
X162120000Y-81000000D02*
X171300000Y-81000000D01*
X171300000Y-81000000D02*
X171700000Y-80600000D01*
X172300000Y-71350000D02*
X172300000Y-70300000D01*
D17*
%TO.N,+5V*%
X159900000Y-73191578D02*
X159900000Y-71900000D01*
X161608422Y-74900000D02*
X159900000Y-73191578D01*
D19*
%TO.N,SPI3_SCK*%
X175600000Y-75700000D02*
X176400000Y-74900000D01*
X175300000Y-75700000D02*
X175600000Y-75700000D01*
X176400000Y-74900000D02*
X176400000Y-74100000D01*
%TD*%
%TA.AperFunction,Conductor*%
%TO.N,GND*%
G36*
X182443039Y-66720185D02*
G01*
X182488794Y-66772989D01*
X182500000Y-66824500D01*
X182500000Y-70938326D01*
X182480315Y-71005365D01*
X182427511Y-71051120D01*
X182358353Y-71061064D01*
X182300514Y-71036702D01*
X182277625Y-71019139D01*
X182277623Y-71019138D01*
X182143712Y-70963671D01*
X182143710Y-70963670D01*
X182143709Y-70963670D01*
X182039877Y-70950000D01*
X182000001Y-70944750D01*
X181999999Y-70944750D01*
X181856291Y-70963670D01*
X181856287Y-70963671D01*
X181722377Y-71019137D01*
X181607379Y-71107379D01*
X181519137Y-71222377D01*
X181463671Y-71356287D01*
X181463670Y-71356291D01*
X181454971Y-71422369D01*
X181444750Y-71500000D01*
X181457377Y-71595913D01*
X181463670Y-71643708D01*
X181463671Y-71643712D01*
X181519137Y-71777622D01*
X181519138Y-71777624D01*
X181519139Y-71777625D01*
X181607379Y-71892621D01*
X181722375Y-71980861D01*
X181856291Y-72036330D01*
X181983280Y-72053048D01*
X181999999Y-72055250D01*
X182000000Y-72055250D01*
X182000001Y-72055250D01*
X182014977Y-72053278D01*
X182143709Y-72036330D01*
X182277625Y-71980861D01*
X182300514Y-71963296D01*
X182365681Y-71938103D01*
X182434126Y-71952140D01*
X182484116Y-72000954D01*
X182500000Y-72061673D01*
X182500000Y-73376000D01*
X182480315Y-73443039D01*
X182427511Y-73488794D01*
X182376000Y-73500000D01*
X180500000Y-73500000D01*
X180500000Y-77376000D01*
X180480315Y-77443039D01*
X180427511Y-77488794D01*
X180376000Y-77500000D01*
X177027160Y-77500000D01*
X176960121Y-77480315D01*
X176914366Y-77427511D01*
X176904221Y-77392186D01*
X176897039Y-77337634D01*
X176886330Y-77256291D01*
X176830861Y-77122375D01*
X176742621Y-77007379D01*
X176627625Y-76919139D01*
X176627624Y-76919138D01*
X176627622Y-76919137D01*
X176493712Y-76863671D01*
X176493710Y-76863670D01*
X176493709Y-76863670D01*
X176421854Y-76854210D01*
X176350001Y-76844750D01*
X176349999Y-76844750D01*
X176206291Y-76863670D01*
X176206287Y-76863671D01*
X176072377Y-76919137D01*
X175957379Y-77007379D01*
X175869137Y-77122377D01*
X175813671Y-77256287D01*
X175813670Y-77256291D01*
X175794750Y-77400000D01*
X175807915Y-77500000D01*
X175813670Y-77543708D01*
X175813671Y-77543712D01*
X175869137Y-77677622D01*
X175869138Y-77677624D01*
X175869139Y-77677625D01*
X175957379Y-77792621D01*
X176072375Y-77880861D01*
X176072376Y-77880861D01*
X176072377Y-77880862D01*
X176173452Y-77922728D01*
X176227856Y-77966568D01*
X176249921Y-78032862D01*
X176250000Y-78037289D01*
X176250000Y-81175500D01*
X176230315Y-81242539D01*
X176177511Y-81288294D01*
X176126000Y-81299500D01*
X171866255Y-81299500D01*
X171799216Y-81279815D01*
X171753461Y-81227011D01*
X171743517Y-81157853D01*
X171772542Y-81094297D01*
X171778574Y-81087819D01*
X171812496Y-81053897D01*
X172020480Y-80845913D01*
X172073206Y-80754588D01*
X172073207Y-80754587D01*
X172100500Y-80652727D01*
X172100500Y-75699999D01*
X174744750Y-75699999D01*
X174744750Y-75700000D01*
X174763670Y-75843708D01*
X174763671Y-75843712D01*
X174819137Y-75977622D01*
X174819138Y-75977624D01*
X174819139Y-75977625D01*
X174907379Y-76092621D01*
X175022375Y-76180861D01*
X175156291Y-76236330D01*
X175283280Y-76253048D01*
X175299999Y-76255250D01*
X175300000Y-76255250D01*
X175300001Y-76255250D01*
X175314977Y-76253278D01*
X175443709Y-76236330D01*
X175577625Y-76180861D01*
X175692621Y-76092621D01*
X175696061Y-76088136D01*
X175738723Y-76055402D01*
X175737899Y-76053974D01*
X175744938Y-76049910D01*
X175830562Y-76000475D01*
X175900475Y-75930562D01*
X175900474Y-75930562D01*
X175959043Y-75871993D01*
X176700475Y-75130563D01*
X176725192Y-75087750D01*
X176749910Y-75044938D01*
X176775500Y-74949435D01*
X176775500Y-74557026D01*
X176795185Y-74489987D01*
X176801117Y-74481547D01*
X176880861Y-74377625D01*
X176936330Y-74243709D01*
X176955250Y-74100000D01*
X176936330Y-73956291D01*
X176880861Y-73822375D01*
X176792621Y-73707379D01*
X176677625Y-73619139D01*
X176677624Y-73619138D01*
X176677622Y-73619137D01*
X176543712Y-73563671D01*
X176543710Y-73563670D01*
X176543709Y-73563670D01*
X176471854Y-73554210D01*
X176400001Y-73544750D01*
X176399999Y-73544750D01*
X176256291Y-73563670D01*
X176256287Y-73563671D01*
X176122377Y-73619137D01*
X176007379Y-73707379D01*
X175919137Y-73822377D01*
X175863671Y-73956287D01*
X175863670Y-73956291D01*
X175844750Y-74099999D01*
X175844750Y-74100000D01*
X175863670Y-74243708D01*
X175863671Y-74243712D01*
X175919137Y-74377622D01*
X175919138Y-74377624D01*
X175919139Y-74377625D01*
X175998876Y-74481540D01*
X176024070Y-74546709D01*
X176024500Y-74557026D01*
X176024500Y-74693100D01*
X176004815Y-74760139D01*
X175988181Y-74780781D01*
X175616552Y-75152409D01*
X175555229Y-75185894D01*
X175485537Y-75180910D01*
X175481420Y-75179290D01*
X175471694Y-75175261D01*
X175443709Y-75163670D01*
X175358175Y-75152409D01*
X175300001Y-75144750D01*
X175299999Y-75144750D01*
X175156291Y-75163670D01*
X175156287Y-75163671D01*
X175022377Y-75219137D01*
X174907379Y-75307379D01*
X174819137Y-75422377D01*
X174763671Y-75556287D01*
X174763670Y-75556291D01*
X174744750Y-75699999D01*
X172100500Y-75699999D01*
X172100500Y-72167255D01*
X172120185Y-72100216D01*
X172136819Y-72079574D01*
X172371646Y-71844747D01*
X172620480Y-71595913D01*
X172673207Y-71504588D01*
X172700500Y-71402727D01*
X172700500Y-71297273D01*
X172700500Y-70950000D01*
X173694750Y-70950000D01*
X173703852Y-71019139D01*
X173713670Y-71093708D01*
X173713671Y-71093712D01*
X173769137Y-71227622D01*
X173769138Y-71227624D01*
X173769139Y-71227625D01*
X173857379Y-71342621D01*
X173972375Y-71430861D01*
X174106291Y-71486330D01*
X174233280Y-71503048D01*
X174249999Y-71505250D01*
X174250000Y-71505250D01*
X174250001Y-71505250D01*
X174264977Y-71503278D01*
X174393709Y-71486330D01*
X174527625Y-71430861D01*
X174642621Y-71342621D01*
X174730861Y-71227625D01*
X174786330Y-71093709D01*
X174805250Y-70950000D01*
X174786330Y-70806291D01*
X174730861Y-70672375D01*
X174642621Y-70557379D01*
X174527625Y-70469139D01*
X174527624Y-70469138D01*
X174527622Y-70469137D01*
X174393712Y-70413671D01*
X174393710Y-70413670D01*
X174393709Y-70413670D01*
X174313765Y-70403145D01*
X174250001Y-70394750D01*
X174249999Y-70394750D01*
X174106291Y-70413670D01*
X174106287Y-70413671D01*
X173972377Y-70469137D01*
X173857379Y-70557379D01*
X173769137Y-70672377D01*
X173713671Y-70806287D01*
X173713670Y-70806291D01*
X173694750Y-70950000D01*
X172700500Y-70950000D01*
X172700500Y-70724444D01*
X172720185Y-70657405D01*
X172726125Y-70648957D01*
X172780861Y-70577625D01*
X172836330Y-70443709D01*
X172855250Y-70300000D01*
X172836330Y-70156291D01*
X172780861Y-70022375D01*
X172692621Y-69907379D01*
X172577625Y-69819139D01*
X172577624Y-69819138D01*
X172577622Y-69819137D01*
X172443712Y-69763671D01*
X172443710Y-69763670D01*
X172443709Y-69763670D01*
X172319787Y-69747355D01*
X172300001Y-69744750D01*
X172299999Y-69744750D01*
X172156291Y-69763670D01*
X172156287Y-69763671D01*
X172022377Y-69819137D01*
X171907379Y-69907379D01*
X171819137Y-70022377D01*
X171760560Y-70163799D01*
X171757797Y-70162654D01*
X171728839Y-70210120D01*
X171665980Y-70240624D01*
X171596608Y-70232302D01*
X171569979Y-70216708D01*
X171567099Y-70214498D01*
X171565123Y-70212981D01*
X171431212Y-70157515D01*
X171431210Y-70157514D01*
X171431209Y-70157514D01*
X171359354Y-70148054D01*
X171287501Y-70138594D01*
X171287499Y-70138594D01*
X171143791Y-70157514D01*
X171143787Y-70157515D01*
X171009877Y-70212981D01*
X170894879Y-70301223D01*
X170806637Y-70416221D01*
X170751171Y-70550131D01*
X170751170Y-70550135D01*
X170732250Y-70693843D01*
X170732250Y-70693844D01*
X170751170Y-70837552D01*
X170751171Y-70837556D01*
X170806637Y-70971466D01*
X170806638Y-70971468D01*
X170806639Y-70971469D01*
X170894879Y-71086465D01*
X171009875Y-71174705D01*
X171143791Y-71230174D01*
X171270780Y-71246892D01*
X171287499Y-71249094D01*
X171287500Y-71249094D01*
X171287501Y-71249094D01*
X171302477Y-71247122D01*
X171431209Y-71230174D01*
X171565123Y-71174706D01*
X171572634Y-71171595D01*
X171573409Y-71173467D01*
X171630707Y-71159559D01*
X171696737Y-71182401D01*
X171739936Y-71237316D01*
X171746588Y-71306868D01*
X171714581Y-71368975D01*
X171712506Y-71371100D01*
X171379522Y-71704084D01*
X171379518Y-71704090D01*
X171326792Y-71795412D01*
X171326793Y-71795413D01*
X171299500Y-71897273D01*
X171299500Y-77214896D01*
X171279815Y-77281935D01*
X171227011Y-77327690D01*
X171157853Y-77337634D01*
X171099942Y-77311187D01*
X171099068Y-77312327D01*
X171092622Y-77307381D01*
X171092621Y-77307379D01*
X170977625Y-77219139D01*
X170977624Y-77219138D01*
X170977622Y-77219137D01*
X170843712Y-77163671D01*
X170843710Y-77163670D01*
X170843709Y-77163670D01*
X170771854Y-77154210D01*
X170700001Y-77144750D01*
X170699999Y-77144750D01*
X170556291Y-77163670D01*
X170556287Y-77163671D01*
X170422377Y-77219137D01*
X170307379Y-77307379D01*
X170219137Y-77422377D01*
X170163671Y-77556287D01*
X170163670Y-77556291D01*
X170144750Y-77699999D01*
X170144750Y-77700000D01*
X170163670Y-77843708D01*
X170163671Y-77843712D01*
X170219137Y-77977622D01*
X170219138Y-77977624D01*
X170219139Y-77977625D01*
X170307379Y-78092621D01*
X170422375Y-78180861D01*
X170422376Y-78180861D01*
X170422377Y-78180862D01*
X170433828Y-78185605D01*
X170556291Y-78236330D01*
X170680206Y-78252644D01*
X170699999Y-78255250D01*
X170700000Y-78255250D01*
X170700001Y-78255250D01*
X170719794Y-78252644D01*
X170843709Y-78236330D01*
X170977625Y-78180861D01*
X171092621Y-78092621D01*
X171092622Y-78092618D01*
X171099068Y-78087673D01*
X171101018Y-78090215D01*
X171149142Y-78063938D01*
X171218834Y-78068922D01*
X171274767Y-78110794D01*
X171299184Y-78176258D01*
X171299500Y-78185104D01*
X171299500Y-80382745D01*
X171279815Y-80449784D01*
X171263181Y-80470426D01*
X171170426Y-80563181D01*
X171109103Y-80596666D01*
X171082745Y-80599500D01*
X166309498Y-80599500D01*
X166242459Y-80579815D01*
X166196704Y-80527011D01*
X166186760Y-80457853D01*
X166215785Y-80394297D01*
X166243525Y-80370507D01*
X166341148Y-80309164D01*
X166370890Y-80290477D01*
X166490477Y-80170890D01*
X166499926Y-80155852D01*
X166580452Y-80027697D01*
X166580454Y-80027694D01*
X166580454Y-80027692D01*
X166580456Y-80027690D01*
X166636313Y-79868059D01*
X166636313Y-79868058D01*
X166636314Y-79868056D01*
X166655249Y-79700002D01*
X166655249Y-79699997D01*
X166636314Y-79531943D01*
X166611181Y-79460118D01*
X166580456Y-79372310D01*
X166580454Y-79372307D01*
X166580454Y-79372306D01*
X166528828Y-79290145D01*
X166509827Y-79222908D01*
X166530194Y-79156073D01*
X166564930Y-79121071D01*
X166580601Y-79110601D01*
X166635966Y-79027740D01*
X166650500Y-78954674D01*
X166650500Y-77905326D01*
X166650500Y-77905323D01*
X166650499Y-77905321D01*
X166635967Y-77832264D01*
X166635966Y-77832260D01*
X166611919Y-77796271D01*
X166580601Y-77749399D01*
X166506669Y-77700000D01*
X166497739Y-77694033D01*
X166497735Y-77694032D01*
X166424677Y-77679500D01*
X166424674Y-77679500D01*
X165375326Y-77679500D01*
X165375321Y-77679500D01*
X165365629Y-77681428D01*
X165296038Y-77675198D01*
X165262776Y-77655663D01*
X165188254Y-77594504D01*
X165188253Y-77594503D01*
X165014541Y-77501652D01*
X164880000Y-77460839D01*
X164880000Y-78220382D01*
X164829554Y-78169936D01*
X164755445Y-78127149D01*
X164672787Y-78105000D01*
X164587213Y-78105000D01*
X164504555Y-78127149D01*
X164430446Y-78169936D01*
X164369936Y-78230446D01*
X164327149Y-78304555D01*
X164305000Y-78387213D01*
X164305000Y-78472787D01*
X164327149Y-78555445D01*
X164369936Y-78629554D01*
X164420382Y-78680000D01*
X163569618Y-78680000D01*
X163620064Y-78629554D01*
X163662851Y-78555445D01*
X163685000Y-78472787D01*
X163685000Y-78387213D01*
X163662851Y-78304555D01*
X163620064Y-78230446D01*
X163559554Y-78169936D01*
X163485445Y-78127149D01*
X163402787Y-78105000D01*
X163317213Y-78105000D01*
X163234555Y-78127149D01*
X163160446Y-78169936D01*
X163110000Y-78220382D01*
X163110000Y-77460839D01*
X163610000Y-77460839D01*
X163610000Y-78180000D01*
X164380000Y-78180000D01*
X164380000Y-77460839D01*
X164379999Y-77460839D01*
X164245458Y-77501652D01*
X164071746Y-77594503D01*
X164066678Y-77597890D01*
X164065641Y-77596338D01*
X164009339Y-77620242D01*
X163940473Y-77608442D01*
X163923541Y-77597560D01*
X163923322Y-77597890D01*
X163918253Y-77594503D01*
X163744541Y-77501652D01*
X163610000Y-77460839D01*
X163110000Y-77460839D01*
X163109999Y-77460839D01*
X162975458Y-77501652D01*
X162801746Y-77594503D01*
X162801739Y-77594507D01*
X162649475Y-77719468D01*
X162623641Y-77750946D01*
X162565894Y-77790278D01*
X162496049Y-77792147D01*
X162461817Y-77777271D01*
X162417693Y-77749545D01*
X162258056Y-77693685D01*
X162090003Y-77674751D01*
X162089997Y-77674751D01*
X161921943Y-77693685D01*
X161762306Y-77749545D01*
X161718178Y-77777272D01*
X161650941Y-77796271D01*
X161584106Y-77775902D01*
X161556354Y-77750941D01*
X161530527Y-77719471D01*
X161378260Y-77594507D01*
X161378253Y-77594503D01*
X161204541Y-77501652D01*
X161070000Y-77460839D01*
X161070000Y-78220382D01*
X161019554Y-78169936D01*
X160945445Y-78127149D01*
X160862787Y-78105000D01*
X160777213Y-78105000D01*
X160694555Y-78127149D01*
X160620446Y-78169936D01*
X160559936Y-78230446D01*
X160517149Y-78304555D01*
X160495000Y-78387213D01*
X160495000Y-78472787D01*
X160517149Y-78555445D01*
X160559936Y-78629554D01*
X160610382Y-78680000D01*
X159850840Y-78680000D01*
X159891652Y-78814541D01*
X159984503Y-78988253D01*
X159984507Y-78988260D01*
X160109471Y-79140527D01*
X160140941Y-79166354D01*
X160180276Y-79224100D01*
X160182147Y-79293944D01*
X160167272Y-79328178D01*
X160139545Y-79372306D01*
X160083685Y-79531943D01*
X160064751Y-79699997D01*
X160064751Y-79700002D01*
X160083685Y-79868056D01*
X160139545Y-80027694D01*
X160139547Y-80027697D01*
X160229518Y-80170884D01*
X160229523Y-80170890D01*
X160349109Y-80290476D01*
X160349115Y-80290481D01*
X160492302Y-80380452D01*
X160492305Y-80380454D01*
X160492309Y-80380455D01*
X160492310Y-80380456D01*
X160561779Y-80404764D01*
X160651943Y-80436314D01*
X160819997Y-80455249D01*
X160820000Y-80455249D01*
X160820003Y-80455249D01*
X160930392Y-80442811D01*
X160999214Y-80454865D01*
X161031957Y-80478350D01*
X161641427Y-81087819D01*
X161674912Y-81149142D01*
X161669928Y-81218833D01*
X161628057Y-81274767D01*
X161562592Y-81299184D01*
X161553746Y-81299500D01*
X156504067Y-81299500D01*
X156495957Y-81299235D01*
X156273221Y-81284636D01*
X156257140Y-81282518D01*
X156042228Y-81239769D01*
X156026561Y-81235571D01*
X155819057Y-81165133D01*
X155804071Y-81158926D01*
X155607539Y-81062007D01*
X155593492Y-81053897D01*
X155411291Y-80932154D01*
X155398423Y-80922280D01*
X155233671Y-80777797D01*
X155222202Y-80766328D01*
X155122575Y-80652725D01*
X155077716Y-80601573D01*
X155067845Y-80588708D01*
X155050788Y-80563181D01*
X154946102Y-80406507D01*
X154937992Y-80392460D01*
X154927166Y-80370507D01*
X154841070Y-80195921D01*
X154834866Y-80180942D01*
X154834737Y-80180563D01*
X154782844Y-80027690D01*
X154764428Y-79973438D01*
X154760230Y-79957771D01*
X154742385Y-79868059D01*
X154717479Y-79742848D01*
X154715364Y-79726790D01*
X154700765Y-79504043D01*
X154700500Y-79495933D01*
X154700500Y-78252644D01*
X154720185Y-78185605D01*
X154772989Y-78139850D01*
X154842147Y-78129906D01*
X154903167Y-78156793D01*
X154907836Y-78160625D01*
X154977487Y-78207164D01*
X155047137Y-78253703D01*
X155047138Y-78253703D01*
X155047139Y-78253704D01*
X155067025Y-78261941D01*
X155201918Y-78317816D01*
X155366228Y-78350499D01*
X155366232Y-78350500D01*
X155366233Y-78350500D01*
X156233768Y-78350500D01*
X156233769Y-78350499D01*
X156398082Y-78317816D01*
X156552863Y-78253703D01*
X156663168Y-78179999D01*
X159850839Y-78179999D01*
X159850840Y-78180000D01*
X160570000Y-78180000D01*
X160570000Y-77460839D01*
X160569999Y-77460839D01*
X160435458Y-77501652D01*
X160261746Y-77594503D01*
X160261739Y-77594507D01*
X160109471Y-77719471D01*
X159984507Y-77871739D01*
X159984503Y-77871746D01*
X159891652Y-78045458D01*
X159850839Y-78179999D01*
X156663168Y-78179999D01*
X156692162Y-78160626D01*
X156810626Y-78042162D01*
X156903703Y-77902863D01*
X156967816Y-77748082D01*
X157000500Y-77583767D01*
X157000500Y-77416233D01*
X156967816Y-77251918D01*
X156903703Y-77097137D01*
X156868582Y-77044575D01*
X156810626Y-76957837D01*
X156692162Y-76839373D01*
X156552860Y-76746295D01*
X156398082Y-76682184D01*
X156398074Y-76682182D01*
X156233771Y-76649500D01*
X156233767Y-76649500D01*
X155366233Y-76649500D01*
X155366228Y-76649500D01*
X155201925Y-76682182D01*
X155201917Y-76682184D01*
X155047139Y-76746295D01*
X154907833Y-76839376D01*
X154903161Y-76843211D01*
X154838850Y-76870522D01*
X154769983Y-76858728D01*
X154718425Y-76811574D01*
X154700500Y-76747355D01*
X154700500Y-76500000D01*
X157519780Y-76500000D01*
X157538614Y-76691229D01*
X157594396Y-76875118D01*
X157684973Y-77044575D01*
X157684977Y-77044582D01*
X157806879Y-77193120D01*
X157955417Y-77315022D01*
X157955424Y-77315026D01*
X158124881Y-77405603D01*
X158124883Y-77405603D01*
X158124886Y-77405605D01*
X158308769Y-77461385D01*
X158308768Y-77461385D01*
X158325914Y-77463073D01*
X158500000Y-77480220D01*
X158691231Y-77461385D01*
X158875114Y-77405605D01*
X159044581Y-77315023D01*
X159193120Y-77193120D01*
X159315023Y-77044581D01*
X159405605Y-76875114D01*
X159461385Y-76691231D01*
X159480220Y-76500000D01*
X159461385Y-76308769D01*
X159405605Y-76124886D01*
X159405603Y-76124883D01*
X159405603Y-76124881D01*
X159315026Y-75955424D01*
X159315022Y-75955417D01*
X159193120Y-75806879D01*
X159044582Y-75684977D01*
X159044575Y-75684973D01*
X158875118Y-75594396D01*
X158749488Y-75556287D01*
X158691231Y-75538615D01*
X158691229Y-75538614D01*
X158691231Y-75538614D01*
X158500000Y-75519780D01*
X158308770Y-75538614D01*
X158124881Y-75594396D01*
X157955424Y-75684973D01*
X157955417Y-75684977D01*
X157806879Y-75806879D01*
X157684977Y-75955417D01*
X157684973Y-75955424D01*
X157594396Y-76124881D01*
X157538614Y-76308770D01*
X157519780Y-76500000D01*
X154700500Y-76500000D01*
X154700500Y-71500000D01*
X157519780Y-71500000D01*
X157538614Y-71691229D01*
X157594396Y-71875118D01*
X157684973Y-72044575D01*
X157684977Y-72044582D01*
X157806879Y-72193120D01*
X157955417Y-72315022D01*
X157955424Y-72315026D01*
X158124881Y-72405603D01*
X158124883Y-72405603D01*
X158124886Y-72405605D01*
X158308769Y-72461385D01*
X158308768Y-72461385D01*
X158325914Y-72463073D01*
X158500000Y-72480220D01*
X158691231Y-72461385D01*
X158875114Y-72405605D01*
X159044581Y-72315023D01*
X159193120Y-72193120D01*
X159193120Y-72193119D01*
X159196835Y-72190071D01*
X159261145Y-72162758D01*
X159330012Y-72174549D01*
X159381573Y-72221701D01*
X159399500Y-72285924D01*
X159399500Y-73257469D01*
X159433608Y-73384765D01*
X159466554Y-73441828D01*
X159499500Y-73498892D01*
X159499502Y-73498894D01*
X161074289Y-75073681D01*
X161101169Y-75113909D01*
X161127561Y-75177625D01*
X161215801Y-75292621D01*
X161330797Y-75380861D01*
X161464713Y-75436330D01*
X161591702Y-75453048D01*
X161608421Y-75455250D01*
X161608422Y-75455250D01*
X161608423Y-75455250D01*
X161623399Y-75453278D01*
X161752131Y-75436330D01*
X161886047Y-75380861D01*
X162001043Y-75292621D01*
X162089283Y-75177625D01*
X162144752Y-75043709D01*
X162163672Y-74900000D01*
X162144752Y-74756291D01*
X162089283Y-74622375D01*
X162001043Y-74507379D01*
X161886047Y-74419139D01*
X161822331Y-74392747D01*
X161782103Y-74365867D01*
X160516235Y-73099999D01*
X165244750Y-73099999D01*
X165244750Y-73100000D01*
X165263670Y-73243708D01*
X165263671Y-73243712D01*
X165319137Y-73377622D01*
X165319138Y-73377624D01*
X165319139Y-73377625D01*
X165407379Y-73492621D01*
X165522375Y-73580861D01*
X165656291Y-73636330D01*
X165783280Y-73653048D01*
X165799999Y-73655250D01*
X165800000Y-73655250D01*
X165800001Y-73655250D01*
X165814977Y-73653278D01*
X165943709Y-73636330D01*
X166077625Y-73580861D01*
X166077631Y-73580856D01*
X166084664Y-73576797D01*
X166085857Y-73578863D01*
X166139678Y-73558054D01*
X166208124Y-73572090D01*
X166216436Y-73577432D01*
X166222371Y-73580858D01*
X166222375Y-73580861D01*
X166356291Y-73636330D01*
X166483280Y-73653048D01*
X166499999Y-73655250D01*
X166500000Y-73655250D01*
X166500001Y-73655250D01*
X166514977Y-73653278D01*
X166643709Y-73636330D01*
X166777625Y-73580861D01*
X166777631Y-73580856D01*
X166784664Y-73576797D01*
X166785857Y-73578863D01*
X166839678Y-73558054D01*
X166908124Y-73572090D01*
X166916436Y-73577432D01*
X166922371Y-73580858D01*
X166922375Y-73580861D01*
X167056291Y-73636330D01*
X167183280Y-73653048D01*
X167199999Y-73655250D01*
X167200000Y-73655250D01*
X167200001Y-73655250D01*
X167214977Y-73653278D01*
X167343709Y-73636330D01*
X167477625Y-73580861D01*
X167592621Y-73492621D01*
X167680861Y-73377625D01*
X167736330Y-73243709D01*
X167755250Y-73100000D01*
X167736330Y-72956291D01*
X167680861Y-72822375D01*
X167680858Y-72822371D01*
X167676797Y-72815336D01*
X167678861Y-72814144D01*
X167658052Y-72760307D01*
X167672095Y-72691863D01*
X167677438Y-72683549D01*
X167680856Y-72677628D01*
X167680861Y-72677622D01*
X167736330Y-72543706D01*
X167755250Y-72399997D01*
X167736330Y-72256288D01*
X167680861Y-72122372D01*
X167592621Y-72007376D01*
X167477625Y-71919136D01*
X167477624Y-71919135D01*
X167477622Y-71919134D01*
X167343712Y-71863668D01*
X167343710Y-71863667D01*
X167343709Y-71863667D01*
X167271854Y-71854207D01*
X167200001Y-71844747D01*
X167199999Y-71844747D01*
X167056291Y-71863667D01*
X167056287Y-71863668D01*
X166922377Y-71919134D01*
X166807379Y-72007376D01*
X166719137Y-72122374D01*
X166663671Y-72256284D01*
X166663670Y-72256288D01*
X166644750Y-72399996D01*
X166644750Y-72399997D01*
X166645603Y-72406477D01*
X166634838Y-72475513D01*
X166588458Y-72527769D01*
X166521189Y-72546654D01*
X166506485Y-72545603D01*
X166500003Y-72544750D01*
X166499999Y-72544750D01*
X166356291Y-72563670D01*
X166356287Y-72563671D01*
X166222374Y-72619138D01*
X166215335Y-72623203D01*
X166214143Y-72621138D01*
X166160304Y-72641946D01*
X166091861Y-72627900D01*
X166083550Y-72622559D01*
X166077625Y-72619138D01*
X165943712Y-72563671D01*
X165943710Y-72563670D01*
X165943709Y-72563670D01*
X165871854Y-72554210D01*
X165800001Y-72544750D01*
X165799999Y-72544750D01*
X165656291Y-72563670D01*
X165656287Y-72563671D01*
X165522377Y-72619137D01*
X165407379Y-72707379D01*
X165319137Y-72822377D01*
X165263671Y-72956287D01*
X165263670Y-72956291D01*
X165244750Y-73099999D01*
X160516235Y-73099999D01*
X160436819Y-73020583D01*
X160403334Y-72959260D01*
X160400500Y-72932902D01*
X160400500Y-72154875D01*
X160409939Y-72107422D01*
X160421474Y-72079574D01*
X160436330Y-72043709D01*
X160455250Y-71900000D01*
X160436330Y-71756291D01*
X160380861Y-71622375D01*
X160292621Y-71507379D01*
X160177625Y-71419139D01*
X160177624Y-71419138D01*
X160177622Y-71419137D01*
X160043712Y-71363671D01*
X160043710Y-71363670D01*
X160043709Y-71363670D01*
X159943675Y-71350500D01*
X159900001Y-71344750D01*
X159899999Y-71344750D01*
X159756291Y-71363670D01*
X159632605Y-71414901D01*
X159563136Y-71422369D01*
X159500657Y-71391093D01*
X159465005Y-71331004D01*
X159461751Y-71312488D01*
X159461385Y-71308769D01*
X159405605Y-71124886D01*
X159405603Y-71124883D01*
X159405603Y-71124881D01*
X159315026Y-70955424D01*
X159315022Y-70955417D01*
X159193120Y-70806879D01*
X159044582Y-70684977D01*
X159044575Y-70684973D01*
X158875118Y-70594396D01*
X158753088Y-70557379D01*
X158691231Y-70538615D01*
X158691229Y-70538614D01*
X158691231Y-70538614D01*
X158500000Y-70519780D01*
X158308770Y-70538614D01*
X158124881Y-70594396D01*
X157955424Y-70684973D01*
X157955417Y-70684977D01*
X157806879Y-70806879D01*
X157684977Y-70955417D01*
X157684973Y-70955424D01*
X157594396Y-71124881D01*
X157538614Y-71308770D01*
X157519780Y-71500000D01*
X154700500Y-71500000D01*
X154700500Y-71252644D01*
X154720185Y-71185605D01*
X154772989Y-71139850D01*
X154842147Y-71129906D01*
X154903167Y-71156793D01*
X154907836Y-71160625D01*
X154977487Y-71207164D01*
X155047137Y-71253703D01*
X155201918Y-71317816D01*
X155337326Y-71344750D01*
X155366228Y-71350499D01*
X155366232Y-71350500D01*
X155366233Y-71350500D01*
X156233768Y-71350500D01*
X156233769Y-71350499D01*
X156398082Y-71317816D01*
X156552863Y-71253703D01*
X156692162Y-71160626D01*
X156810626Y-71042162D01*
X156903703Y-70902863D01*
X156967816Y-70748082D01*
X157000500Y-70583767D01*
X157000500Y-70416233D01*
X156967816Y-70251918D01*
X156903703Y-70097137D01*
X156853750Y-70022377D01*
X156810626Y-69957837D01*
X156692162Y-69839373D01*
X156552860Y-69746295D01*
X156398082Y-69682184D01*
X156398074Y-69682182D01*
X156233771Y-69649500D01*
X156233767Y-69649500D01*
X155366233Y-69649500D01*
X155366228Y-69649500D01*
X155201925Y-69682182D01*
X155201917Y-69682184D01*
X155047139Y-69746295D01*
X154907833Y-69839376D01*
X154903161Y-69843211D01*
X154838850Y-69870522D01*
X154769983Y-69858728D01*
X154718425Y-69811574D01*
X154700500Y-69747355D01*
X154700500Y-68504066D01*
X154700765Y-68495956D01*
X154709224Y-68366894D01*
X154715364Y-68273207D01*
X154717479Y-68257153D01*
X154760230Y-68042226D01*
X154764428Y-68026561D01*
X154831959Y-67827622D01*
X154834868Y-67819049D01*
X154841067Y-67804083D01*
X154937995Y-67607533D01*
X154946098Y-67593498D01*
X154975163Y-67549999D01*
X177694750Y-67549999D01*
X177694750Y-67550000D01*
X177713670Y-67693708D01*
X177713671Y-67693712D01*
X177769137Y-67827622D01*
X177769138Y-67827624D01*
X177769139Y-67827625D01*
X177857379Y-67942621D01*
X177972375Y-68030861D01*
X178106291Y-68086330D01*
X178230054Y-68102624D01*
X178249999Y-68105250D01*
X178250000Y-68105250D01*
X178250001Y-68105250D01*
X178269946Y-68102624D01*
X178393709Y-68086330D01*
X178527625Y-68030861D01*
X178642621Y-67942621D01*
X178730861Y-67827625D01*
X178786330Y-67693709D01*
X178805250Y-67550000D01*
X178786330Y-67406291D01*
X178730861Y-67272375D01*
X178642621Y-67157379D01*
X178527625Y-67069139D01*
X178527624Y-67069138D01*
X178527622Y-67069137D01*
X178393712Y-67013671D01*
X178393710Y-67013670D01*
X178393709Y-67013670D01*
X178321854Y-67004210D01*
X178250001Y-66994750D01*
X178249999Y-66994750D01*
X178106291Y-67013670D01*
X178106287Y-67013671D01*
X177972377Y-67069137D01*
X177857379Y-67157379D01*
X177769137Y-67272377D01*
X177713671Y-67406287D01*
X177713670Y-67406291D01*
X177694750Y-67549999D01*
X154975163Y-67549999D01*
X155067853Y-67411279D01*
X155077710Y-67398433D01*
X155222207Y-67233665D01*
X155233665Y-67222207D01*
X155398433Y-67077710D01*
X155411279Y-67067853D01*
X155593498Y-66946098D01*
X155607533Y-66937995D01*
X155804083Y-66841067D01*
X155819049Y-66834868D01*
X156025945Y-66764637D01*
X156026561Y-66764428D01*
X156042228Y-66760230D01*
X156257153Y-66717479D01*
X156273209Y-66715364D01*
X156478058Y-66701938D01*
X156495958Y-66700765D01*
X156504067Y-66700500D01*
X182376000Y-66700500D01*
X182443039Y-66720185D01*
G37*
%TD.AperFunction*%
%TD*%
M02*
